<svg width="80" height="80" viewBox="0 0 80 80" fill="none" xmlns="http://www.w3.org/2000/svg">
<path d="M46.667 10V23.3333C46.667 24.2174 47.0182 25.0652 47.6433 25.6904C48.2684 26.3155 49.1163 26.6667 50.0003 26.6667H63.3337" stroke="#067FCB" stroke-width="2.94118" stroke-linecap="round" stroke-linejoin="round"/>
<path d="M56.667 70H23.3337C21.5655 70 19.8699 69.2976 18.6196 68.0474C17.3694 66.7971 16.667 65.1014 16.667 63.3333V16.6667C16.667 14.8986 17.3694 13.2029 18.6196 11.9526C19.8699 10.7024 21.5655 10 23.3337 10H46.667L63.3337 26.6667V63.3333C63.3337 65.1014 62.6313 66.7971 61.381 68.0474C60.1308 69.2976 58.4351 70 56.667 70Z" stroke="#067FCB" stroke-width="2.94118" stroke-linecap="round" stroke-linejoin="round"/>
<path d="M27.8053 49.0859H24.3357V38.3682H27.9152C28.9654 38.3682 29.8672 38.5828 30.6208 39.0119C31.3744 39.4376 31.9518 40.0499 32.353 40.8488C32.7577 41.6443 32.9601 42.5984 32.9601 43.7114C32.9601 44.8278 32.756 45.7872 32.3478 46.5897C31.9431 47.3921 31.357 48.0096 30.5894 48.4422C29.8219 48.8714 28.8938 49.0859 27.8053 49.0859ZM25.9528 47.673H27.7164C28.5328 47.673 29.2113 47.5195 29.7521 47.2124C30.2929 46.9019 30.6976 46.4536 30.9662 45.8675C31.2349 45.2779 31.3692 44.5592 31.3692 43.7114C31.3692 42.8706 31.2349 42.1571 30.9662 41.571C30.7011 40.9849 30.3051 40.54 29.7783 40.2365C29.2515 39.933 28.5973 39.7812 27.8158 39.7812H25.9528V47.673ZM44.2809 43.7271C44.2809 44.8714 44.0716 45.8553 43.6529 46.6786C43.2343 47.4985 42.6604 48.13 41.9312 48.5731C41.2055 49.0127 40.3804 49.2325 39.4559 49.2325C38.5278 49.2325 37.6992 49.0127 36.9701 48.5731C36.2444 48.13 35.6722 47.4968 35.2536 46.6734C34.8349 45.85 34.6256 44.8679 34.6256 43.7271C34.6256 42.5827 34.8349 41.6006 35.2536 40.7808C35.6722 39.9574 36.2444 39.3259 36.9701 38.8863C37.6992 38.4432 38.5278 38.2217 39.4559 38.2217C40.3804 38.2217 41.2055 38.4432 41.9312 38.8863C42.6604 39.3259 43.2343 39.9574 43.6529 40.7808C44.0716 41.6006 44.2809 42.5827 44.2809 43.7271ZM42.6795 43.7271C42.6795 42.8549 42.5382 42.1205 42.2557 41.5239C41.9765 40.9238 41.5928 40.4703 41.1043 40.1632C40.6194 39.8527 40.0699 39.6975 39.4559 39.6975C38.8383 39.6975 38.2871 39.8527 37.8022 40.1632C37.3172 40.4703 36.9334 40.9238 36.6508 41.5239C36.3717 42.1205 36.2322 42.8549 36.2322 43.7271C36.2322 44.5993 36.3717 45.3354 36.6508 45.9355C36.9334 46.5321 37.3172 46.9857 37.8022 47.2962C38.2871 47.6032 38.8383 47.7567 39.4559 47.7567C40.0699 47.7567 40.6194 47.6032 41.1043 47.2962C41.5928 46.9857 41.9765 46.5321 42.2557 45.9355C42.5382 45.3354 42.6795 44.5993 42.6795 43.7271ZM55.1988 41.8536H53.566C53.5032 41.5047 53.3863 41.1977 53.2154 40.9325C53.0444 40.6674 52.8351 40.4423 52.5874 40.2574C52.3397 40.0725 52.0623 39.933 51.7553 39.8388C51.4518 39.7446 51.1291 39.6975 50.7872 39.6975C50.1696 39.6975 49.6167 39.8527 49.1282 40.1632C48.6433 40.4737 48.2595 40.929 47.9769 41.5291C47.6978 42.1292 47.5582 42.8619 47.5582 43.7271C47.5582 44.5993 47.6978 45.3354 47.9769 45.9355C48.2595 46.5356 48.645 46.9891 49.1335 47.2962C49.6219 47.6032 50.1714 47.7567 50.7819 47.7567C51.1204 47.7567 51.4413 47.7113 51.7449 47.6206C52.0519 47.5264 52.3292 47.3886 52.5769 47.2072C52.8246 47.0258 53.034 46.8042 53.2049 46.5426C53.3794 46.2774 53.4997 45.9739 53.566 45.632L55.1988 45.6372C55.1116 46.164 54.9424 46.649 54.6912 47.0921C54.4435 47.5317 54.1242 47.9119 53.7335 48.2329C53.3462 48.5504 52.9031 48.7964 52.4042 48.9708C51.9053 49.1452 51.3611 49.2325 50.7715 49.2325C49.8434 49.2325 49.0166 49.0127 48.2909 48.5731C47.5652 48.13 46.9931 47.4968 46.5744 46.6734C46.1592 45.85 45.9516 44.8679 45.9516 43.7271C45.9516 42.5827 46.161 41.6006 46.5796 40.7808C46.9983 39.9574 47.5705 39.3259 48.2961 38.8863C49.0218 38.4432 49.8469 38.2217 50.7715 38.2217C51.3401 38.2217 51.8704 38.3037 52.3624 38.4677C52.8578 38.6282 53.3026 38.8654 53.6969 39.1794C54.0911 39.4899 54.4173 39.8702 54.6755 40.3202C54.9336 40.7668 55.1081 41.2779 55.1988 41.8536Z" fill="#067FCB"/>
</svg>
