<svg width="31" height="31" viewBox="0 0 31 31" fill="none" xmlns="http://www.w3.org/2000/svg">
<path d="M15.4997 0C6.93954 0 0 6.93969 0 15.4997C0 24.0595 6.93954 31 15.4997 31C24.0599 31 31 24.0598 31 15.4997C30.9997 6.93969 24.0599 0 15.4997 0ZM20.7932 9.9148C20.7932 10.0627 20.6734 10.1828 20.5252 10.1828H16.7519V12.2108H20.5249C20.6731 12.2108 20.7929 12.3309 20.7929 12.4788V16.2515C20.7929 16.3997 20.6731 16.5195 20.5249 16.5195H17.0199V24.7987C17.0199 24.9469 16.9001 25.0667 16.7519 25.0667H13.186C13.0378 25.0667 12.918 24.9469 12.918 24.7987V16.5198H10.4746C10.3264 16.5198 10.2066 16.4 10.2066 16.2517V12.4791C10.2066 12.3311 10.3264 12.2111 10.4746 12.2111H12.918V10.6813C12.918 10.6593 12.9207 10.6381 12.9255 10.6178C12.9277 8.43864 13.3937 5.94566 16.9639 5.93441C16.9716 5.93387 16.9799 5.93334 16.988 5.93334H20.5249C20.6731 5.93334 20.7929 6.0534 20.7929 6.20134V9.9148H20.7932Z" fill="#336C5F"/>
</svg>
