<svg width="331" height="332" viewBox="0 0 331 332" fill="none" xmlns="http://www.w3.org/2000/svg">
<rect x="0.416992" width="330" height="54.9474" fill="#004737"/>
<path d="M142.663 27.4637C142.663 29.5001 142.29 31.2509 141.545 32.7161C140.8 34.1751 139.779 35.2989 138.481 36.0873C137.19 36.8696 135.722 37.2608 134.076 37.2608C132.425 37.2608 130.95 36.8696 129.653 36.0873C128.362 35.2989 127.343 34.172 126.598 32.7068C125.853 31.2416 125.481 29.4939 125.481 27.4637C125.481 25.4273 125.853 23.6796 126.598 22.2206C127.343 20.7553 128.362 19.6316 129.653 18.8493C130.95 18.0608 132.425 17.6666 134.076 17.6666C135.722 17.6666 137.19 18.0608 138.481 18.8493C139.779 19.6316 140.8 20.7553 141.545 22.2206C142.29 23.6796 142.663 25.4273 142.663 27.4637ZM139.813 27.4637C139.813 25.9115 139.562 24.6046 139.059 23.543C138.562 22.4751 137.879 21.668 137.01 21.1217C136.147 20.5691 135.169 20.2928 134.076 20.2928C132.978 20.2928 131.997 20.5691 131.134 21.1217C130.271 21.668 129.588 22.4751 129.085 23.543C128.588 24.6046 128.34 25.9115 128.34 27.4637C128.34 29.0158 128.588 30.3258 129.085 31.3937C129.588 32.4553 130.271 33.2625 131.134 33.815C131.997 34.3614 132.978 34.6345 134.076 34.6345C135.169 34.6345 136.147 34.3614 137.01 33.815C137.879 33.2625 138.562 32.4553 139.059 31.3937C139.562 30.3258 139.813 29.0158 139.813 27.4637ZM146.027 37V22.6955H157.696V37H154.967V25.0982H148.737V37H146.027ZM161.419 42.3642V22.6955H164.138V25.0144H164.371C164.532 24.7164 164.765 24.3718 165.07 23.9807C165.374 23.5895 165.796 23.2481 166.336 22.9563C166.876 22.6583 167.59 22.5093 168.478 22.5093C169.633 22.5093 170.663 22.8011 171.57 23.3847C172.476 23.9683 173.187 24.8095 173.702 25.9084C174.224 27.0074 174.485 28.3298 174.485 29.8757C174.485 31.4216 174.227 32.7471 173.712 33.8523C173.196 34.9512 172.489 35.7986 171.588 36.3947C170.688 36.9845 169.661 37.2794 168.506 37.2794C167.637 37.2794 166.926 37.1335 166.373 36.8417C165.827 36.5499 165.399 36.2084 165.088 35.8173C164.778 35.4261 164.539 35.0785 164.371 34.7742H164.203V42.3642H161.419ZM164.148 29.8478C164.148 30.8535 164.293 31.7352 164.585 32.4926C164.877 33.25 165.299 33.843 165.852 34.2713C166.404 34.6935 167.081 34.9046 167.882 34.9046C168.714 34.9046 169.409 34.6842 169.968 34.2434C170.527 33.7964 170.949 33.1911 171.235 32.4274C171.526 31.6638 171.672 30.8039 171.672 29.8478C171.672 28.9041 171.529 28.0566 171.244 27.3054C170.965 26.5541 170.542 25.9612 169.977 25.5266C169.419 25.092 168.72 24.8747 167.882 24.8747C167.075 24.8747 166.392 25.0827 165.833 25.4987C165.281 25.9146 164.862 26.4951 164.576 27.2402C164.29 27.9852 164.148 28.8544 164.148 29.8478ZM183.63 37.2887C182.289 37.2887 181.119 36.9814 180.119 36.3667C179.119 35.7521 178.343 34.8922 177.791 33.7871C177.238 32.682 176.962 31.3906 176.962 29.9129C176.962 28.4291 177.238 27.1315 177.791 26.0202C178.343 24.9089 179.119 24.0459 180.119 23.4312C181.119 22.8166 182.289 22.5093 183.63 22.5093C184.971 22.5093 186.141 22.8166 187.141 23.4312C188.14 24.0459 188.917 24.9089 189.469 26.0202C190.022 27.1315 190.298 28.4291 190.298 29.9129C190.298 31.3906 190.022 32.682 189.469 33.7871C188.917 34.8922 188.14 35.7521 187.141 36.3667C186.141 36.9814 184.971 37.2887 183.63 37.2887ZM183.639 34.9512C184.508 34.9512 185.229 34.7215 185.8 34.262C186.371 33.8026 186.793 33.1911 187.066 32.4274C187.346 31.6638 187.485 30.8225 187.485 29.9036C187.485 28.991 187.346 28.1528 187.066 27.3892C186.793 26.6193 186.371 26.0016 185.8 25.5359C185.229 25.0703 184.508 24.8375 183.639 24.8375C182.764 24.8375 182.037 25.0703 181.46 25.5359C180.889 26.0016 180.464 26.6193 180.184 27.3892C179.911 28.1528 179.774 28.991 179.774 29.9036C179.774 30.8225 179.911 31.6638 180.184 32.4274C180.464 33.1911 180.889 33.8026 181.46 34.262C182.037 34.7215 182.764 34.9512 183.639 34.9512ZM199.431 37.2887C198.047 37.2887 196.855 36.9752 195.855 36.3481C194.862 35.7148 194.098 34.8425 193.564 33.7312C193.03 32.6199 192.763 31.3471 192.763 29.9129C192.763 28.4602 193.037 27.1781 193.583 26.0668C194.129 24.9492 194.899 24.0769 195.893 23.4499C196.886 22.8228 198.056 22.5093 199.404 22.5093C200.49 22.5093 201.459 22.711 202.309 23.1146C203.16 23.5119 203.846 24.0707 204.367 24.7909C204.895 25.5111 205.209 26.3524 205.308 27.3147H202.598C202.449 26.6442 202.107 26.0668 201.573 25.5825C201.046 25.0982 200.338 24.8561 199.45 24.8561C198.674 24.8561 197.994 25.061 197.411 25.4707C196.833 25.8743 196.383 26.4517 196.06 27.2029C195.737 27.9479 195.576 28.8296 195.576 29.8478C195.576 30.8908 195.734 31.791 196.051 32.5485C196.368 33.3059 196.815 33.8926 197.392 34.3086C197.976 34.7246 198.662 34.9326 199.45 34.9326C199.978 34.9326 200.456 34.8363 200.884 34.6439C201.319 34.4452 201.682 34.1627 201.974 33.7964C202.272 33.4301 202.48 32.9893 202.598 32.474H205.308C205.209 33.399 204.907 34.2248 204.404 34.9512C203.902 35.6776 203.228 36.2488 202.384 36.6647C201.545 37.0807 200.561 37.2887 199.431 37.2887Z" fill="#56F09F"/>
<path d="M2.53063 88V70.5455H8.6329C9.84881 70.5455 10.8517 70.7557 11.6414 71.1761C12.4312 71.5909 13.0193 72.1506 13.4056 72.8551C13.792 73.554 13.9852 74.3295 13.9852 75.1818C13.9852 75.9318 13.8517 76.5511 13.5846 77.0398C13.3232 77.5284 12.9767 77.9148 12.5448 78.1989C12.1187 78.483 11.6556 78.6932 11.1556 78.8295V79C11.6897 79.0341 12.2267 79.2216 12.7664 79.5625C13.3062 79.9034 13.7579 80.392 14.1215 81.0284C14.4852 81.6648 14.667 82.4432 14.667 83.3636C14.667 84.2386 14.4681 85.0256 14.0704 85.7244C13.6727 86.4233 13.0448 86.9773 12.1869 87.3864C11.3289 87.7955 10.2124 88 8.83745 88H2.53063ZM4.64427 86.125H8.83745C10.2181 86.125 11.1982 85.858 11.7778 85.3239C12.363 84.7841 12.6556 84.1307 12.6556 83.3636C12.6556 82.7727 12.5051 82.2273 12.2039 81.7273C11.9028 81.2216 11.4738 80.8182 10.917 80.517C10.3602 80.2102 9.70108 80.0568 8.93972 80.0568H4.64427V86.125ZM4.64427 78.2159H8.56472C9.20108 78.2159 9.77495 78.0909 10.2863 77.8409C10.8034 77.5909 11.2124 77.2386 11.5136 76.7841C11.8204 76.3295 11.9738 75.7955 11.9738 75.1818C11.9738 74.4148 11.7068 73.7642 11.1727 73.2301C10.6386 72.6903 9.79199 72.4205 8.6329 72.4205H4.64427V78.2159ZM21.7195 88.3068C20.89 88.3068 20.1372 88.1506 19.461 87.8381C18.7849 87.5199 18.248 87.0625 17.8502 86.4659C17.4525 85.8636 17.2536 85.1364 17.2536 84.2841C17.2536 83.5341 17.4014 82.9261 17.6968 82.4602C17.9923 81.9886 18.3872 81.6193 18.8815 81.3523C19.3758 81.0852 19.9213 80.8864 20.5178 80.7557C21.1201 80.6193 21.7252 80.5114 22.3332 80.4318C23.1286 80.3295 23.7735 80.2528 24.2678 80.2017C24.7678 80.1449 25.1315 80.0511 25.3588 79.9205C25.5917 79.7898 25.7082 79.5625 25.7082 79.2386V79.1705C25.7082 78.3295 25.4781 77.6761 25.0178 77.2102C24.5633 76.7443 23.873 76.5114 22.9468 76.5114C21.9866 76.5114 21.2338 76.7216 20.6883 77.142C20.1428 77.5625 19.7593 78.0114 19.5377 78.4886L17.6286 77.8068C17.9695 77.0114 18.4241 76.392 18.9923 75.9489C19.5661 75.5 20.1911 75.1875 20.8673 75.0114C21.5491 74.8295 22.2195 74.7386 22.8786 74.7386C23.2991 74.7386 23.782 74.7898 24.3275 74.892C24.8786 74.9886 25.4099 75.1903 25.9213 75.4972C26.4383 75.804 26.8673 76.267 27.2082 76.8864C27.5491 77.5057 27.7195 78.3352 27.7195 79.375V88H25.7082V86.2273H25.6059C25.4695 86.5114 25.2423 86.8153 24.9241 87.1392C24.6059 87.4631 24.1826 87.7386 23.6542 87.9659C23.1258 88.1932 22.4809 88.3068 21.7195 88.3068ZM22.0264 86.5C22.8218 86.5 23.4923 86.3438 24.0377 86.0312C24.5889 85.7188 25.0036 85.3153 25.282 84.821C25.5661 84.3267 25.7082 83.8068 25.7082 83.2614V81.4205C25.623 81.5227 25.4355 81.6165 25.1457 81.7017C24.8616 81.7812 24.532 81.8523 24.157 81.9148C23.7877 81.9716 23.4269 82.0227 23.0747 82.0682C22.7281 82.108 22.4468 82.142 22.2309 82.1705C21.7082 82.2386 21.2195 82.3494 20.765 82.5028C20.3161 82.6506 19.9525 82.875 19.6741 83.1761C19.4014 83.4716 19.265 83.875 19.265 84.3864C19.265 85.0852 19.5235 85.6136 20.0406 85.9716C20.5633 86.3239 21.2252 86.5 22.0264 86.5ZM38.5498 85.2727L43.118 74.9091H45.0271L39.368 88H37.7316L32.1748 74.9091H34.0498L38.5498 85.2727ZM33.4021 74.9091V88H31.3907V74.9091H33.4021ZM43.6975 88V74.9091H45.7089V88H43.6975ZM64.9021 80.5341V82.4091H57.6748V80.5341H64.9021ZM58.1521 74.9091V88H56.1407V74.9091H58.1521ZM66.4362 74.9091V88H64.4248V74.9091H66.4362ZM70.1095 92.9091V74.9091H72.0526V76.9886H72.2913C72.439 76.7614 72.6436 76.4716 72.9049 76.1193C73.172 75.7614 73.5526 75.4432 74.047 75.1648C74.547 74.8807 75.2231 74.7386 76.0754 74.7386C77.1776 74.7386 78.1492 75.0142 78.9901 75.5653C79.8311 76.1165 80.4873 76.8977 80.9589 77.9091C81.4305 78.9205 81.6663 80.1136 81.6663 81.4886C81.6663 82.875 81.4305 84.0767 80.9589 85.0938C80.4873 86.1051 79.8339 86.8892 78.9987 87.446C78.1634 87.9972 77.2004 88.2727 76.1095 88.2727C75.2686 88.2727 74.5953 88.1335 74.0896 87.8551C73.5839 87.571 73.1947 87.25 72.922 86.892C72.6492 86.5284 72.439 86.2273 72.2913 85.9886H72.1208V92.9091H70.1095ZM72.0867 81.4545C72.0867 82.4432 72.2316 83.3153 72.5214 84.071C72.8112 84.821 73.2345 85.4091 73.7913 85.8352C74.3481 86.2557 75.0299 86.4659 75.8367 86.4659C76.6776 86.4659 77.3794 86.2443 77.9419 85.8011C78.51 85.3523 78.9362 84.75 79.2203 83.9943C79.51 83.233 79.6549 82.3864 79.6549 81.4545C79.6549 80.5341 79.5129 79.7045 79.2288 78.9659C78.9504 78.2216 78.5271 77.6335 77.9589 77.2017C77.3964 76.7642 76.689 76.5455 75.8367 76.5455C75.0186 76.5455 74.3311 76.7528 73.7742 77.1676C73.2174 77.5767 72.797 78.1506 72.5129 78.8892C72.2288 79.6222 72.0867 80.4773 72.0867 81.4545ZM88.5867 88.3068C87.7572 88.3068 87.0044 88.1506 86.3282 87.8381C85.6521 87.5199 85.1151 87.0625 84.7174 86.4659C84.3197 85.8636 84.1208 85.1364 84.1208 84.2841C84.1208 83.5341 84.2686 82.9261 84.564 82.4602C84.8595 81.9886 85.2544 81.6193 85.7487 81.3523C86.243 81.0852 86.7884 80.8864 87.385 80.7557C87.9873 80.6193 88.5924 80.5114 89.2004 80.4318C89.9958 80.3295 90.6407 80.2528 91.135 80.2017C91.635 80.1449 91.9987 80.0511 92.2259 79.9205C92.4589 79.7898 92.5754 79.5625 92.5754 79.2386V79.1705C92.5754 78.3295 92.3453 77.6761 91.885 77.2102C91.4305 76.7443 90.7401 76.5114 89.814 76.5114C88.8538 76.5114 88.1009 76.7216 87.5555 77.142C87.01 77.5625 86.6265 78.0114 86.4049 78.4886L84.4958 77.8068C84.8367 77.0114 85.2913 76.392 85.8595 75.9489C86.4333 75.5 87.0583 75.1875 87.7345 75.0114C88.4163 74.8295 89.0867 74.7386 89.7458 74.7386C90.1663 74.7386 90.6492 74.7898 91.1947 74.892C91.7458 74.9886 92.2771 75.1903 92.7884 75.4972C93.3055 75.804 93.7345 76.267 94.0754 76.8864C94.4163 77.5057 94.5867 78.3352 94.5867 79.375V88H92.5754V86.2273H92.4731C92.3367 86.5114 92.1095 86.8153 91.7913 87.1392C91.4731 87.4631 91.0498 87.7386 90.5214 87.9659C89.993 88.1932 89.3481 88.3068 88.5867 88.3068ZM88.8936 86.5C89.689 86.5 90.3595 86.3438 90.9049 86.0312C91.4561 85.7188 91.8708 85.3153 92.1492 84.821C92.4333 84.3267 92.5754 83.8068 92.5754 83.2614V81.4205C92.4901 81.5227 92.3026 81.6165 92.0129 81.7017C91.7288 81.7812 91.3992 81.8523 91.0242 81.9148C90.6549 81.9716 90.2941 82.0227 89.9419 82.0682C89.5953 82.108 89.314 82.142 89.0981 82.1705C88.5754 82.2386 88.0867 82.3494 87.6322 82.5028C87.1833 82.6506 86.8197 82.875 86.5413 83.1761C86.2686 83.4716 86.1322 83.875 86.1322 84.3864C86.1322 85.0852 86.3907 85.6136 86.9078 85.9716C87.4305 86.3239 88.0924 86.5 88.8936 86.5ZM98.2579 88V74.9091H103.61C105.019 74.9091 106.139 75.2273 106.968 75.8636C107.798 76.5 108.212 77.3409 108.212 78.3864C108.212 79.1818 107.977 79.7983 107.505 80.2358C107.033 80.6676 106.428 80.9602 105.69 81.1136C106.173 81.1818 106.641 81.3523 107.096 81.625C107.556 81.8977 107.937 82.2727 108.238 82.75C108.539 83.2216 108.69 83.8011 108.69 84.4886C108.69 85.1591 108.519 85.7585 108.178 86.2869C107.837 86.8153 107.349 87.233 106.712 87.5398C106.076 87.8466 105.315 88 104.428 88H98.2579ZM100.167 86.1591H104.428C105.122 86.1591 105.664 85.9943 106.056 85.6648C106.448 85.3352 106.644 84.8864 106.644 84.3182C106.644 83.642 106.448 83.1108 106.056 82.7244C105.664 82.3324 105.122 82.1364 104.428 82.1364H100.167V86.1591ZM100.167 80.3977H103.61C104.15 80.3977 104.613 80.3239 104.999 80.1761C105.386 80.0227 105.681 79.8068 105.886 79.5284C106.096 79.2443 106.201 78.9091 106.201 78.5227C106.201 77.9716 105.971 77.5398 105.511 77.2273C105.051 76.9091 104.417 76.75 103.61 76.75H100.167V80.3977ZM113.746 85.0341L120.053 74.9091H122.371V88H120.359V77.875L114.087 88H111.734V74.9091H113.746V85.0341ZM124.274 76.7841V74.9091H134.91V76.7841H130.614V88H128.603V76.7841H124.274ZM139.582 79.6477H143.332C144.867 79.6477 146.04 80.0369 146.852 80.8153C147.665 81.5937 148.071 82.5795 148.071 83.7727C148.071 84.5568 147.889 85.2699 147.526 85.9119C147.162 86.5483 146.628 87.0568 145.923 87.4375C145.219 87.8125 144.355 88 143.332 88H137.844V74.9091H139.855V86.125H143.332C144.128 86.125 144.781 85.9148 145.293 85.4943C145.804 85.0739 146.06 84.5341 146.06 83.875C146.06 83.1818 145.804 82.6165 145.293 82.179C144.781 81.7415 144.128 81.5227 143.332 81.5227H139.582V79.6477ZM156.451 88.2727C155.224 88.2727 154.167 87.983 153.281 87.4034C152.394 86.8239 151.712 86.0256 151.235 85.0085C150.758 83.9915 150.519 82.8295 150.519 81.5227C150.519 80.1932 150.764 79.0199 151.252 78.0028C151.747 76.9801 152.434 76.1818 153.315 75.608C154.201 75.0284 155.235 74.7386 156.417 74.7386C157.337 74.7386 158.167 74.9091 158.906 75.25C159.644 75.5909 160.249 76.0682 160.721 76.6818C161.193 77.2955 161.485 78.0114 161.599 78.8295H159.587C159.434 78.233 159.093 77.7045 158.565 77.2443C158.042 76.7784 157.337 76.5455 156.451 76.5455C155.667 76.5455 154.979 76.75 154.389 77.1591C153.803 77.5625 153.346 78.1335 153.016 78.8722C152.693 79.6051 152.531 80.4659 152.531 81.4545C152.531 82.4659 152.69 83.3466 153.008 84.0966C153.332 84.8466 153.786 85.429 154.372 85.8438C154.962 86.2585 155.656 86.4659 156.451 86.4659C156.974 86.4659 157.448 86.375 157.874 86.1932C158.301 86.0114 158.661 85.75 158.957 85.4091C159.252 85.0682 159.462 84.6591 159.587 84.1818H161.599C161.485 84.9545 161.204 85.6506 160.755 86.2699C160.312 86.8835 159.724 87.3722 158.991 87.7358C158.264 88.0938 157.417 88.2727 156.451 88.2727ZM172.414 88V76.75H168.937C168.153 76.75 167.536 76.9318 167.087 77.2955C166.639 77.6591 166.414 78.1591 166.414 78.7955C166.414 79.4205 166.616 79.9119 167.019 80.2699C167.428 80.6278 167.988 80.8068 168.698 80.8068H172.926V82.6818H168.698C167.812 82.6818 167.048 82.5256 166.406 82.2131C165.764 81.9006 165.269 81.4545 164.923 80.875C164.576 80.2898 164.403 79.5966 164.403 78.7955C164.403 77.9886 164.585 77.2955 164.948 76.7159C165.312 76.1364 165.832 75.6903 166.508 75.3778C167.19 75.0653 167.999 74.9091 168.937 74.9091H174.323V88H172.414ZM163.687 88L167.403 81.4886H169.585L165.869 88H163.687ZM193.527 80.5341V82.4091H186.3V80.5341H193.527ZM186.777 74.9091V88H184.766V74.9091H186.777ZM195.061 74.9091V88H193.05V74.9091H195.061ZM204.053 88.2727C202.871 88.2727 201.834 87.9915 200.942 87.429C200.055 86.8665 199.362 86.0795 198.862 85.0682C198.368 84.0568 198.121 82.875 198.121 81.5227C198.121 80.1591 198.368 78.9687 198.862 77.9517C199.362 76.9347 200.055 76.1449 200.942 75.5824C201.834 75.0199 202.871 74.7386 204.053 74.7386C205.234 74.7386 206.269 75.0199 207.155 75.5824C208.047 76.1449 208.74 76.9347 209.234 77.9517C209.734 78.9687 209.984 80.1591 209.984 81.5227C209.984 82.875 209.734 84.0568 209.234 85.0682C208.74 86.0795 208.047 86.8665 207.155 87.429C206.269 87.9915 205.234 88.2727 204.053 88.2727ZM204.053 86.4659C204.95 86.4659 205.689 86.2358 206.269 85.7756C206.848 85.3153 207.277 84.7102 207.555 83.9602C207.834 83.2102 207.973 82.3977 207.973 81.5227C207.973 80.6477 207.834 79.8324 207.555 79.0767C207.277 78.321 206.848 77.7102 206.269 77.2443C205.689 76.7784 204.95 76.5455 204.053 76.5455C203.155 76.5455 202.416 76.7784 201.837 77.2443C201.257 77.7102 200.828 78.321 200.55 79.0767C200.271 79.8324 200.132 80.6477 200.132 81.5227C200.132 82.3977 200.271 83.2102 200.55 83.9602C200.828 84.7102 201.257 85.3153 201.837 85.7756C202.416 86.2358 203.155 86.4659 204.053 86.4659ZM213.055 88V74.9091H218.407C219.816 74.9091 220.935 75.2273 221.765 75.8636C222.595 76.5 223.009 77.3409 223.009 78.3864C223.009 79.1818 222.774 79.7983 222.302 80.2358C221.83 80.6676 221.225 80.9602 220.487 81.1136C220.97 81.1818 221.438 81.3523 221.893 81.625C222.353 81.8977 222.734 82.2727 223.035 82.75C223.336 83.2216 223.487 83.8011 223.487 84.4886C223.487 85.1591 223.316 85.7585 222.975 86.2869C222.634 86.8153 222.146 87.233 221.509 87.5398C220.873 87.8466 220.112 88 219.225 88H213.055ZM214.964 86.1591H219.225C219.918 86.1591 220.461 85.9943 220.853 85.6648C221.245 85.3352 221.441 84.8864 221.441 84.3182C221.441 83.642 221.245 83.1108 220.853 82.7244C220.461 82.3324 219.918 82.1364 219.225 82.1364H214.964V86.1591ZM214.964 80.3977H218.407C218.947 80.3977 219.41 80.3239 219.796 80.1761C220.183 80.0227 220.478 79.8068 220.683 79.5284C220.893 79.2443 220.998 78.9091 220.998 78.5227C220.998 77.9716 220.768 77.5398 220.308 77.2273C219.847 76.9091 219.214 76.75 218.407 76.75H214.964V80.3977ZM228.27 79.6477H232.02C233.554 79.6477 234.727 80.0369 235.54 80.8153C236.352 81.5937 236.759 82.5795 236.759 83.7727C236.759 84.5568 236.577 85.2699 236.213 85.9119C235.85 86.5483 235.315 87.0568 234.611 87.4375C233.906 87.8125 233.043 88 232.02 88H226.531V74.9091H228.543V86.125H232.02C232.815 86.125 233.469 85.9148 233.98 85.4943C234.492 85.0739 234.747 84.5341 234.747 83.875C234.747 83.1818 234.492 82.6165 233.98 82.179C233.469 81.7415 232.815 81.5227 232.02 81.5227H228.27V79.6477ZM238.838 88V74.9091H240.85V88H238.838ZM246.543 85.0341L252.85 74.9091H255.168V88H253.156V77.875L246.884 88H244.531V74.9091H246.543V85.0341ZM251.52 70.5455H253.395C253.395 71.4659 253.077 72.2188 252.44 72.804C251.804 73.3892 250.94 73.6818 249.85 73.6818C248.776 73.6818 247.921 73.3892 247.284 72.804C246.653 72.2188 246.338 71.4659 246.338 70.5455H248.213C248.213 70.9886 248.335 71.3778 248.58 71.7131C248.83 72.0483 249.253 72.2159 249.85 72.2159C250.446 72.2159 250.872 72.0483 251.128 71.7131C251.389 71.3778 251.52 70.9886 251.52 70.5455ZM0.860174 120.75V115.125H1.95108C2.21813 114.847 2.44824 114.545 2.64142 114.222C2.83461 113.898 3.00222 113.514 3.14426 113.071C3.29199 112.622 3.41699 112.077 3.51927 111.435C3.62154 110.787 3.71245 110.006 3.79199 109.091L4.23517 103.909H12.5534V115.125H14.5647V120.75H12.5534V117H2.87154V120.75H0.860174ZM4.23517 115.125H10.542V105.784H6.11017L5.76927 109.091C5.62722 110.46 5.45108 111.656 5.24086 112.679C5.03063 113.702 4.6954 114.517 4.23517 115.125ZM19.2458 114.034L25.5526 103.909H27.8708V117H25.8595V106.875L19.5867 117H17.2345V103.909H19.2458V114.034ZM30.7366 113.659H32.8843C32.9298 114.25 33.1968 114.699 33.6855 115.006C34.1798 115.312 34.8218 115.466 35.6116 115.466C36.4184 115.466 37.1088 115.301 37.6826 114.972C38.2565 114.636 38.5434 114.097 38.5434 113.352C38.5434 112.915 38.4355 112.534 38.2195 112.21C38.0036 111.881 37.6997 111.625 37.3076 111.443C36.9156 111.261 36.4525 111.17 35.9184 111.17H33.6684V109.364H35.9184C36.7195 109.364 37.3105 109.182 37.6911 108.818C38.0775 108.455 38.2707 108 38.2707 107.455C38.2707 106.869 38.0633 106.401 37.6485 106.048C37.2338 105.69 36.6457 105.511 35.8843 105.511C35.1173 105.511 34.4781 105.685 33.9667 106.031C33.4553 106.372 33.1855 106.812 33.157 107.352H31.0434C31.0661 106.648 31.282 106.026 31.6911 105.486C32.1002 104.94 32.657 104.514 33.3616 104.207C34.0661 103.895 34.873 103.739 35.782 103.739C36.7025 103.739 37.5008 103.901 38.1769 104.224C38.8588 104.543 39.3843 104.977 39.7536 105.528C40.1286 106.074 40.3161 106.693 40.3161 107.386C40.3161 108.125 40.1088 108.722 39.694 109.176C39.2792 109.631 38.7593 109.955 38.1343 110.148V110.284C38.6286 110.318 39.0576 110.477 39.4213 110.761C39.7906 111.04 40.0775 111.406 40.282 111.861C40.4866 112.31 40.5889 112.807 40.5889 113.352C40.5889 114.148 40.3758 114.841 39.9497 115.432C39.5235 116.017 38.9383 116.472 38.194 116.795C37.4497 117.114 36.6002 117.273 35.6457 117.273C34.7195 117.273 33.89 117.122 33.157 116.821C32.4241 116.514 31.8417 116.091 31.4099 115.551C30.9838 115.006 30.7593 114.375 30.7366 113.659ZM47.2664 117.307C46.4369 117.307 45.684 117.151 45.0079 116.838C44.3318 116.52 43.7948 116.062 43.3971 115.466C42.9994 114.864 42.8005 114.136 42.8005 113.284C42.8005 112.534 42.9482 111.926 43.2437 111.46C43.5392 110.989 43.934 110.619 44.4284 110.352C44.9227 110.085 45.4681 109.886 46.0647 109.756C46.667 109.619 47.2721 109.511 47.8801 109.432C48.6755 109.33 49.3204 109.253 49.8147 109.202C50.3147 109.145 50.6784 109.051 50.9056 108.92C51.1386 108.79 51.2551 108.562 51.2551 108.239V108.17C51.2551 107.33 51.0249 106.676 50.5647 106.21C50.1102 105.744 49.4198 105.511 48.4937 105.511C47.5335 105.511 46.7806 105.722 46.2352 106.142C45.6897 106.562 45.3062 107.011 45.0846 107.489L43.1755 106.807C43.5164 106.011 43.971 105.392 44.5392 104.949C45.113 104.5 45.738 104.187 46.4142 104.011C47.096 103.83 47.7664 103.739 48.4255 103.739C48.846 103.739 49.3289 103.79 49.8744 103.892C50.4255 103.989 50.9568 104.19 51.4681 104.497C51.9852 104.804 52.4142 105.267 52.7551 105.886C53.096 106.506 53.2664 107.335 53.2664 108.375V117H51.2551V115.227H51.1528C51.0164 115.511 50.7892 115.815 50.471 116.139C50.1528 116.463 49.7295 116.739 49.2011 116.966C48.6727 117.193 48.0278 117.307 47.2664 117.307ZM47.5732 115.5C48.3687 115.5 49.0392 115.344 49.5846 115.031C50.1357 114.719 50.5505 114.315 50.8289 113.821C51.113 113.327 51.2551 112.807 51.2551 112.261V110.42C51.1698 110.523 50.9823 110.616 50.6926 110.702C50.4085 110.781 50.0789 110.852 49.7039 110.915C49.3346 110.972 48.9738 111.023 48.6215 111.068C48.2749 111.108 47.9937 111.142 47.7778 111.17C47.2551 111.239 46.7664 111.349 46.3119 111.503C45.863 111.651 45.4994 111.875 45.221 112.176C44.9482 112.472 44.8119 112.875 44.8119 113.386C44.8119 114.085 45.0704 114.614 45.5874 114.972C46.1102 115.324 46.7721 115.5 47.5732 115.5ZM58.949 114.034L65.2558 103.909H67.574V117H65.5626V106.875L59.2899 117H56.9376V103.909H58.949V114.034ZM63.9262 99.5455H65.8012C65.8012 100.466 65.483 101.219 64.8467 101.804C64.2103 102.389 63.3467 102.682 62.2558 102.682C61.1819 102.682 60.3268 102.389 59.6904 101.804C59.0597 101.219 58.7444 100.466 58.7444 99.5455H60.6194C60.6194 99.9886 60.7416 100.378 60.9859 100.713C61.2359 101.048 61.6592 101.216 62.2558 101.216C62.8524 101.216 63.2785 101.048 63.5342 100.713C63.7955 100.378 63.9262 99.9886 63.9262 99.5455ZM80.0193 109.534V111.409H72.792V109.534H80.0193ZM73.2693 103.909V117H71.2579V103.909H73.2693ZM81.5534 103.909V117H79.542V103.909H81.5534ZM97.2948 117.273C96.0676 117.273 95.0107 116.983 94.1244 116.403C93.238 115.824 92.5562 115.026 92.0789 114.009C91.6017 112.991 91.363 111.83 91.363 110.523C91.363 109.193 91.6073 108.02 92.096 107.003C92.5903 105.98 93.2778 105.182 94.1585 104.608C95.0448 104.028 96.0789 103.739 97.2607 103.739C98.1812 103.739 99.0107 103.909 99.7494 104.25C100.488 104.591 101.093 105.068 101.565 105.682C102.036 106.295 102.329 107.011 102.443 107.83H100.431C100.278 107.233 99.9369 106.705 99.4085 106.244C98.8857 105.778 98.1812 105.545 97.2948 105.545C96.5107 105.545 95.8232 105.75 95.2323 106.159C94.6471 106.562 94.1897 107.134 93.8602 107.872C93.5363 108.605 93.3744 109.466 93.3744 110.455C93.3744 111.466 93.5335 112.347 93.8517 113.097C94.1755 113.847 94.6301 114.429 95.2153 114.844C95.8062 115.259 96.4994 115.466 97.2948 115.466C97.8176 115.466 98.292 115.375 98.7181 115.193C99.1443 115.011 99.5051 114.75 99.8005 114.409C100.096 114.068 100.306 113.659 100.431 113.182H102.443C102.329 113.955 102.048 114.651 101.599 115.27C101.156 115.884 100.568 116.372 99.8346 116.736C99.1073 117.094 98.2607 117.273 97.2948 117.273ZM109.235 117.307C108.406 117.307 107.653 117.151 106.977 116.838C106.301 116.52 105.764 116.062 105.366 115.466C104.968 114.864 104.769 114.136 104.769 113.284C104.769 112.534 104.917 111.926 105.212 111.46C105.508 110.989 105.903 110.619 106.397 110.352C106.891 110.085 107.437 109.886 108.033 109.756C108.636 109.619 109.241 109.511 109.849 109.432C110.644 109.33 111.289 109.253 111.783 109.202C112.283 109.145 112.647 109.051 112.874 108.92C113.107 108.79 113.224 108.562 113.224 108.239V108.17C113.224 107.33 112.994 106.676 112.533 106.21C112.079 105.744 111.389 105.511 110.462 105.511C109.502 105.511 108.749 105.722 108.204 106.142C107.658 106.562 107.275 107.011 107.053 107.489L105.144 106.807C105.485 106.011 105.94 105.392 106.508 104.949C107.082 104.5 107.707 104.187 108.383 104.011C109.065 103.83 109.735 103.739 110.394 103.739C110.815 103.739 111.298 103.79 111.843 103.892C112.394 103.989 112.926 104.19 113.437 104.497C113.954 104.804 114.383 105.267 114.724 105.886C115.065 106.506 115.235 107.335 115.235 108.375V117H113.224V115.227H113.122C112.985 115.511 112.758 115.815 112.44 116.139C112.122 116.463 111.698 116.739 111.17 116.966C110.641 117.193 109.997 117.307 109.235 117.307ZM109.542 115.5C110.337 115.5 111.008 115.344 111.553 115.031C112.104 114.719 112.519 114.315 112.798 113.821C113.082 113.327 113.224 112.807 113.224 112.261V110.42C113.139 110.523 112.951 110.616 112.661 110.702C112.377 110.781 112.048 110.852 111.673 110.915C111.303 110.972 110.943 111.023 110.59 111.068C110.244 111.108 109.962 111.142 109.747 111.17C109.224 111.239 108.735 111.349 108.281 111.503C107.832 111.651 107.468 111.875 107.19 112.176C106.917 112.472 106.781 112.875 106.781 113.386C106.781 114.085 107.039 114.614 107.556 114.972C108.079 115.324 108.741 115.5 109.542 115.5ZM120.918 114.034L127.225 103.909H129.543V117H127.531V106.875L121.259 117H118.906V103.909H120.918V114.034ZM125.895 99.5455H127.77C127.77 100.466 127.452 101.219 126.815 101.804C126.179 102.389 125.315 102.682 124.225 102.682C123.151 102.682 122.296 102.389 121.659 101.804C121.028 101.219 120.713 100.466 120.713 99.5455H122.588C122.588 99.9886 122.71 100.378 122.955 100.713C123.205 101.048 123.628 101.216 124.225 101.216C124.821 101.216 125.247 101.048 125.503 100.713C125.764 100.378 125.895 99.9886 125.895 99.5455ZM131.445 105.784V103.909H142.082V105.784H137.786V117H135.775V105.784H131.445ZM148.188 117.307C147.359 117.307 146.606 117.151 145.93 116.838C145.254 116.52 144.717 116.062 144.319 115.466C143.921 114.864 143.722 114.136 143.722 113.284C143.722 112.534 143.87 111.926 144.166 111.46C144.461 110.989 144.856 110.619 145.35 110.352C145.845 110.085 146.39 109.886 146.987 109.756C147.589 109.619 148.194 109.511 148.802 109.432C149.597 109.33 150.242 109.253 150.737 109.202C151.237 109.145 151.6 109.051 151.828 108.92C152.06 108.79 152.177 108.562 152.177 108.239V108.17C152.177 107.33 151.947 106.676 151.487 106.21C151.032 105.744 150.342 105.511 149.416 105.511C148.455 105.511 147.703 105.722 147.157 106.142C146.612 106.562 146.228 107.011 146.006 107.489L144.097 106.807C144.438 106.011 144.893 105.392 145.461 104.949C146.035 104.5 146.66 104.187 147.336 104.011C148.018 103.83 148.688 103.739 149.347 103.739C149.768 103.739 150.251 103.79 150.796 103.892C151.347 103.989 151.879 104.19 152.39 104.497C152.907 104.804 153.336 105.267 153.677 105.886C154.018 106.506 154.188 107.335 154.188 108.375V117H152.177V115.227H152.075C151.938 115.511 151.711 115.815 151.393 116.139C151.075 116.463 150.651 116.739 150.123 116.966C149.595 117.193 148.95 117.307 148.188 117.307ZM148.495 115.5C149.291 115.5 149.961 115.344 150.506 115.031C151.058 114.719 151.472 114.315 151.751 113.821C152.035 113.327 152.177 112.807 152.177 112.261V110.42C152.092 110.523 151.904 110.616 151.614 110.702C151.33 110.781 151.001 110.852 150.626 110.915C150.256 110.972 149.896 111.023 149.543 111.068C149.197 111.108 148.916 111.142 148.7 111.17C148.177 111.239 147.688 111.349 147.234 111.503C146.785 111.651 146.421 111.875 146.143 112.176C145.87 112.472 145.734 112.875 145.734 113.386C145.734 114.085 145.992 114.614 146.509 114.972C147.032 115.324 147.694 115.5 148.495 115.5Z" fill="#669187"/>
<rect y="282" width="155" height="50" fill="#56F09F"/>
<rect x="175" y="282" width="155" height="50" fill="#56F09F"/>
<path d="M36.4858 299.909V301.315H30.1705V313H28.5852V299.909H36.4858ZM41.299 313.205C40.4126 313.205 39.6349 312.994 38.9659 312.572C38.3011 312.15 37.7812 311.56 37.4062 310.801C37.0355 310.043 36.8501 309.156 36.8501 308.142C36.8501 307.119 37.0355 306.227 37.4062 305.464C37.7812 304.701 38.3011 304.109 38.9659 303.687C39.6349 303.265 40.4126 303.054 41.299 303.054C42.1854 303.054 42.9609 303.265 43.6257 303.687C44.2947 304.109 44.8146 304.701 45.1854 305.464C45.5604 306.227 45.7479 307.119 45.7479 308.142C45.7479 309.156 45.5604 310.043 45.1854 310.801C44.8146 311.56 44.2947 312.15 43.6257 312.572C42.9609 312.994 42.1854 313.205 41.299 313.205ZM41.299 311.849C41.9723 311.849 42.5263 311.677 42.9609 311.332C43.3956 310.987 43.7173 310.533 43.9261 309.97C44.1349 309.408 44.2393 308.798 44.2393 308.142C44.2393 307.486 44.1349 306.874 43.9261 306.308C43.7173 305.741 43.3956 305.283 42.9609 304.933C42.5263 304.584 41.9723 304.409 41.299 304.409C40.6257 304.409 40.0717 304.584 39.6371 304.933C39.2024 305.283 38.8807 305.741 38.6719 306.308C38.4631 306.874 38.3587 307.486 38.3587 308.142C38.3587 308.798 38.4631 309.408 38.6719 309.97C38.8807 310.533 39.2024 310.987 39.6371 311.332C40.0717 311.677 40.6257 311.849 41.299 311.849ZM47.1813 313V311.594H47.5392C47.8333 311.594 48.0783 311.536 48.2743 311.421C48.4703 311.302 48.628 311.095 48.7473 310.801C48.8709 310.503 48.9647 310.089 49.0286 309.561C49.0968 309.028 49.1458 308.351 49.1756 307.528L49.3546 303.182H55.9V313H54.3915V304.588H50.7864L50.633 308.091C50.5989 308.896 50.5265 309.606 50.4157 310.219C50.3091 310.829 50.1451 311.34 49.9235 311.754C49.7061 312.167 49.4164 312.478 49.0542 312.687C48.6919 312.896 48.2381 313 47.6926 313H47.1813ZM62.6564 313.205C61.7701 313.205 60.9924 312.994 60.3233 312.572C59.6586 312.15 59.1387 311.56 58.7637 310.801C58.3929 310.043 58.2076 309.156 58.2076 308.142C58.2076 307.119 58.3929 306.227 58.7637 305.464C59.1387 304.701 59.6586 304.109 60.3233 303.687C60.9924 303.265 61.7701 303.054 62.6564 303.054C63.5428 303.054 64.3184 303.265 64.9831 303.687C65.6522 304.109 66.1721 304.701 66.5428 305.464C66.9178 306.227 67.1053 307.119 67.1053 308.142C67.1053 309.156 66.9178 310.043 66.5428 310.801C66.1721 311.56 65.6522 312.15 64.9831 312.572C64.3184 312.994 63.5428 313.205 62.6564 313.205ZM62.6564 311.849C63.3297 311.849 63.8837 311.677 64.3184 311.332C64.753 310.987 65.0748 310.533 65.2836 309.97C65.4924 309.408 65.5968 308.798 65.5968 308.142C65.5968 307.486 65.4924 306.874 65.2836 306.308C65.0748 305.741 64.753 305.283 64.3184 304.933C63.8837 304.584 63.3297 304.409 62.6564 304.409C61.9831 304.409 61.4292 304.584 60.9945 304.933C60.5598 305.283 60.2381 305.741 60.0293 306.308C59.8205 306.874 59.7161 307.486 59.7161 308.142C59.7161 308.798 59.8205 309.408 60.0293 309.97C60.2381 310.533 60.5598 310.987 60.9945 311.332C61.4292 311.677 61.9831 311.849 62.6564 311.849ZM73.3967 313.205C72.4762 313.205 71.6836 312.987 71.0188 312.553C70.354 312.118 69.8427 311.519 69.4847 310.756C69.1268 309.994 68.9478 309.122 68.9478 308.142C68.9478 307.145 69.131 306.265 69.4975 305.502C69.8683 304.735 70.3839 304.136 71.0444 303.706C71.7092 303.271 72.4847 303.054 73.3711 303.054C74.0614 303.054 74.6836 303.182 75.2376 303.438C75.7915 303.693 76.2454 304.051 76.5991 304.511C76.9528 304.972 77.1722 305.509 77.2575 306.122H75.7489C75.6339 305.675 75.3782 305.278 74.9819 304.933C74.5898 304.584 74.0614 304.409 73.3967 304.409C72.8086 304.409 72.293 304.562 71.8498 304.869C71.4109 305.172 71.0678 305.6 70.8207 306.154C70.5778 306.704 70.4563 307.349 70.4563 308.091C70.4563 308.849 70.5756 309.51 70.8143 310.072C71.0572 310.635 71.3981 311.072 71.837 311.383C72.2802 311.694 72.8001 311.849 73.3967 311.849C73.7887 311.849 74.1445 311.781 74.4641 311.645C74.7837 311.509 75.0543 311.312 75.2759 311.057C75.4975 310.801 75.6552 310.494 75.7489 310.136H77.2575C77.1722 310.716 76.9613 311.238 76.6246 311.702C76.2923 312.163 75.8512 312.529 75.3015 312.802C74.756 313.07 74.1211 313.205 73.3967 313.205ZM83.4513 313.205C82.565 313.205 81.7873 312.994 81.1183 312.572C80.4535 312.15 79.9336 311.56 79.5586 310.801C79.1879 310.043 79.0025 309.156 79.0025 308.142C79.0025 307.119 79.1879 306.227 79.5586 305.464C79.9336 304.701 80.4535 304.109 81.1183 303.687C81.7873 303.265 82.565 303.054 83.4513 303.054C84.3377 303.054 85.1133 303.265 85.7781 303.687C86.4471 304.109 86.967 304.701 87.3377 305.464C87.7127 306.227 87.9002 307.119 87.9002 308.142C87.9002 309.156 87.7127 310.043 87.3377 310.801C86.967 311.56 86.4471 312.15 85.7781 312.572C85.1133 312.994 84.3377 313.205 83.4513 313.205ZM83.4513 311.849C84.1246 311.849 84.6786 311.677 85.1133 311.332C85.5479 310.987 85.8697 310.533 86.0785 309.97C86.2873 309.408 86.3917 308.798 86.3917 308.142C86.3917 307.486 86.2873 306.874 86.0785 306.308C85.8697 305.741 85.5479 305.283 85.1133 304.933C84.6786 304.584 84.1246 304.409 83.4513 304.409C82.7781 304.409 82.2241 304.584 81.7894 304.933C81.3548 305.283 81.033 305.741 80.8242 306.308C80.6154 306.874 80.511 307.486 80.511 308.142C80.511 308.798 80.6154 309.408 80.8242 309.97C81.033 310.533 81.3548 310.987 81.7894 311.332C82.2241 311.677 82.7781 311.849 83.4513 311.849ZM90.2029 313V303.182H94.2172C95.274 303.182 96.1135 303.42 96.7356 303.898C97.3578 304.375 97.6689 305.006 97.6689 305.79C97.6689 306.386 97.492 306.849 97.1383 307.177C96.7846 307.501 96.3308 307.72 95.7768 307.835C96.139 307.886 96.4906 308.014 96.8315 308.219C97.1767 308.423 97.4622 308.705 97.688 309.062C97.9139 309.416 98.0268 309.851 98.0268 310.366C98.0268 310.869 97.899 311.319 97.6433 311.715C97.3876 312.112 97.0211 312.425 96.5439 312.655C96.0666 312.885 95.4956 313 94.8308 313H90.2029ZM91.6348 311.619H94.8308C95.3507 311.619 95.7576 311.496 96.0517 311.249C96.3457 311.001 96.4927 310.665 96.4927 310.239C96.4927 309.732 96.3457 309.333 96.0517 309.043C95.7576 308.749 95.3507 308.602 94.8308 308.602H91.6348V311.619ZM91.6348 307.298H94.2172C94.622 307.298 94.9693 307.243 95.2591 307.132C95.5488 307.017 95.7704 306.855 95.9238 306.646C96.0815 306.433 96.1603 306.182 96.1603 305.892C96.1603 305.479 95.9877 305.155 95.6426 304.92C95.2974 304.682 94.8223 304.562 94.2172 304.562H91.6348V307.298ZM103.2 313.23C102.577 313.23 102.013 313.113 101.506 312.879C100.999 312.64 100.596 312.297 100.298 311.849C99.9993 311.398 99.8501 310.852 99.8501 310.213C99.8501 309.651 99.9609 309.195 100.183 308.845C100.404 308.491 100.7 308.214 101.071 308.014C101.442 307.814 101.851 307.665 102.298 307.567C102.75 307.464 103.204 307.384 103.66 307.324C104.256 307.247 104.74 307.19 105.111 307.151C105.486 307.109 105.759 307.038 105.929 306.94C106.104 306.842 106.191 306.672 106.191 306.429V306.378C106.191 305.747 106.018 305.257 105.673 304.908C105.332 304.558 104.815 304.384 104.12 304.384C103.4 304.384 102.835 304.541 102.426 304.857C102.017 305.172 101.729 305.509 101.563 305.866L100.131 305.355C100.387 304.759 100.728 304.294 101.154 303.962C101.585 303.625 102.053 303.391 102.56 303.259C103.072 303.122 103.575 303.054 104.069 303.054C104.384 303.054 104.746 303.092 105.156 303.169C105.569 303.241 105.967 303.393 106.351 303.623C106.739 303.853 107.06 304.2 107.316 304.665C107.572 305.129 107.7 305.751 107.7 306.531V313H106.191V311.67H106.114C106.012 311.884 105.842 312.112 105.603 312.354C105.364 312.597 105.047 312.804 104.651 312.974C104.254 313.145 103.771 313.23 103.2 313.23ZM103.43 311.875C104.026 311.875 104.529 311.758 104.938 311.523C105.352 311.289 105.663 310.987 105.871 310.616C106.085 310.245 106.191 309.855 106.191 309.446V308.065C106.127 308.142 105.987 308.212 105.769 308.276C105.556 308.336 105.309 308.389 105.028 308.436C104.751 308.479 104.48 308.517 104.216 308.551C103.956 308.581 103.745 308.607 103.583 308.628C103.191 308.679 102.825 308.762 102.484 308.877C102.147 308.988 101.874 309.156 101.665 309.382C101.461 309.604 101.359 309.906 101.359 310.29C101.359 310.814 101.553 311.21 101.94 311.479C102.332 311.743 102.829 311.875 103.43 311.875ZM109.117 304.588V303.182H117.094V304.588H113.873V313H112.364V304.588H109.117ZM120.599 306.736H123.411C124.562 306.736 125.442 307.028 126.051 307.612C126.661 308.195 126.965 308.935 126.965 309.83C126.965 310.418 126.829 310.952 126.556 311.434C126.283 311.911 125.883 312.293 125.354 312.578C124.826 312.859 124.178 313 123.411 313H119.295V303.182H120.803V311.594H123.411C124.008 311.594 124.498 311.436 124.881 311.121C125.265 310.805 125.457 310.401 125.457 309.906C125.457 309.386 125.265 308.962 124.881 308.634C124.498 308.306 124.008 308.142 123.411 308.142H120.599V306.736Z" fill="#004737"/>
<path d="M203.585 313V299.909H208.009C209.036 299.909 209.875 300.094 210.527 300.465C211.183 300.832 211.669 301.328 211.984 301.955C212.3 302.581 212.457 303.28 212.457 304.051C212.457 304.822 212.3 305.523 211.984 306.154C211.673 306.785 211.192 307.288 210.54 307.663C209.888 308.033 209.053 308.219 208.034 308.219H204.864V306.812H207.983C208.686 306.812 209.251 306.691 209.677 306.448C210.103 306.205 210.412 305.877 210.604 305.464C210.8 305.046 210.898 304.575 210.898 304.051C210.898 303.527 210.8 303.058 210.604 302.645C210.412 302.232 210.101 301.908 209.67 301.673C209.24 301.435 208.669 301.315 207.957 301.315H205.17V313H203.585ZM218.817 313.205C217.871 313.205 217.055 312.996 216.369 312.578C215.688 312.156 215.161 311.568 214.79 310.814C214.424 310.055 214.241 309.173 214.241 308.168C214.241 307.162 214.424 306.276 214.79 305.509C215.161 304.737 215.677 304.136 216.337 303.706C217.002 303.271 217.778 303.054 218.664 303.054C219.175 303.054 219.68 303.139 220.179 303.31C220.678 303.48 221.131 303.757 221.54 304.141C221.95 304.52 222.276 305.023 222.518 305.649C222.761 306.276 222.883 307.047 222.883 307.963V308.602H215.315V307.298H221.349C221.349 306.744 221.238 306.25 221.016 305.815C220.799 305.381 220.488 305.038 220.083 304.786C219.683 304.535 219.21 304.409 218.664 304.409C218.063 304.409 217.543 304.558 217.104 304.857C216.67 305.151 216.335 305.534 216.101 306.007C215.866 306.48 215.749 306.987 215.749 307.528V308.398C215.749 309.139 215.877 309.768 216.133 310.283C216.393 310.795 216.753 311.185 217.213 311.453C217.673 311.717 218.208 311.849 218.817 311.849C219.214 311.849 219.572 311.794 219.891 311.683C220.215 311.568 220.494 311.398 220.729 311.172C220.963 310.942 221.144 310.656 221.272 310.315L222.729 310.724C222.576 311.219 222.318 311.653 221.956 312.028C221.594 312.399 221.146 312.689 220.614 312.898C220.081 313.102 219.482 313.205 218.817 313.205ZM224.564 310.494H226.175C226.209 310.937 226.409 311.274 226.776 311.504C227.146 311.734 227.628 311.849 228.22 311.849C228.825 311.849 229.343 311.726 229.773 311.479C230.204 311.227 230.419 310.822 230.419 310.264C230.419 309.936 230.338 309.651 230.176 309.408C230.014 309.161 229.786 308.969 229.492 308.832C229.198 308.696 228.851 308.628 228.45 308.628H226.763V307.273H228.45C229.051 307.273 229.494 307.136 229.78 306.864C230.07 306.591 230.214 306.25 230.214 305.841C230.214 305.402 230.059 305.05 229.748 304.786C229.437 304.518 228.996 304.384 228.425 304.384C227.849 304.384 227.37 304.513 226.987 304.773C226.603 305.029 226.401 305.359 226.379 305.764H224.794C224.811 305.236 224.973 304.769 225.28 304.364C225.587 303.955 226.004 303.636 226.533 303.406C227.061 303.171 227.666 303.054 228.348 303.054C229.038 303.054 229.637 303.175 230.144 303.418C230.656 303.657 231.05 303.983 231.327 304.396C231.608 304.805 231.749 305.27 231.749 305.79C231.749 306.344 231.593 306.791 231.282 307.132C230.971 307.473 230.581 307.716 230.112 307.861V307.963C230.483 307.989 230.805 308.108 231.077 308.321C231.354 308.53 231.57 308.805 231.723 309.146C231.876 309.482 231.953 309.855 231.953 310.264C231.953 310.861 231.793 311.381 231.474 311.824C231.154 312.263 230.715 312.604 230.157 312.847C229.599 313.085 228.962 313.205 228.246 313.205C227.551 313.205 226.929 313.092 226.379 312.866C225.83 312.636 225.393 312.318 225.069 311.913C224.749 311.504 224.581 311.031 224.564 310.494ZM235.044 316.682C234.788 316.682 234.56 316.661 234.36 316.618C234.159 316.58 234.021 316.541 233.944 316.503L234.328 315.173C234.694 315.267 235.018 315.301 235.299 315.276C235.581 315.25 235.83 315.124 236.047 314.898C236.269 314.677 236.471 314.317 236.654 313.818L236.936 313.051L233.305 303.182H234.941L237.652 311.006H237.754L240.464 303.182H242.1L237.933 314.432C237.745 314.939 237.513 315.359 237.236 315.691C236.959 316.028 236.637 316.277 236.271 316.439C235.909 316.601 235.5 316.682 235.044 316.682ZM242.396 313V311.594H242.754C243.048 311.594 243.293 311.536 243.489 311.421C243.685 311.302 243.843 311.095 243.962 310.801C244.086 310.503 244.18 310.089 244.243 309.561C244.312 309.028 244.361 308.351 244.39 307.528L244.569 303.182H251.115V313H249.606V304.588H246.001L245.848 308.091C245.814 308.896 245.741 309.606 245.631 310.219C245.524 310.829 245.36 311.34 245.138 311.754C244.921 312.167 244.631 312.478 244.269 312.687C243.907 312.896 243.453 313 242.907 313H242.396ZM255.187 306.736H257.999C259.15 306.736 260.03 307.028 260.639 307.612C261.248 308.195 261.553 308.935 261.553 309.83C261.553 310.418 261.417 310.952 261.144 311.434C260.871 311.911 260.471 312.293 259.942 312.578C259.414 312.859 258.766 313 257.999 313H253.883V303.182H255.391V311.594H257.999C258.596 311.594 259.086 311.436 259.469 311.121C259.853 310.805 260.045 310.401 260.045 309.906C260.045 309.386 259.853 308.962 259.469 308.634C259.086 308.306 258.596 308.142 257.999 308.142H255.187V306.736ZM262.267 304.588V303.182H270.245V304.588H267.023V313H265.515V304.588H262.267ZM274.825 313.23C274.202 313.23 273.638 313.113 273.131 312.879C272.624 312.64 272.221 312.297 271.923 311.849C271.624 311.398 271.475 310.852 271.475 310.213C271.475 309.651 271.586 309.195 271.808 308.845C272.029 308.491 272.325 308.214 272.696 308.014C273.067 307.814 273.476 307.665 273.923 307.567C274.375 307.464 274.829 307.384 275.285 307.324C275.881 307.247 276.365 307.19 276.736 307.151C277.111 307.109 277.384 307.038 277.554 306.94C277.729 306.842 277.816 306.672 277.816 306.429V306.378C277.816 305.747 277.643 305.257 277.298 304.908C276.957 304.558 276.44 304.384 275.745 304.384C275.025 304.384 274.46 304.541 274.051 304.857C273.642 305.172 273.354 305.509 273.188 305.866L271.756 305.355C272.012 304.759 272.353 304.294 272.779 303.962C273.21 303.625 273.678 303.391 274.185 303.259C274.697 303.122 275.2 303.054 275.694 303.054C276.009 303.054 276.371 303.092 276.781 303.169C277.194 303.241 277.592 303.393 277.976 303.623C278.364 303.853 278.685 304.2 278.941 304.665C279.197 305.129 279.325 305.751 279.325 306.531V313H277.816V311.67H277.739C277.637 311.884 277.467 312.112 277.228 312.354C276.989 312.597 276.672 312.804 276.276 312.974C275.879 313.145 275.396 313.23 274.825 313.23ZM275.055 311.875C275.651 311.875 276.154 311.758 276.563 311.523C276.977 311.289 277.288 310.987 277.496 310.616C277.71 310.245 277.816 309.855 277.816 309.446V308.065C277.752 308.142 277.612 308.212 277.394 308.276C277.181 308.336 276.934 308.389 276.653 308.436C276.376 308.479 276.105 308.517 275.841 308.551C275.581 308.581 275.37 308.607 275.208 308.628C274.816 308.679 274.45 308.762 274.109 308.877C273.772 308.988 273.499 309.156 273.29 309.382C273.086 309.604 272.984 309.906 272.984 310.29C272.984 310.814 273.178 311.21 273.565 311.479C273.957 311.743 274.454 311.875 275.055 311.875ZM280.742 304.588V303.182H288.719V304.588H285.498V313H283.989V304.588H280.742ZM292.224 306.736H295.036C296.187 306.736 297.067 307.028 297.676 307.612C298.286 308.195 298.59 308.935 298.59 309.83C298.59 310.418 298.454 310.952 298.181 311.434C297.908 311.911 297.508 312.293 296.979 312.578C296.451 312.859 295.803 313 295.036 313H290.92V303.182H292.428V311.594H295.036C295.633 311.594 296.123 311.436 296.506 311.121C296.89 310.805 297.082 310.401 297.082 309.906C297.082 309.386 296.89 308.962 296.506 308.634C296.123 308.306 295.633 308.142 295.036 308.142H292.224V306.736ZM300.15 313V303.182H301.658V313H300.15Z" fill="#004737"/>
</svg>
