<svg width="80" height="80" viewBox="0 0 80 80" fill="none" xmlns="http://www.w3.org/2000/svg">
<path d="M46.668 10V23.3333C46.668 24.2174 47.0192 25.0652 47.6443 25.6904C48.2694 26.3155 49.1172 26.6667 50.0013 26.6667H63.3346" stroke="#EF4036" stroke-width="2.94118" stroke-linecap="round" stroke-linejoin="round"/>
<path d="M56.668 70H23.3346C21.5665 70 19.8708 69.2976 18.6206 68.0474C17.3703 66.7971 16.668 65.1014 16.668 63.3333V16.6667C16.668 14.8986 17.3703 13.2029 18.6206 11.9526C19.8708 10.7024 21.5665 10 23.3346 10H46.668L63.3346 26.6667V63.3333C63.3346 65.1014 62.6323 66.7971 61.382 68.0474C60.1318 69.2976 58.4361 70 56.668 70Z" stroke="#EF4036" stroke-width="2.94118" stroke-linecap="round" stroke-linejoin="round"/>
<path d="M26.4402 49.0859V38.3682H30.2605C31.0943 38.3682 31.7851 38.52 32.3328 38.8235C32.8806 39.1271 33.2905 39.5422 33.5626 40.069C33.8348 40.5924 33.9708 41.182 33.9708 41.8379C33.9708 42.4973 33.833 43.0904 33.5574 43.6172C33.2853 44.1405 32.8736 44.5557 32.3224 44.8627C31.7746 45.1662 31.0856 45.318 30.2552 45.318H27.6281V43.9469H30.1087C30.6355 43.9469 31.0629 43.8562 31.3908 43.6748C31.7188 43.4898 31.9595 43.2386 32.113 42.9212C32.2665 42.6037 32.3433 42.2426 32.3433 41.8379C32.3433 41.4332 32.2665 41.0738 32.113 40.7598C31.9595 40.4458 31.717 40.1999 31.3856 40.0219C31.0577 39.844 30.625 39.755 30.0878 39.755H28.0573V49.0859H26.4402ZM39.3362 49.0859H35.8666V38.3682H39.4461C40.4963 38.3682 41.3981 38.5828 42.1517 39.0119C42.9053 39.4376 43.4827 40.0499 43.8839 40.8488C44.2886 41.6443 44.491 42.5984 44.491 43.7114C44.491 44.8278 44.2869 45.7872 43.8787 46.5897C43.474 47.3921 42.8879 48.0096 42.1203 48.4422C41.3528 48.8714 40.4247 49.0859 39.3362 49.0859ZM37.4837 47.673H39.2473C40.0636 47.673 40.7422 47.5195 41.283 47.2124C41.8238 46.9019 42.2285 46.4536 42.4971 45.8675C42.7657 45.2779 42.9001 44.5592 42.9001 43.7114C42.9001 42.8706 42.7657 42.1571 42.4971 41.571C42.232 40.9849 41.836 40.54 41.3092 40.2365C40.7823 39.933 40.1282 39.7812 39.3467 39.7812H37.4837V47.673ZM46.5019 49.0859V38.3682H53.1481V39.7603H48.1189V43.0258H52.6719V44.4126H48.1189V49.0859H46.5019Z" fill="#EF4036"/>
</svg>
