<svg width="69" height="40" viewBox="0 0 69 40" fill="none" xmlns="http://www.w3.org/2000/svg">
<path d="M69 14.8372L67.9071 16.2945L66.0079 17.4184L61.8143 18.9455C61.76 18.961 61.7135 18.9843 61.667 19.0153L57.892 21.3562L54.7527 22.1779C54.7061 22.1934 54.6674 22.2089 54.6287 22.2244L53.0783 22.922C52.9466 22.9763 52.8303 23.0771 52.7527 23.1934L51.6676 24.8289C51.5978 24.922 51.559 25.0305 51.5435 25.1467L51.0552 28.6892L50.4506 28.9683L49.1561 28.3559C49.0553 28.3016 48.939 28.2784 48.8228 28.2784H47.9701C47.629 28.2784 47.3267 28.5032 47.2259 28.8287L46.9159 29.8364C46.9003 29.8829 46.8926 29.9372 46.8849 29.9915L46.8151 30.7744L46.629 31.472L46.35 31.9758L45.9547 32.3247L44.7067 32.3789L41.7378 30.348C41.6448 30.286 41.5285 30.2395 41.4045 30.224L39.8387 30.007L38.769 29.4411L37.3969 27.852C37.3659 27.821 37.3427 27.79 37.3117 27.7668L35.7614 26.449C35.5288 26.2475 35.2032 26.2087 34.9242 26.3327L33.6065 26.9529C33.3817 27.0691 33.2189 27.2784 33.1724 27.5342L33.0173 28.4644C32.9863 28.6504 33.0251 28.8365 33.1259 28.9993L34.0018 30.41L33.9475 31.1852L33.7305 32.1386C33.715 32.1929 33.7072 32.2472 33.7072 32.3092V32.9293C33.7072 33.0921 33.7615 33.2471 33.8545 33.3789L34.2421 33.9215C34.2886 33.9913 34.3506 34.0533 34.4204 34.0998L36.1645 35.3555L36.4978 36.247V37.3632L36.0404 38.6034L35.3506 39.5259L34.8467 39.6421L33.8855 39.2778L31.312 37.7663C31.2655 37.7352 31.2112 37.712 31.1647 37.6965L30.467 37.464C30.4593 37.464 30.4516 37.4639 30.4516 37.4562C30.4593 37.4329 30.4748 37.4097 30.4826 37.3864L30.7151 36.7663C30.8314 36.4563 30.7384 36.1074 30.4826 35.8982L30.0175 35.5106C29.9012 35.4098 29.7539 35.3555 29.5989 35.34L28.94 35.2703L28.661 34.2626L28.5989 33.6424L28.8935 31.565C28.9013 31.5263 28.9013 31.4953 28.9013 31.4565V30.3713C28.9013 30.3093 28.8935 30.2473 28.878 30.1852L28.8005 29.8752C28.7617 29.7202 28.6765 29.5806 28.5602 29.4799L27.9401 28.9373C27.8548 28.8597 27.754 28.8055 27.6533 28.7745L25.3278 28.0768C25.2891 28.0691 25.2503 28.0613 25.2115 28.0536L24.8627 28.0071L24.0488 26.7746C24.0023 26.6971 23.9325 26.6273 23.8628 26.573L23.2426 26.1079C22.9558 25.8909 22.5605 25.8987 22.2814 26.1312L21.8163 26.5188C21.7698 26.5575 21.7311 26.604 21.6923 26.6505L21.4288 26.9994L21.111 27.0304L18.5529 26.5188L16.429 25.8366C16.336 25.8056 16.243 25.7979 16.1422 25.7979L14.902 25.8754C14.871 25.8754 14.8477 25.8831 14.8244 25.8831L14.0105 26.0227L13.1346 25.8986L12.8865 25.7979L12.6928 25.6816L11.034 23.3639L10.6619 22.705C10.6308 22.643 10.5844 22.5887 10.5379 22.5345L10.1503 22.1469C10.096 22.1004 10.0417 22.0616 9.98748 22.0229L9.44486 21.7128C9.39835 21.6896 9.35184 21.6663 9.30534 21.6508L6.97987 20.8757C6.92561 20.8601 6.87138 20.8446 6.81712 20.8446L6.11946 20.7671C6.05745 20.7594 5.98769 20.7594 5.92567 20.7671L5.38306 20.8446C5.28229 20.8601 5.18152 20.8912 5.09625 20.9454L4.53816 20.8059L3.3909 20.1625C3.27463 20.0927 3.14286 20.0617 3.01108 20.0617H2.54601C2.33672 20.0617 2.14291 20.147 1.99563 20.2865L1.93361 20.3563L1.29802 19.0928C1.28252 19.0618 1.26701 19.0308 1.24376 18.9998L0.220546 17.5192L1.08096 16.6588C1.3135 16.4263 1.36777 16.0697 1.22824 15.7751L0.53058 14.3023C0.507325 14.2558 0.47633 14.2016 0.445324 14.1628L0.0499878 13.659L1.41427 12.3644L1.91038 12.0079C1.94138 11.9846 1.97239 11.9536 2.00339 11.9304C2.0344 11.8994 2.06539 11.8684 2.08865 11.8373L2.54601 11.2095L6.65432 10.1087L7.87132 10.6824C8.08061 10.7831 8.32089 10.7831 8.53018 10.6901L10.3363 9.86069L10.7161 9.75218H11.5611L12.6462 9.8297C12.7005 9.8297 12.747 9.82969 12.7935 9.82194L13.8943 9.69015L19.6459 11.1242C19.6769 11.1319 19.7157 11.1397 19.7545 11.1474L20.5296 11.2172C20.6071 11.225 20.6846 11.225 20.7621 11.2095L21.4675 11.07L24.1186 10.9924C24.1728 10.9924 24.2271 10.9847 24.2813 10.9692L24.9014 10.8141C24.9324 10.8064 24.9712 10.7986 25.0022 10.7831C25.0255 10.7754 25.041 10.7599 25.0642 10.7521L25.5293 10.5196C25.5758 10.4963 25.6224 10.4653 25.6611 10.4343L26.0487 10.1243C26.1882 10.0157 26.289 9.8607 26.3277 9.68242L27.413 4.72917L27.5447 4.16332L29.6066 3.53545L31.2577 3.31064C31.4205 3.28739 31.5755 3.20987 31.6996 3.0936L32.0096 2.78354C32.0872 2.69828 32.1492 2.5975 32.1879 2.48898L32.7073 1.01619L32.8313 0.806886L33.1026 0.589844L34.2963 2.42696C34.3583 2.51222 34.4281 2.58974 34.5211 2.644L35.4513 3.26414C35.5133 3.31065 35.5831 3.34166 35.6606 3.36491L36.9784 3.75249C37.0249 3.76799 37.0714 3.77573 37.1179 3.78348L39.11 3.96953L39.0713 4.17105C39.0635 4.22532 39.0558 4.27183 39.0558 4.32609V5.72136C39.0558 6.02367 39.2341 6.30273 39.5131 6.42676L40.3658 6.81433C40.4433 6.85309 40.5363 6.87634 40.6294 6.8841L41.5905 6.95386L42.1719 7.19418L43.9005 10.0002C43.9237 10.0467 43.9625 10.0932 43.9935 10.132L45.3888 11.6048C45.4663 11.6823 45.5516 11.7366 45.6446 11.7831L47.4274 12.5582C47.4972 12.5892 47.567 12.6047 47.6445 12.6125L49.5824 12.845C49.6366 12.8528 49.6909 12.8528 49.7452 12.8528L55.4038 12.3179L56.489 12.6668L56.644 13.7752L56.5045 14.6744C56.4658 14.9147 56.551 15.155 56.7138 15.3333C56.8844 15.5038 57.1246 15.5891 57.3727 15.5581L57.9928 15.4806C58.1168 15.4651 58.2331 15.4186 58.3416 15.3488L60.3725 13.9148L63.2484 12.5737L63.4577 12.7133L63.9925 13.5117C64.0467 13.6047 64.1243 13.6745 64.2095 13.7287L65.1397 14.3488C65.2793 14.4419 65.442 14.4884 65.6126 14.4806L68.1396 14.3333L68.938 14.5039L69 14.8372Z" fill="#669187"/>
</svg>
