<svg width="143" height="149" viewBox="0 0 143 149" fill="none" xmlns="http://www.w3.org/2000/svg">
<path d="M142.087 47.3517L141.397 49.7237C141.389 49.7547 141.382 49.7857 141.374 49.8167L141.141 51.2895C141.141 51.3205 141.133 51.3515 141.133 51.3748L141.056 52.9638V54.4831L141.133 55.7234C141.141 55.7931 141.149 55.8551 141.172 55.9249L141.257 56.1652L139.242 55.7621L138.777 55.6846C138.637 55.6691 138.498 55.6769 138.366 55.7311L137.979 55.8861C137.909 55.9171 137.839 55.9559 137.785 56.0024L137.397 56.3125C137.32 56.3668 137.258 56.4365 137.211 56.5218L136.746 57.2969C136.692 57.3899 136.653 57.4985 136.645 57.607L136.576 58.2271L135.405 61.8006L134.537 62.8005L133.762 63.5757C133.676 63.6687 133.607 63.7772 133.576 63.8935L132.584 67.0794L132.304 67.6065L127.615 67.5367L126.824 67.2964L125.956 66.6996L125.142 65.9554C125.049 65.8701 124.933 65.8081 124.809 65.7771L123.879 65.5446C123.817 65.5291 123.755 65.5213 123.693 65.5213H122.685C122.646 65.5213 122.607 65.5213 122.569 65.5291L121.018 65.7616C120.917 65.7771 120.824 65.8159 120.739 65.8624L119.964 66.3275C119.886 66.374 119.817 66.4282 119.762 66.498L119.375 66.9631C119.305 67.0484 119.259 67.1414 119.228 67.2421L119.073 67.7848C119.057 67.8235 119.049 67.8623 119.049 67.9088L118.972 68.5289C118.964 68.5599 118.964 68.5909 118.964 68.6219V69.087C118.964 69.1413 118.972 69.1878 118.98 69.2421L119.212 70.4048C119.243 70.5521 119.313 70.6916 119.421 70.8001L120.243 71.614L119.685 73.1566L119.553 73.2961L119.491 73.3116C119.173 73.4202 118.964 73.7147 118.964 74.048V74.203C118.964 74.2883 118.98 74.3658 119.003 74.4433L119.08 74.6759C119.096 74.7224 119.111 74.7689 119.135 74.8077L119.6 75.6603C119.638 75.7224 119.685 75.7844 119.731 75.8386L121.01 77.1176L121.259 77.4355L121.041 77.4664C121.01 77.4664 120.979 77.4742 120.948 77.482L120.638 77.5595C120.538 77.5827 120.445 77.6292 120.359 77.6912L119.894 78.0401L119.615 78.0866C119.468 78.1098 119.336 78.1718 119.228 78.2726L118.607 78.8152C118.53 78.8772 118.468 78.9625 118.429 79.0478L116.282 83.3344L115.739 84.0863L115.05 84.7762L114.305 85.311L111.662 86.5203C111.507 86.5978 111.375 86.7218 111.298 86.8768L110.941 87.5822L109.058 90.0007C109.019 90.0472 108.988 90.0937 108.965 90.148L108.174 91.8068L107.554 93.2796C107.515 93.3726 107.492 93.4811 107.492 93.5819C107.492 93.6982 107.523 93.8067 107.569 93.9152L108.267 95.388C108.282 95.4268 108.306 95.4656 108.337 95.5043L111.592 100.078C111.647 100.155 111.716 100.225 111.802 100.279L113.166 101.155L114.964 102.155C114.972 102.194 114.98 102.225 114.995 102.256L115.205 102.744L115.36 103.209C115.422 103.38 115.53 103.519 115.685 103.62L116.305 104.008C116.429 104.085 116.569 104.124 116.716 104.124H117.569C117.677 104.124 117.786 104.101 117.879 104.062L119.631 103.287L119.724 103.302L119.918 103.651C119.995 103.791 120.111 103.907 120.259 103.969L125.468 106.426L126.08 107.457L126.406 108.573V109.473C126.406 109.504 126.406 109.535 126.413 109.566L126.568 110.806C126.568 110.852 126.584 110.899 126.599 110.945L126.987 112.186C127.041 112.379 127.173 112.534 127.351 112.635L128.204 113.1C128.243 113.116 128.274 113.131 128.312 113.147L129.343 113.511L129.87 113.813L130.514 114.511L131.188 115.41L131.367 115.705L132.002 117.689L132.064 118.015L132.126 119.185H132.118L130.351 120.565C130.32 120.588 130.297 120.604 130.274 120.627L125.824 125.084L125.375 125.472L125.15 125.573L124.91 125.526C124.824 125.518 124.747 125.518 124.669 125.526L124.127 125.604C124.065 125.611 124.01 125.627 123.956 125.65C123.933 125.658 123.91 125.673 123.886 125.681L123.576 125.836C123.537 125.852 123.499 125.875 123.46 125.906L123.15 126.138C123.111 126.169 123.08 126.2 123.041 126.231L119.631 129.952C119.6 129.991 119.569 130.03 119.545 130.068L118.863 131.138C118.809 131.208 118.778 131.293 118.755 131.378L118.677 131.689C118.662 131.751 118.654 131.813 118.654 131.875V132.185C118.654 132.247 118.662 132.309 118.677 132.371L118.77 132.743L119.104 133.572C119.119 133.619 119.142 133.657 119.173 133.696L119.514 134.216L120.879 135.952L121.057 136.215L121.034 136.463L113.515 139.208L111.073 140.076L104.872 142.634C104.825 142.649 104.779 142.672 104.74 142.703L102.647 144.099C102.624 144.122 102.593 144.137 102.57 144.161C102.546 144.176 102.515 144.2 102.5 144.223L98.4147 148.765L98.3372 148.843L97.4845 147.75C97.4225 147.672 97.345 147.61 97.2597 147.556L96.1745 146.936C96.0272 146.858 95.8567 146.82 95.6939 146.843L94.3762 146.998C94.2909 147.006 94.2056 147.029 94.1281 147.068L90.7097 148.742L89.8027 148.982L88.764 148.734L87.5083 148.106L74.0671 138.448L69.0906 134.929L66.4628 132.154L61.6879 125.456C61.6646 125.418 61.6336 125.379 61.6026 125.348L58.7346 122.557C58.7035 122.534 58.6725 122.503 58.6415 122.48L52.3628 118.069L37.4876 107.449L24.0696 97.7523L18.8528 94.0703L16.2638 91.4813C16.2251 91.4502 16.1863 91.4115 16.1398 91.3882L15.7832 91.1479L12.6904 87.2489L12.2795 85.8846L11.5199 82.598L11.3803 81.412L11.5121 80.35L11.8687 79.3501C11.8842 79.3191 11.8919 79.2803 11.8997 79.2493L12.1322 78.1641C12.1477 78.0788 12.1555 77.9936 12.14 77.9083L11.985 76.668C11.9772 76.5828 11.954 76.513 11.923 76.4355L10.5742 73.5209L10.4424 72.4512V70.9474C10.4424 70.8932 10.4347 70.8466 10.4269 70.7924L10.1789 69.5754L9.8688 68.4902C9.8533 68.4437 9.83779 68.3971 9.81453 68.3506L8.69057 66.0949L8.41926 65.157L8.27198 62.7618C8.26423 62.6145 8.20997 62.475 8.1247 62.3587L7.73712 61.8161C7.67511 61.7231 7.5976 61.6533 7.49683 61.599L3.77607 59.4286C3.72181 59.3898 3.65981 59.3666 3.5978 59.3511L1.57464 58.7697L1.02428 58.3434L10.0393 47.0881C10.0781 47.0416 10.1091 46.9874 10.1401 46.9331L12.4656 41.8946C12.5431 41.7318 12.5586 41.5458 12.5121 41.3675L11.9695 39.3521C11.9462 39.2746 11.9074 39.1971 11.8687 39.1273L10.3959 36.8794C10.3726 36.8484 10.3494 36.8173 10.3261 36.7941L3.64431 29.2673L12.8686 24.8257C13.1399 24.6939 13.3105 24.4226 13.3105 24.1281V23.2754C13.3105 23.1126 13.2562 22.9576 13.1632 22.8258L0.96228 5.81891H0.970016L15.8452 0.175781L18.9924 0.245542L20.1939 3.11362C20.2094 3.14463 20.2249 3.17563 20.2404 3.20664L21.4031 5.14453C21.4264 5.18328 21.4496 5.21429 21.4729 5.2453L28.9531 14.1828L35.0381 24.8955C35.1078 25.0195 35.2086 25.1202 35.3249 25.19L36.4101 25.8102C36.4799 25.8489 36.5574 25.8799 36.6349 25.8954L40.5262 26.7326L46.3088 29.0115L53.2077 32.9261L66.6101 41.197L67.517 42.8015C67.548 42.8635 67.5946 42.9178 67.6411 42.9721L69.0209 44.3518L68.9666 45.158C68.9511 45.4216 69.0674 45.6696 69.2689 45.8246C69.4782 45.9874 69.7495 46.0262 69.9898 45.9487L75.4159 44.0883C75.5787 44.0263 75.7182 43.9255 75.8112 43.7782L78.9893 38.9723C79.0126 38.9413 79.0281 38.918 79.0436 38.887L81.7334 33.3524L82.4233 32.3137L83.0899 31.7091L83.6403 31.523L84.0899 31.6471L84.7332 32.2362L85.5006 33.3912L85.7099 35.1508L85.7874 39.0265C85.7874 39.1351 85.8185 39.2436 85.865 39.3443L86.4851 40.6621C86.5704 40.8482 86.7254 40.9877 86.9192 41.0574L88.8571 41.7551C88.9113 41.7783 88.9733 41.7861 89.0276 41.7938L101.198 43.2666C101.438 43.2976 101.67 43.2124 101.841 43.0496L102.849 42.0419C102.942 41.9411 103.011 41.8248 103.05 41.6931L104.36 36.7398L104.88 36.4608L106.259 35.9027L112.096 35.6779C112.135 35.6779 112.174 35.6701 112.22 35.6624L114.158 35.2748C114.205 35.267 114.259 35.2515 114.305 35.2283L115.778 34.6082C115.918 34.5539 116.034 34.4531 116.119 34.3214L116.949 33.0888L118.057 39.5071L118.468 41.1272L119.088 42.9101C119.135 43.0496 119.22 43.1659 119.336 43.2589L120.886 44.4991C120.91 44.5224 120.941 44.5379 120.972 44.5611L122.522 45.4913C122.584 45.5301 122.662 45.5611 122.739 45.5766L127.235 46.6618C127.274 46.6696 127.32 46.6773 127.359 46.6851L141.002 47.6153C141.095 47.6153 141.18 47.6075 141.265 47.5842L142.087 47.3517Z" fill="#669187"/>
</svg>
