<svg width="84" height="37" viewBox="0 0 84 37" fill="none" xmlns="http://www.w3.org/2000/svg">
<path d="M83.1492 16.6086C83.1337 16.5621 83.1259 16.5234 83.1259 16.4769L83.0406 15.7017C83.0406 15.6397 83.0407 15.5777 83.0484 15.5157L83.3507 13.3995V12.4771L83.0406 12.2135L80.9323 11.5779L80.4517 11.5081C80.3199 11.4926 80.1958 11.4384 80.0951 11.3608L79.785 11.1283C79.7152 11.074 79.6455 11.0043 79.599 10.9268L78.8238 9.72527L78.4673 10.1981C78.3355 10.3686 78.1417 10.4849 77.9246 10.5082L77.1495 10.5857C77.072 10.5857 76.9945 10.5857 76.917 10.5702L74.2039 10.0276C74.1807 10.0198 74.1496 10.0121 74.1186 10.0043L72.0877 9.35319L71.0335 9.42295L70.1421 9.57023C70.0646 9.57798 69.987 9.57798 69.9095 9.57023L68.8243 9.41521C68.7623 9.40746 68.7003 9.39196 68.646 9.36871L68.2584 9.21367C68.2197 9.19816 68.181 9.1749 68.1422 9.1594L67.7546 8.92686C67.6694 8.8726 67.5918 8.79509 67.5298 8.70982L65.747 6.22932C65.7237 6.20606 65.7082 6.18281 65.7004 6.15955L65.3594 5.55494L65.1268 5.31464L64.7393 5.0976L62.5611 4.36895L62.0495 4.31468L61.7782 4.35345L61.6929 4.4077C61.5146 4.52397 61.3131 4.56275 61.1038 4.52399L60.0651 4.28367C59.9953 4.26817 59.9333 4.24493 59.8713 4.20617L59.0419 3.74108L59.0109 4.13641C58.9876 4.36896 58.8636 4.586 58.662 4.71778C58.4682 4.84955 58.2202 4.88056 57.9876 4.81079L57.7551 4.73327C57.5923 4.67901 57.4528 4.5705 57.3598 4.42322L56.8947 3.72558C56.8714 3.70233 56.8559 3.67132 56.8482 3.64806L55.9413 1.8342L54.9103 0.345895H54.9025L51.8019 1.37684L47.9571 3.48526L47.1898 4.06663L45.872 6.19057C45.8332 6.24483 45.7945 6.29907 45.748 6.34558L42.8024 9.13615C42.6861 9.24467 42.5388 9.31444 42.3838 9.33769L41.3761 9.49271C41.3373 9.50046 41.2986 9.50047 41.2598 9.50047C41.1978 9.50047 41.1358 9.49272 41.0738 9.47722L40.4537 9.32217C40.3839 9.30667 40.3219 9.28344 40.2599 9.24468L38.1747 8.08195C38.1282 8.05869 38.0895 8.03543 38.0507 8.00443L37.2368 7.32229L36.9577 7.22927L36.1593 7.08199C36.1206 7.08199 36.0895 7.06649 36.0508 7.05874L35.5857 6.9037C35.5547 6.88819 35.5237 6.87269 35.4849 6.85719L35.1749 6.70217C35.0973 6.66341 35.0198 6.60914 34.9578 6.54713L33.6788 5.22162L32.0432 5.0821C31.8262 5.05885 31.6246 4.95031 31.4929 4.77202L31.2603 4.46196C31.051 4.19066 31.051 3.81083 31.2603 3.53953L33.1595 0.966009L29.6713 1.12881C29.6325 1.12881 29.586 1.1288 29.5472 1.12105L28.152 0.966009C27.9737 0.950506 27.8109 0.872992 27.6869 0.748967L27.4466 0.500936L27.183 0.345895L26.6792 0.121094H26.2141L24.346 1.8497C24.2297 1.96597 24.0747 2.03574 23.9119 2.05124L23.2917 2.12874C23.2297 2.13649 23.1677 2.13649 23.1057 2.12874L21.9585 1.98922L21.5864 2.03573L21.1135 2.29928L20.695 2.71787L19.8656 3.84185C19.8035 3.91937 19.726 3.98911 19.6408 4.04337L17.9509 5.0976L17.9044 5.26813C17.8812 5.3534 17.8502 5.43867 17.7959 5.51619L17.6409 5.74872C17.5246 5.91926 17.354 6.03554 17.1525 6.0743L16.2456 6.29134L15.0286 7.36879L12.3543 9.58575L10.773 11.4694L10.1839 12.0662C10.1141 12.1282 10.0366 12.1825 9.95134 12.2213L9.25368 12.5313C9.20717 12.5546 9.16843 12.5701 9.12192 12.5778L8.58706 12.7096L8.15298 12.9267L7.69561 13.3917L6.65693 15.1591C6.63368 15.2056 6.6104 15.2444 6.57939 15.2754L6.11432 15.818C6.04455 15.8955 5.96704 15.9575 5.87402 16.004L5.40895 16.2366C5.35469 16.2676 5.29264 16.2908 5.23063 16.3063L2.26182 16.973L1.21533 17.6474L0.734741 18.4535L0.851033 19.5852L1.33938 20.3449L1.78118 20.8642C1.79668 20.8875 1.81223 20.9107 1.82774 20.934L1.98273 21.1666C2.11451 21.3526 2.14551 21.5929 2.0835 21.8099L1.65718 23.2595L3.223 23.9571L3.96712 24.1432L4.77331 24.0811L5.55623 23.8641C5.59499 23.8563 5.64148 23.8486 5.68799 23.8408L6.54064 23.7633C6.65691 23.7556 6.78095 23.7711 6.88947 23.8176L7.89716 24.2052C8.05994 24.2672 8.19172 24.3757 8.28474 24.5307L9.44747 26.4686C9.48623 26.5384 9.51723 26.6159 9.54049 26.6934L10.1606 29.484L10.835 31.6544L12.3 32.6853L13.8814 32.7551L15.6875 32.6078L22.0437 30.6932C22.0902 30.6777 22.1445 30.6699 22.191 30.6699L26.1443 30.2824C26.1908 30.2746 26.2373 30.2746 26.2839 30.2746L26.8575 30.3211L28.2295 28.9491C28.3458 28.8406 28.4853 28.7631 28.6481 28.7398L31.2836 28.2747C31.3611 28.2592 31.4464 28.2515 31.5316 28.267L36.7019 29.0266L37.6166 28.9258L37.9887 28.329L38.3453 27.112C38.3685 27.0267 38.4072 26.9492 38.4615 26.8794L39.2367 25.7942C39.3374 25.6469 39.5002 25.5384 39.6785 25.4919L40.2986 25.3369C40.5079 25.2826 40.7327 25.3214 40.911 25.4454L41.3761 25.7555C41.4691 25.8175 41.5466 25.895 41.6086 25.988L41.9652 26.5616L42.2908 26.9414L42.6396 27.112L43.19 27.1662L44.5077 27.0267C44.5543 27.019 44.6085 27.019 44.655 27.019L45.5852 27.0965C45.7635 27.112 45.9263 27.1895 46.0581 27.3058L47.3215 28.4995L49.1587 29.0654C49.3525 29.1274 49.5152 29.2592 49.6082 29.4297L49.9958 30.1273L50.3524 30.9102L51.0345 31.5924L51.8794 32.0885L52.7321 32.4761L54.7088 32.8249L55.2824 32.7861L55.3831 32.6078L55.4452 31.7629L55.4684 31.6234L55.7785 30.4607C55.8172 30.3211 55.9025 30.1893 56.011 30.0886L56.7862 29.3909C57.073 29.1351 57.4993 29.1196 57.7939 29.3677L58.6466 30.0653C58.7396 30.1351 58.8093 30.2281 58.8558 30.3289L59.476 31.6466C59.4992 31.6932 59.5147 31.7319 59.5302 31.7784L59.8403 32.9411C59.8558 33.0109 59.8636 33.0729 59.8636 33.1427V35.4527L59.9798 35.91L60.3131 36.0495L60.5767 35.9798L62.7936 34.693L63.3595 34.1271L63.8246 33.4062L64.5765 31.6079C64.6152 31.5149 64.6695 31.4296 64.7393 31.3521L66.1345 29.9568C66.2741 29.825 66.4524 29.7398 66.6462 29.732L68.3515 29.6545C68.4212 29.6545 68.491 29.6545 68.553 29.67L70.2893 30.0498L71.8009 30.1893L72.204 30.0731C72.2738 30.0498 72.3513 30.0421 72.421 30.0421H72.7311C72.7931 30.0421 72.8551 30.0498 72.9171 30.0653L73.2272 30.1428C73.266 30.1506 73.3125 30.1661 73.3435 30.1816L73.7853 30.3676L74.2271 30.4219L74.2737 30.4064L73.9559 30.1661L72.7078 29.577C72.6846 29.5692 72.6536 29.5537 72.6226 29.5305L71.7699 28.9879C71.6226 28.8948 71.5063 28.7476 71.4521 28.5848L71.142 27.6546C71.0955 27.5073 71.0878 27.3523 71.1265 27.205L71.3668 26.3523C71.4211 26.1353 71.5684 25.957 71.7699 25.8562L75.5992 23.9804L76.5604 22.9572L77.1262 21.4689L77.413 20.4456C77.4285 20.3759 77.4596 20.3139 77.4983 20.2519L77.8859 19.6317C77.9557 19.5232 78.0487 19.4302 78.1649 19.3682L81.188 17.6628C81.2578 17.6241 81.3353 17.5931 81.4128 17.5776L82.188 17.4225C82.2268 17.4148 82.2732 17.4071 82.312 17.4071L83.3585 17.3683L83.1492 16.6086Z" fill="#669187"/>
</svg>
