<svg width="46" height="66" viewBox="0 0 46 66" fill="none" xmlns="http://www.w3.org/2000/svg">
<path d="M45.6831 28.7291L45.5436 28.233C45.5358 28.2098 45.5281 28.1788 45.5203 28.1478L45.4816 27.8842L45.3188 27.6904L44.8847 27.2563C44.7762 27.14 44.6987 26.9928 44.6677 26.83L44.5901 26.3727C44.5746 26.2641 44.5824 26.1556 44.6056 26.0548L44.4584 26.0781C44.2026 26.1168 43.9467 26.0161 43.7685 25.83C43.5979 25.6362 43.5359 25.365 43.5979 25.1169L44.1406 23.024C44.1561 22.9775 44.1716 22.9387 44.1871 22.8999L44.2878 22.6752C44.1483 22.6597 44.001 22.6131 43.8848 22.5201L43.5747 22.2876C43.3809 22.1403 43.2646 21.9078 43.2646 21.6675V21.2024C43.2646 21.0008 43.3499 20.7993 43.4894 20.652L44.1173 20.0164L44.1018 19.9776L43.3964 19.3963C43.2879 19.311 43.2026 19.1947 43.1561 19.0707L42.784 18.0475L42.5903 18.032L40.7531 18.3265C40.4508 18.373 40.1562 18.2413 39.9857 17.9932C39.8152 17.7452 39.8074 17.4196 39.9625 17.1638L40.1563 16.8382C40.1253 16.8615 40.0865 16.877 40.0477 16.8925L39.4276 17.1251C39.1951 17.2103 38.9315 17.1793 38.7222 17.0398L38.0323 16.5747C37.8463 16.4584 37.7223 16.2646 37.6913 16.0476C37.6603 15.8383 37.7145 15.6135 37.854 15.4507L38.2494 14.9546L38.1951 14.6833L37.854 14.1795L37.4742 13.7996L37.4045 13.8151C37.2804 13.8461 37.1564 13.8461 37.0324 13.8151L36.7223 13.7376C36.6216 13.7144 36.5285 13.6679 36.4432 13.6059L36.1332 13.3733C35.9937 13.2648 35.8852 13.1097 35.8464 12.9392L35.7689 12.6291C35.7456 12.5439 35.7379 12.4509 35.7534 12.3578L35.8231 11.6835L35.4666 10.9006L35.3503 10.7533L34.9472 10.4665L33.831 9.8696C33.7922 9.8541 33.7612 9.83085 33.7302 9.8076L33.4202 9.57504C33.3892 9.55178 33.3659 9.52853 33.3349 9.50528L32.9473 9.1177C32.8853 9.04794 32.831 8.97817 32.7923 8.8929L32.3582 7.95497L32.0791 7.55966L31.5598 7.15656L30.7149 6.83101L30.0095 6.66821L29.5521 6.86976C29.3274 6.97053 29.0715 6.96278 28.8622 6.8465C28.653 6.73023 28.5057 6.52093 28.4669 6.28063L28.4049 5.85431C28.2421 5.84655 28.0871 5.81554 27.9476 5.72252L27.715 5.5675C27.5755 5.47448 27.467 5.33495 27.4127 5.17217L27.2577 4.70707C27.2344 4.63731 27.2267 4.56756 27.2189 4.50554L27.1491 3.18001L27.0329 2.73819L26.8391 2.39712L25.002 0.738281L24.5911 0.939829L23.5912 1.6297L23.1338 2.8002C23.0408 3.04824 22.8316 3.22653 22.5758 3.28079C22.5137 3.28854 22.4672 3.30406 22.4052 3.29631L22.4827 3.97842C22.4905 4.04043 22.4905 4.10246 22.4827 4.16447L22.4052 4.78459C22.3974 4.87761 22.3742 4.96289 22.3277 5.0404L22.0176 5.66052C21.9866 5.73028 21.9324 5.80005 21.8781 5.86207L21.506 6.22639L21.413 6.81549L21.8626 11.6059L22.1106 12.5439L22.3044 12.7764L22.4672 12.8694L23.4982 13.0788C23.8858 13.1563 24.1571 13.5206 24.1183 13.9159L24.0485 14.536L24.4439 15.7763L24.7927 16.4041C24.8857 16.5669 24.9167 16.753 24.8779 16.939L24.8004 17.3266C24.7849 17.4119 24.7462 17.4971 24.6997 17.5746L24.0408 18.6599L24.1803 18.7374C24.4981 18.9157 24.6532 19.2955 24.5524 19.6443L24.3199 20.4195C24.2656 20.5978 24.1416 20.7528 23.9788 20.8536L22.971 21.4737C22.8083 21.5744 22.6067 21.6132 22.413 21.5744L21.2502 21.3419C21.1882 21.3264 21.1262 21.3109 21.072 21.2799L19.3976 20.4815L19.2581 20.4582L19.0565 20.8148C19.0333 20.8458 19.01 20.8768 18.9868 20.9078L18.6767 21.2954C18.5294 21.4814 18.3047 21.5899 18.0721 21.5899H17.6922L17.4675 21.8147L17.3667 22.0163C17.2737 22.2023 17.1109 22.3418 16.9094 22.4039C16.7156 22.4659 16.4985 22.4504 16.3125 22.3496L8.61521 18.2645L8.53767 19.466C8.52217 19.6366 8.46016 19.7993 8.34388 19.9311L7.80131 20.5512C7.69279 20.683 7.53775 20.7683 7.35947 20.7993L4.34411 21.3652L4.27432 22.6442L4.01855 24.4968L4.92547 24.2565C4.98748 24.2332 5.05726 24.2255 5.12702 24.2255H5.5146C5.87892 24.2255 6.18897 24.4813 6.27423 24.8301L6.42927 25.5277C6.46028 25.6905 6.44478 25.861 6.38277 26.0083L1.06522 38.1705L0.793884 39.7363L1.00319 41.1781L1.2125 41.7207L2.18144 41.899L12.2507 42.1315L25.6376 38.8216C25.6996 38.8061 25.7616 38.7984 25.8237 38.7984H25.9786C26.1802 38.7984 26.3817 38.8759 26.5213 39.0232L26.5988 39.1007C26.8391 39.3332 26.9011 39.6975 26.7461 39.9999L26.5135 40.465C26.498 40.5037 26.4748 40.5425 26.4438 40.5812L26.25 40.837L25.9244 41.4339L25.3275 43.5811C25.3198 43.6043 25.312 43.6353 25.3043 43.6586L25.1027 44.209L25.2423 44.4648L27.1724 43.9377L27.3119 43.9144L28.3196 43.8369C28.3894 43.8369 28.4514 43.8369 28.5212 43.8524L30.9552 44.2942L31.7768 44.178L33.2031 43.3873C33.2263 43.3795 33.2496 43.364 33.2806 43.3563L34.2031 42.9687C34.2651 42.9455 34.3193 42.9299 34.3813 42.9144L41.6678 41.7517C41.7453 41.744 41.8306 41.744 41.9081 41.7517L42.9158 41.9068C43.0011 41.9223 43.0863 41.9455 43.1639 41.992L43.7762 42.3098L44.3421 40.2014L44.2956 39.682L44.094 39.3875C44.063 39.3332 44.032 39.2867 44.0165 39.2325L43.3964 37.6046C43.3421 37.4729 43.3266 37.3333 43.3499 37.1938L44.2801 31.7677C44.2878 31.729 44.3033 31.6902 44.3111 31.6514L44.4661 31.1864L44.9777 30.0779C45.001 30.0314 45.032 29.9849 45.0707 29.9384L45.6754 29.1942L45.7296 29.0392L45.6831 28.7291ZM34.6914 62.3398L32.3814 59.1307L32.6528 59.7121C32.6683 59.7508 32.6838 59.7896 32.6915 59.8283L33.3581 62.2003L33.9705 63.1847L34.7534 62.8747L34.6914 62.3398ZM39.4741 50.0536L39.2881 49.5265L37.6602 48.3793L27.7383 50.3559L26.0097 52.6349L25.3663 53.7744L25.2035 54.2085V54.8286L25.3818 55.4952L25.6609 56.0456C25.6841 56.0921 25.6996 56.1386 25.7151 56.1773L26.2655 58.1462C26.281 58.2082 26.2887 58.2703 26.2887 58.3323V58.8749L26.2112 60.8438C26.2035 60.9523 26.1802 61.0608 26.1259 61.1538L26.0794 61.2624L25.9709 61.4716C25.9632 61.4794 25.9632 61.4949 25.9554 61.5027C25.9477 61.5182 25.9476 61.5259 25.9321 61.5336C25.9089 61.5802 25.8701 61.6267 25.8314 61.6732C25.8779 61.7352 25.9089 61.805 25.9399 61.8825L26.0174 62.115C26.064 62.2545 26.0717 62.4096 26.0329 62.5491L25.8856 63.2157C25.8779 63.2623 25.8624 63.3165 25.8391 63.363L25.6531 63.8669L26.2345 63.3398C26.3817 63.208 26.5678 63.1382 26.7538 63.1382C26.9243 63.1382 27.0949 63.1925 27.2344 63.3088L28.0096 63.9289C28.0871 63.9831 28.1491 64.0529 28.1956 64.1382L28.932 65.3629C28.9397 65.3164 28.9475 65.2621 28.963 65.2156L29.2731 64.2855C29.3351 64.0917 29.4746 63.9366 29.6606 63.8436L29.8157 63.7661C29.8854 63.7273 29.963 63.7041 30.0405 63.6886L30.2265 63.6576L30.5676 62.9289L30.6141 62.4251L29.6994 60.526C29.6839 60.5027 29.6761 60.4794 29.6684 60.4484L29.2033 59.1307C29.1878 59.0842 29.1723 59.0377 29.1646 58.9834L29.0095 57.8982C28.9863 57.7121 29.025 57.5184 29.1335 57.3633L29.4436 56.8982C29.5599 56.72 29.7459 56.5959 29.9552 56.5572C30.1645 56.5262 30.3815 56.5727 30.5521 56.7045L30.7769 56.875C30.7691 56.8595 30.7614 56.8362 30.7536 56.8207L30.5211 56.2006C30.5056 56.1463 30.49 56.0921 30.4823 56.0378L30.4048 55.4952C30.397 55.441 30.397 55.3867 30.397 55.3324L30.4668 54.3247L30.4281 54.2239L29.839 53.7434C29.6839 53.6193 29.5832 53.441 29.5521 53.2472L29.4746 52.7047C29.4513 52.5496 29.4746 52.3946 29.5521 52.2473L30.0947 51.1621C30.1955 50.9528 30.3893 50.8055 30.6141 50.7512C30.8389 50.7047 31.0792 50.759 31.2575 50.8985L31.9551 51.4411C32.0404 51.5109 32.1102 51.5884 32.1644 51.6814L32.8233 52.9062L34.2341 51.6969C34.3193 51.6194 34.4201 51.5652 34.5364 51.5342L35.389 51.3016C35.4898 51.2784 35.5906 51.2706 35.6991 51.2861L38.916 51.7357L39.4354 51.6582L39.5439 51.4644V50.8133L39.4741 50.0536Z" fill="#669187"/>
</svg>
