<svg width="92" height="100" viewBox="0 0 92 100" fill="none" xmlns="http://www.w3.org/2000/svg">
<path d="M89.6538 68.0637V68.9164C89.6538 68.9784 89.6615 69.0404 89.677 69.1024L89.9173 69.9783C89.9251 69.9938 89.9251 70.0016 89.9329 70.0171C89.9406 70.0481 89.9561 70.0791 89.9716 70.1179L90.2429 70.6682L90.739 72.4201V72.8386L90.7002 73.8231L90.5219 73.7611C90.3049 73.6913 90.0724 73.7146 89.8786 73.8308L89.491 74.0634C89.3282 74.1564 89.212 74.3115 89.1499 74.482L89.0724 74.7145C88.9949 74.9471 89.0336 75.1951 89.1654 75.3967L89.4755 75.854C89.5453 75.9625 89.6383 76.0478 89.7468 76.1098L90.4522 76.4896L90.3824 76.8229L90.1809 77.2958C90.1499 77.3733 90.1266 77.4508 90.1189 77.5361L90.0646 78.2182C89.7623 78.2415 89.491 78.443 89.3902 78.7376L88.9251 80.0553C88.8941 80.1251 88.8864 80.1949 88.8786 80.2724L88.4135 89.6828L88.212 90.9075L87.7082 91.8609L86.7625 92.8066L84.8943 94.0004C84.8168 94.0469 84.7393 94.1166 84.685 94.1942L84.0649 95.0468C83.9021 95.2794 83.8711 95.5739 83.9874 95.8297L84.1889 96.2638L81.3829 97.0622L79.3442 97.2095L77.259 97.0622L73.7166 95.7832C73.6391 95.7522 73.5538 95.7367 73.4685 95.7367L66.8177 95.5817L51.4774 91.5741C51.4231 91.5586 51.3689 91.5509 51.3146 91.5509L49.2217 91.4734C49.1287 91.4656 49.0434 91.4811 48.9581 91.5121L47.2528 92.0547C47.1753 92.078 47.0978 92.1168 47.028 92.1633L42.9972 95.0778L39.6175 95.5894C39.4548 95.6127 39.2997 95.6902 39.1835 95.8065L38.2533 96.7367C38.0905 96.9072 38.0052 97.1475 38.0362 97.38L38.2998 99.5815L38.261 99.597L37.2766 99.4652C37.2456 99.4575 37.2068 99.4575 37.1758 99.4575C37.1448 99.4575 37.1215 99.4575 37.0905 99.4652L36.734 99.504L31.773 95.1243L31.2536 94.4732L30.8971 93.7136L30.9746 89.9773L31.0676 89.6983L31.1839 89.4967L32.6024 89.458C32.6567 89.458 32.7032 89.4502 32.7574 89.4425L33.145 89.3649C33.1915 89.3572 33.2303 89.3417 33.2768 89.3262L33.6644 89.1712C33.7961 89.1169 33.9124 89.0316 33.9977 88.9154L34.2302 88.6053C34.2922 88.52 34.3388 88.427 34.362 88.3262L34.4395 88.0162C34.455 87.9542 34.4628 87.8922 34.4628 87.8302V86.7449C34.4628 86.7062 34.4628 86.6752 34.455 86.6364L34.3775 86.0938C34.3775 86.0628 34.3698 86.0395 34.362 86.0163L34.2302 85.4272V84.2567L34.331 84.0086C34.3465 83.9776 34.3543 83.9466 34.362 83.9078L34.3853 83.8071L35.1139 83.2102L36.4782 82.4971L37.2843 82.2258L38.4316 81.939H38.6486C38.7029 81.939 38.7649 81.9312 38.8192 81.9235L39.5168 81.7684C39.7803 81.7064 39.9974 81.5126 40.0827 81.2568L40.2377 80.7917C40.2842 80.66 40.2919 80.5204 40.2609 80.3809L39.0982 74.8773C39.075 74.792 39.0439 74.7068 38.9974 74.6292L38.2223 73.389C38.106 73.203 37.92 73.0789 37.7029 73.0402L29.8816 71.5674C29.8506 71.5596 29.8196 71.5597 29.7964 71.5519L28.7887 71.4744C28.6879 71.4666 28.5793 71.4821 28.4786 71.5131L28.2151 71.6061L27.1841 71.0403C27.0678 70.9705 26.9283 70.9318 26.7887 70.9318H26.4787C26.4167 70.9318 26.3546 70.9395 26.2926 70.955L25.4865 71.079L25.0912 71.0248L21.8588 70.1101L21.4712 69.5055C21.2619 69.1722 20.8355 69.0559 20.479 69.2264H20.4325C20.3395 69.2264 20.2465 69.2419 20.1612 69.2729L20.0294 69.3272L18.9674 68.149L18.9597 67.8234L19.0605 67.5754C19.107 67.4591 19.1224 67.3351 19.1147 67.211L19.0372 66.4359C19.0217 66.3196 18.9829 66.2111 18.9287 66.1103L18.6961 65.7227C18.6419 65.6375 18.5721 65.5677 18.4946 65.5057L18.1845 65.2731C18.0528 65.1724 17.89 65.1181 17.7194 65.1181H17.0993C17.014 65.1181 16.9288 65.1336 16.8513 65.1569L16.6187 65.2344C16.5955 65.2421 16.5722 65.2576 16.5489 65.2654L15.735 65.6375L15.3165 65.7382H15.1149L14.9599 65.6917L14.7041 63.2422L14.7429 63.0872L15.363 62.9167C15.4948 62.8857 15.611 62.8159 15.7118 62.7229L16.0994 62.3353C16.1924 62.2423 16.2622 62.126 16.2932 61.9942L16.4482 61.4516C16.4637 61.3974 16.4714 61.3431 16.4792 61.2888L16.5567 59.8936C16.5644 59.692 16.5024 59.4982 16.3707 59.351L15.2312 57.9867L15.1614 57.7851V57.6301L15.2312 57.4828C15.2855 57.3743 15.3165 57.258 15.3165 57.134V56.6689C15.3165 56.5139 15.27 56.3666 15.1847 56.2348L15.0297 56.0023C15.0064 55.9635 14.9677 55.9248 14.9366 55.886L14.7041 55.6535C14.6343 55.5837 14.5491 55.5295 14.4483 55.4907L13.6654 55.1574L13.5491 55.0489L13.4483 54.8473C13.4406 54.8396 13.4406 54.8396 13.4406 54.8318C13.4406 54.8241 13.4328 54.8163 13.4251 54.8086C13.4173 54.7931 13.4096 54.7776 13.4018 54.7621L13.3321 54.6613L12.7507 51.7544L12.6809 50.832L12.6034 48.0647V47.7546L12.7197 47.2275L13.084 46.3439C13.0995 46.3129 13.1073 46.2819 13.1228 46.2508L13.3553 45.3982C13.3631 45.3594 13.3708 45.3129 13.3786 45.2741L13.4483 44.499C13.4561 44.4447 13.4561 44.3827 13.4483 44.3285L13.3708 43.7083C13.3631 43.6308 13.3476 43.5611 13.3166 43.4991L12.7817 42.1968C12.7584 42.1348 12.7197 42.0728 12.6809 42.0185L12.4484 41.7085C12.4251 41.6774 12.4019 41.6542 12.3786 41.6232L12.1461 41.3906C11.9523 41.2046 11.6732 41.1271 11.4097 41.1891L10.0144 41.4837L9.16174 41.5457L7.85948 41.2743L5.99909 40.7317C5.93708 40.7162 5.87508 40.7007 5.81307 40.7007L0.828827 40.4992V40.4915H0.836586L7.32463 27.8797C7.34013 27.8564 7.34786 27.8332 7.35562 27.8022L8.59589 24.624C8.68116 24.407 8.66561 24.1667 8.54934 23.9651L7.57268 22.2288L7.21609 21.3219L7.17734 21.1513V20.2909L7.32463 19.26C7.33238 19.2212 7.33239 19.1902 7.33239 19.1514V18.1437C7.33239 17.9887 7.28584 17.8414 7.20057 17.7096L6.89054 17.2445C6.86729 17.2058 6.82853 17.167 6.79753 17.1283L6.56494 16.8957C6.46417 16.8027 6.34794 16.733 6.21616 16.6942L2.29388 15.64L1.71251 15.2834L1.54196 15.1982L1.33265 14.9423L1.14662 14.5083C1.13112 14.4617 1.10789 14.423 1.07688 14.3765L0.999338 14.2602L0.301727 6.13659L0.658268 5.67149C0.697026 5.61723 0.735787 5.56299 0.759042 5.49322L1.02262 4.86533L6.23163 2.74141C6.26264 2.72591 6.28593 2.71041 6.31693 2.6949L8.29357 3.22976C8.37109 3.25302 8.45636 3.26077 8.54162 3.26077L29.5405 1.943L35.3697 1.63295L44.8111 1.01283L50.4232 0.710509L51.2991 0.958565L53.082 1.92751C53.1285 1.95076 53.175 1.97401 53.2293 1.98951L54.2369 2.29957C54.3532 2.33057 54.4773 2.33834 54.6013 2.31509L55.4539 2.16004C55.5547 2.14454 55.6478 2.1058 55.733 2.05154L58.3996 0.322932L58.6321 0.160156L58.8337 0.850032C58.8724 0.974056 58.9422 1.08259 59.0274 1.17561L59.353 1.74921C59.3685 1.78797 59.3995 1.83448 59.4305 1.87324L61.3839 4.43124L61.7715 5.33042L62.066 7.47762C62.0815 7.57839 62.1125 7.6714 62.1591 7.75666L62.5001 8.33803L62.8102 8.80313C62.9342 8.98916 63.128 9.11319 63.345 9.1442C63.5621 9.1752 63.7869 9.11318 63.9574 8.9659L64.407 8.57832L64.6473 8.47755L65.0426 8.88838C65.2131 9.08217 65.4767 9.18295 65.7325 9.1442C65.9883 9.10544 66.2131 8.94266 66.3294 8.71011L66.5464 8.22952L66.5542 8.26827L66.4844 8.81089C66.4689 8.92716 66.4767 9.05117 66.5154 9.15969L66.0038 9.493C65.748 9.64803 65.6007 9.92709 65.624 10.2216C65.6472 10.5162 65.841 10.772 66.1123 10.8805L66.2286 10.927L66.5542 11.5239V12.9424L66.1278 14.7951L65.5155 16.7097L64.8721 18.1437L64.3993 18.8259L63.8489 19.508L63.2133 19.9576L61.7094 20.7095C61.6862 20.7172 61.6552 20.7327 61.632 20.756L61.1668 21.0661C60.9885 21.1824 60.8645 21.3684 60.8258 21.5854L60.7483 22.0505C60.7095 22.2908 60.7948 22.5466 60.9653 22.7249L61.1979 22.9575C61.3064 23.0582 61.4382 23.1357 61.5854 23.1667L63.252 23.5311L64.4535 24.1977L68.4843 28.2285C68.5153 28.2518 68.5386 28.275 68.5696 28.2983L70.0889 29.43L71.5617 30.678C71.6082 30.7167 71.6547 30.7478 71.709 30.771L73.112 31.4764L73.0035 33.1042L72.8174 33.3213L70.647 33.7321L70.0269 33.8096C69.9029 33.8251 69.7943 33.8639 69.6935 33.9336L69.2285 34.2437C69.0657 34.3522 68.9494 34.515 68.9029 34.701L68.8254 35.0111C68.8099 35.0576 68.8099 35.1041 68.8021 35.1506L68.7324 36.4839L68.4223 38.7318C68.3991 38.8869 68.43 39.0497 68.4998 39.1892L68.6549 39.4993C68.6859 39.569 68.7401 39.6388 68.7944 39.7008L69.0269 39.9333C69.213 40.1194 69.4842 40.1969 69.7478 40.1426L70.7323 39.9101L65.6085 51.6304C65.5852 51.6847 65.5697 51.7389 65.562 51.801L65.2442 53.5993C65.2364 53.6768 65.2287 53.7543 65.2442 53.8319L65.4767 55.4597C65.4844 55.5062 65.4922 55.5527 65.5077 55.5992L65.6628 56.0643C65.6783 56.0953 65.686 56.1263 65.7093 56.1651L65.9418 56.6302C65.9961 56.7465 66.0891 56.855 66.1976 56.9247L66.4302 57.0798C66.5232 57.1418 66.6162 57.1805 66.7247 57.196L67.965 57.4286C68.0037 57.4363 68.0425 57.4441 68.089 57.4441L78.321 57.6766C78.3908 57.6766 78.4528 57.6689 78.5226 57.6534L90.5607 54.6768L90.5375 54.7155C90.5064 54.7776 90.4755 54.8473 90.46 54.9093L89.8476 57.1185L89.708 57.4673C89.7003 57.4906 89.6926 57.5138 89.6848 57.5449L89.5298 58.0874C89.4755 58.2812 89.4988 58.4828 89.5918 58.6611L89.7003 58.8704L88.8399 59.0952C88.7391 59.1262 88.6461 59.1649 88.5686 59.2269L87.6384 59.9246C87.4601 60.0564 87.3516 60.2579 87.3283 60.4749C87.3128 60.6997 87.3903 60.9168 87.5376 61.0718L88.7003 62.312C88.7391 62.3586 88.7934 62.3973 88.8399 62.4361L90.8553 63.7538C90.9018 63.7771 90.9483 63.8004 90.9948 63.8236L91.9095 64.1879L90.739 65.7382C90.7235 65.7615 90.7002 65.7925 90.6847 65.8235L89.9871 67.0638C89.9639 67.0948 89.9484 67.1335 89.9329 67.1723L89.7003 67.7924C89.6693 67.8777 89.6538 67.9707 89.6538 68.0637Z" fill="#669187"/>
</svg>
