<svg width="80" height="50" viewBox="0 0 80 50" fill="none" xmlns="http://www.w3.org/2000/svg">
<path d="M79.8237 28.7198L78.8703 33.0839L78.444 33.3319L77.9866 33.4405L75.3588 33.518C75.3201 33.518 75.2736 33.5257 75.227 33.5335L74.5682 33.6653L73.9635 33.6033L68.1266 32.146C68.0336 32.1227 67.9406 32.115 67.8476 32.1305L66.6771 32.2777L65.6152 32.2002H64.6074C64.5377 32.2002 64.4602 32.208 64.3904 32.2312L63.8478 32.3863C63.8168 32.394 63.778 32.4095 63.7392 32.425L62.2122 33.1304L61.065 32.5878C60.8945 32.5025 60.7084 32.487 60.5301 32.5335L55.8792 33.7738C55.7087 33.8203 55.5614 33.9288 55.4528 34.0684L54.9103 34.8203L54.4684 35.1381C54.4374 35.1536 54.4141 35.1768 54.3831 35.2001L52.9104 36.5953C52.8794 36.6263 52.8484 36.6651 52.8251 36.6961L52.5925 37.0062C52.4685 37.1767 52.4142 37.386 52.4452 37.5953L52.5228 38.0604C52.546 38.1922 52.6003 38.3085 52.6778 38.4092L53.1662 39.0448L53.5925 39.944L52.8018 40.7424L52.7941 40.7502H52.7863L49.2439 41.9284C49.2051 41.9439 49.1586 41.9594 49.1198 41.9827L45.1666 44.1531C45.1356 44.1764 45.1046 44.1919 45.0736 44.2151L44.1434 44.9128C44.0658 44.967 44.0038 45.0445 43.9496 45.122L42.6085 47.2847L39.911 49.8428L39.2986 49.9358L38.9265 49.8428L36.9887 48.7653L36.1128 48.0366C36.0353 47.9746 35.95 47.9281 35.8647 47.8971L35.3996 47.7421C35.3608 47.7343 35.3299 47.7188 35.2911 47.7188L34.4927 47.5715L34.1284 47.4475L33.9966 47.3777L32.7719 46.0833C32.7098 46.0212 32.6323 45.967 32.5548 45.9282L32.2447 45.7732C32.1594 45.7267 32.0587 45.6957 31.9657 45.6879L31.1285 45.6182L33.3687 42.5795C33.547 42.347 33.5702 42.0214 33.4307 41.7579C33.2912 41.4943 33.0044 41.3238 32.7176 41.347L27.6558 41.5796L26.5938 41.4556L26.4776 41.3393C26.431 41.3006 26.3768 41.254 26.3226 41.223L25.935 40.9905C25.9117 40.975 25.8807 40.9595 25.8574 40.9517L25.1598 40.6417C25.0591 40.5951 24.9505 40.5719 24.842 40.5719H23.9118C23.718 40.5719 23.5242 40.6417 23.3847 40.7812L21.4778 42.5485L21.1988 42.5795L20.0515 42.44C19.9895 42.4323 19.9275 42.4323 19.8655 42.44L19.2454 42.5175C19.1446 42.5253 19.0516 42.5563 18.9586 42.6105L18.2609 42.9981C18.1989 43.0291 18.1447 43.0756 18.0904 43.1222L17.5478 43.6648C17.5168 43.6958 17.4935 43.7268 17.4703 43.7655L17.2455 44.0678L17.3075 43.7423C17.3695 43.4167 17.2222 43.0912 16.9432 42.9284L15.2378 41.9207C15.1758 41.8819 15.0983 41.8509 15.0286 41.8354L11.1683 40.8897L10.773 40.4014L10.6877 39.8277L10.8117 39.6495L10.9668 39.6185L12.2303 40.7579C12.3078 40.8277 12.4008 40.8897 12.5015 40.9207L13.4317 41.2308C13.6643 41.3083 13.9123 41.2695 14.1139 41.1378C14.3077 41.006 14.4394 40.7889 14.4549 40.5486L14.5324 39.4634C14.5402 39.2851 14.4937 39.1069 14.3852 38.9596L13.9976 38.417C13.9821 38.3937 13.9666 38.3705 13.9511 38.355L5.73446 29.0531L5.66467 28.9833L4.30815 27.7818L4.26165 27.6888C4.22289 27.5803 4.16088 27.4718 4.07562 27.3865L3.46321 26.7819L3.72679 25.8207C3.75004 25.7432 3.75778 25.6657 3.75778 25.5882L3.59502 21.1L3.43998 19.7823C3.43223 19.6737 3.39347 19.573 3.33921 19.4799L2.40901 17.9296C2.39351 17.9064 2.37801 17.8831 2.36251 17.8599L1.47111 16.6739L1.19978 16.0848V15.86L2.0757 13.8833L2.25397 13.4337L2.48656 12.6586C2.52532 12.5113 2.52532 12.364 2.48656 12.2245L2.33152 11.6741C2.24625 11.3796 1.99043 11.1625 1.68037 11.1238L0.812198 11.0152L0.664917 9.59672L0.765691 9.11612L2.90513 6.3178C2.92063 6.2868 2.94389 6.25579 2.95939 6.22479L3.34697 5.52715C3.37022 5.4884 3.38573 5.44965 3.40124 5.41864L3.77329 4.41093C3.78105 4.41093 3.78882 4.40317 3.79657 4.40317L5.26934 3.86058C5.3081 3.84507 5.34687 3.82956 5.38563 3.80631L10.8427 0.697932L11.8814 0.535156L12.3698 0.845213L13.0364 1.70565L15.5247 5.93023L15.858 6.99221L15.92 8.05417L15.3154 11.6896C15.3076 11.7517 15.3076 11.8137 15.3076 11.8757L15.3851 12.8834C15.4006 13.0074 15.4394 13.1314 15.5091 13.24L16.0518 14.0926C16.2068 14.3407 16.4936 14.4724 16.7881 14.4414L17.4858 14.3639C17.5788 14.3562 17.6641 14.3329 17.7494 14.2864L18.54 13.8911L19.1989 13.8446L19.8035 14.1159L20.4624 14.581L21.1522 15.2631L21.7336 16.0693C21.7569 16.1003 21.7879 16.1313 21.8112 16.1623L22.5863 16.9374C22.7181 17.0615 22.8886 17.1467 23.0747 17.1622L24.0048 17.2398C24.0591 17.2398 24.1056 17.2397 24.1599 17.232L25.9815 17.015L27.9426 17.3638L28.7798 17.7513L29.648 18.4025C29.6712 18.418 29.6945 18.4335 29.71 18.449L30.4851 18.9141C30.5782 18.9683 30.6789 18.9993 30.7797 19.0148L32.2525 19.2164L32.6943 19.604L33.795 21.3713C33.8415 21.4488 33.9036 21.5186 33.9811 21.5729L34.6787 22.1155C34.8647 22.2627 35.1205 22.317 35.3531 22.255C35.5856 22.1852 35.7795 22.0147 35.8725 21.7899L36.3375 20.6272C36.3763 20.5187 36.3996 20.4101 36.3918 20.2938L36.3143 19.0536C36.3065 19.0149 36.3066 18.9761 36.2988 18.9373L36.0895 17.9684L36.1205 17.6273L36.4693 17.4258L36.9809 17.4955L37.229 17.8134L37.7328 19.8985C37.7406 19.9528 37.7561 19.9993 37.7793 20.038L38.1669 20.8907C38.2057 20.976 38.2599 21.0535 38.3219 21.1233L38.9421 21.7434C39.1126 21.9062 39.3452 21.9914 39.5854 21.9604L40.2056 21.8829C40.4924 21.8519 40.7249 21.6659 40.8334 21.4023L41.2598 20.3404L41.7791 19.6737L44.2596 21.7821C44.5542 22.0302 44.9728 22.0302 45.2673 21.7821L46.275 20.9295C46.4223 20.8054 46.5231 20.6194 46.5386 20.4256L46.7711 18.3327C46.7789 18.2939 46.7789 18.2552 46.7789 18.2164L46.4068 8.2402L48.1896 9.89904C48.2517 9.96105 48.3214 10.0075 48.4067 10.0463L50.3446 10.8912C50.4841 10.961 50.6469 10.9765 50.8097 10.9455L52.36 10.6354C52.515 10.6044 52.6623 10.5269 52.7708 10.4106L54.0111 9.09287C54.0653 9.03086 54.1196 8.95334 54.1506 8.87583L55.6234 5.62017C55.6389 5.58916 55.6466 5.55816 55.6621 5.52715L56.2823 3.51175C56.29 3.48849 56.29 3.46524 56.2978 3.44199L56.5226 2.30251L56.5536 2.51955C56.5846 2.80636 56.7706 3.04666 57.0342 3.15518L57.4218 3.31022C57.7628 3.442 58.1504 3.32572 58.352 3.01566L58.5147 2.7831C58.5767 2.86062 58.662 2.92264 58.755 2.96915L59.2201 3.20169C59.5224 3.35672 59.879 3.29471 60.1193 3.06217L60.4294 2.75211C60.5611 2.61258 60.6386 2.43428 60.6541 2.24824L60.6619 2.06221L64.5377 7.83712L65.1656 9.44168L65.3826 11.3021L65.3051 13.7283V13.8213L65.5376 16.3793C65.5686 16.6584 65.7314 16.8987 65.9872 17.015L67.1499 17.5575C67.2895 17.6196 67.4522 17.6428 67.6073 17.6196L70.8164 17.0615L71.5451 17.6816L72.1885 18.6118C72.2582 18.7203 72.359 18.8056 72.4753 18.8598L73.2504 19.2474C73.4907 19.3637 73.762 19.3559 73.9946 19.2241L75.3123 18.449C75.3588 18.4257 75.4053 18.387 75.4441 18.3482L76.382 17.48L77.289 16.9607L77.9556 16.8212L78.6377 17.2242L78.9711 18.0614L79.1804 19.5187L79.2656 21.286L79.6454 24.3401V25.3479L79.3742 26.2858L78.7773 27.7121C78.661 27.9911 78.7153 28.3167 78.9245 28.5415C79.1261 28.7663 79.4516 28.8516 79.7384 28.7508L79.8237 28.7198Z" fill="#669187"/>
</svg>
