<svg width="228" height="256" viewBox="0 0 228 256" fill="none" xmlns="http://www.w3.org/2000/svg">
<path d="M227.022 179.407L225.929 182.206L219.534 194.631L219.464 194.569L219.099 194.104L218.983 193.949L218.89 193.81L218.805 193.562L219.076 192.693C219.099 192.608 219.115 192.531 219.115 192.445V191.903C219.115 191.817 219.099 191.74 219.076 191.655L218.921 191.19C218.89 191.097 218.836 191.004 218.766 190.926L217.216 189.143C217.2 189.12 217.169 189.097 217.146 189.073L215.828 187.911C215.782 187.864 215.72 187.825 215.665 187.802L215.2 187.57C215.138 187.539 215.069 187.515 215.007 187.5L214.619 187.422C214.48 187.399 214.348 187.407 214.216 187.446L213.751 187.601C213.681 187.624 213.619 187.655 213.557 187.701L210.356 189.911L209.503 190.306L208.829 190.414L208.325 190.306L207.588 190.035L206.914 189.632L206.015 188.957C205.968 188.926 205.914 188.895 205.868 188.872L205.17 188.562C205.1 188.531 205.023 188.508 204.945 188.5L204.325 188.422C204.232 188.407 204.139 188.414 204.046 188.438L203.426 188.593C203.31 188.624 203.201 188.678 203.108 188.756L202.519 189.259L201.976 189.802C201.93 189.856 201.883 189.911 201.852 189.973L201.062 191.476C201.054 191.484 201.054 191.492 201.046 191.5C201.038 191.515 201.038 191.523 201.038 191.531C201.031 191.546 201.023 191.562 201.015 191.577L200.472 193.205C200.465 193.244 200.449 193.282 200.441 193.329L200.286 194.251C200.279 194.298 200.279 194.337 200.279 194.383V195.313C200.279 195.399 200.294 195.492 200.325 195.577L200.713 196.662C200.736 196.716 200.759 196.778 200.798 196.825L201.077 197.251L201.178 197.453L200.945 198.042L200.845 198.143L200.054 198.476C199.907 198.538 199.775 198.647 199.69 198.786L199.457 199.174C199.387 199.298 199.348 199.437 199.348 199.577V200.042C199.348 200.135 199.364 200.236 199.403 200.321L199.899 201.608L200.038 203.468L199.775 204.592L199.193 205.832C199.186 205.855 199.178 205.871 199.17 205.887C199.155 205.925 199.139 205.964 199.131 206.01L199.054 206.398C199.031 206.499 199.031 206.607 199.054 206.708L199.131 207.096C199.155 207.204 199.201 207.313 199.271 207.406L199.504 207.716C199.527 207.747 199.55 207.77 199.573 207.801L199.969 208.189L198.721 209.979C198.697 210.01 198.674 210.049 198.659 210.08L198.271 210.855C198.248 210.894 198.232 210.94 198.217 210.979L197.612 213.041L196.465 215.785C196.442 215.839 196.426 215.886 196.418 215.932L196.341 216.32C196.318 216.421 196.318 216.529 196.341 216.63L196.418 217.018C196.449 217.157 196.511 217.273 196.597 217.374C196.682 217.475 196.798 217.553 196.93 217.599L197.163 217.677C197.24 217.7 197.325 217.715 197.411 217.715H197.721C197.767 217.715 197.814 217.708 197.86 217.7L198.643 217.56H198.883L199.124 217.607L199.209 217.638L199.348 217.901V218.018L199.24 218.281L196.093 221.273L195.736 221.475L186.326 223.436L184.683 223.11L182.869 221.948C182.667 221.816 182.427 221.785 182.202 221.862L181.597 222.064L181.086 221.785L180.272 221.196C180.21 221.157 180.156 221.126 180.086 221.095L178.404 220.467L177.861 219.863L176.722 218.273C176.605 218.103 176.427 217.994 176.218 217.956L175.869 217.901L175.823 217.878C175.753 217.839 175.683 217.816 175.613 217.808L174.854 217.669L170.831 215.847C170.73 215.801 170.621 215.777 170.513 215.777H169.815C169.691 215.777 169.575 215.808 169.466 215.863L169.156 216.018C169.086 216.049 169.017 216.103 168.955 216.157L168.722 216.39C168.645 216.467 168.583 216.568 168.544 216.669L168.071 217.932C168.063 217.979 168.048 218.025 168.04 218.072C168.032 218.111 168.032 218.157 168.032 218.204C168.032 218.219 168.032 218.235 168.04 218.258L168.102 218.94L167.962 220.018C167.955 220.049 167.955 220.087 167.955 220.118V220.335L167.947 220.343C167.854 220.444 167.776 220.568 167.745 220.707L167.699 220.878L166.614 222.475C166.559 222.56 166.521 222.653 166.497 222.754L166.42 223.141C166.381 223.343 166.42 223.56 166.536 223.731L166.691 223.963C166.831 224.172 167.079 224.304 167.335 224.304H167.552L167.683 224.358H167.691L167.544 224.8L166.846 226.343L166.691 226.73C166.683 226.761 166.668 226.792 166.66 226.823L165.901 229.784L165.722 230.195H165.715L165.234 230.428H164.125L163.056 230.296L161.893 229.746L160.343 228.893C160.288 228.862 160.226 228.839 160.157 228.823L159.847 228.746C159.785 228.73 159.723 228.723 159.661 228.723C159.544 228.723 159.428 228.754 159.312 228.808L159.002 228.963C158.963 228.978 158.932 228.994 158.909 229.017C158.878 229.04 158.847 229.064 158.823 229.087C158.761 229.133 158.723 229.188 158.684 229.25L158.451 229.637C158.405 229.715 158.374 229.8 158.358 229.885L158.165 231.017L157.754 231.343L155.242 231.994L153.103 232.296L152.638 232.374C152.529 232.397 152.421 232.436 152.335 232.498L152.103 232.653C152.056 232.676 152.018 232.715 151.979 232.746L151.746 232.978C151.645 233.079 151.576 233.203 151.545 233.342L151.467 233.652C151.428 233.815 151.444 233.994 151.514 234.156L151.824 234.854C151.855 234.924 151.901 234.994 151.956 235.056L153.405 236.66L154.227 237.412L154.568 237.753L154.839 238.125L156.103 242.877L156.165 243.249L156.033 244.435L154.607 247.791C154.568 247.892 154.545 247.993 154.545 248.101V248.411C154.545 248.489 154.552 248.566 154.576 248.636L155.118 250.419C155.134 250.458 155.149 250.504 155.172 250.543L157.258 254.721L157.11 254.814L153.645 255.589L153.614 254.884C153.614 254.845 153.607 254.807 153.599 254.768L153.506 254.31L153.025 252.714L152.793 252.093C152.769 252.047 152.754 252.008 152.731 251.969L152.498 251.582C152.483 251.559 152.467 251.535 152.452 251.512L151.708 250.528L150.932 249.675C150.878 249.613 150.808 249.559 150.739 249.52L150.041 249.132C150.002 249.109 149.963 249.094 149.925 249.078L148.894 248.714L148.367 248.427L148.095 247.551L147.956 246.427V245.466C147.956 245.388 147.948 245.319 147.925 245.249L147.537 243.931C147.522 243.869 147.491 243.807 147.46 243.753L146.684 242.435C146.607 242.303 146.491 242.195 146.351 242.133L141.15 239.675L140.879 239.195C140.762 238.978 140.538 238.831 140.289 238.807L139.592 238.73C139.46 238.714 139.321 238.73 139.197 238.784L137.406 239.575H136.941L136.739 239.451L136.445 238.707L136.383 238.458C136.359 238.35 136.313 238.257 136.243 238.172C136.212 238.133 136.173 238.094 136.135 238.063C136.096 238.024 136.057 237.993 136.011 237.97L133.956 236.831L132.763 236.063L129.639 231.66L129.112 230.567L129.585 229.443L130.321 227.893L132.205 225.49C132.236 225.444 132.267 225.397 132.29 225.351L132.561 224.816L135.026 223.692C135.073 223.669 135.111 223.645 135.158 223.614L136.011 222.994C136.042 222.971 136.073 222.94 136.104 222.917L136.879 222.141C136.902 222.11 136.933 222.079 136.956 222.048L137.576 221.196C137.6 221.157 137.623 221.126 137.638 221.087L139.747 216.878L140.08 216.584L140.328 216.545C140.452 216.522 140.569 216.475 140.669 216.398L141.165 216.025L142.545 215.847C142.801 215.816 143.026 215.661 143.142 215.429L143.22 215.274C143.344 215.033 143.328 214.754 143.196 214.529L142.964 214.142C142.948 214.119 142.933 214.095 142.917 214.072L142.22 213.142C142.196 213.111 142.173 213.088 142.15 213.057L140.91 211.816L140.662 211.375L140.91 211.134C140.987 211.049 141.049 210.956 141.088 210.847L141.863 208.677C141.964 208.39 141.894 208.08 141.685 207.863L140.685 206.871L140.514 206.01V205.669L140.576 205.158L140.669 204.832L140.871 204.592L141.398 204.274L142.739 204.073H143.599L144.243 204.235L144.956 204.879C144.979 204.902 145.002 204.925 145.033 204.941L146.041 205.638C146.111 205.685 146.181 205.724 146.258 205.747L147.266 206.057C147.336 206.073 147.405 206.088 147.483 206.088L152.754 206.166C153.033 206.173 153.304 206.01 153.444 205.755L153.986 204.747C154.01 204.708 154.033 204.662 154.048 204.615L154.994 201.538L155.676 200.856L156.684 199.693C156.746 199.615 156.8 199.53 156.831 199.429L158.072 195.631C158.087 195.585 158.103 195.53 158.103 195.476L158.165 194.949L158.467 194.437L158.661 194.282L158.738 194.251L161.35 194.763L161.971 194.841C162.18 194.864 162.381 194.81 162.544 194.686C162.707 194.554 162.815 194.368 162.831 194.158L162.908 193.461C162.924 193.352 162.908 193.236 162.877 193.127L162.676 192.531L162.606 191.438V190.004L162.684 188.492L162.901 187.112L163.97 183.438C164.048 183.167 163.978 182.872 163.777 182.671C163.575 182.477 163.288 182.399 163.017 182.477L160.971 183.058L147.529 182.143L143.212 181.097L141.809 180.26L140.475 179.19L139.948 177.686L139.576 176.198L138.569 170.152C138.561 170.121 138.553 170.098 138.545 170.067L138.158 168.671C138.08 168.377 137.824 168.16 137.522 168.113L136.98 168.036C136.685 167.989 136.39 168.129 136.228 168.377L134.964 170.268L133.778 170.772L131.972 171.129L126.065 171.361C125.98 171.369 125.887 171.384 125.81 171.415L124.259 172.035C124.228 172.051 124.205 172.059 124.174 172.074L123.321 172.539C123.135 172.64 122.996 172.818 122.942 173.02L121.6 178.089L121.011 178.686L109.299 177.268L107.748 176.71L107.338 175.834L107.252 172.051L107.02 170.036C107.012 169.912 106.966 169.795 106.896 169.687L105.966 168.299C105.935 168.245 105.888 168.198 105.842 168.152L104.989 167.377C104.904 167.292 104.795 167.237 104.671 167.199L103.818 166.974C103.671 166.927 103.516 166.935 103.369 166.981L102.439 167.292C102.338 167.33 102.245 167.385 102.167 167.454L101.315 168.229C101.268 168.276 101.222 168.322 101.191 168.377L100.416 169.539C100.392 169.563 100.377 169.594 100.361 169.625L97.6715 175.159L94.6639 179.702L90.5943 181.105C90.6098 180.88 90.5245 180.663 90.3695 180.5L88.8115 178.95L87.858 177.26C87.796 177.144 87.703 177.051 87.5945 176.981L73.9983 168.594L67.0219 164.641C66.9909 164.625 66.9599 164.609 66.9288 164.594L61.0377 162.269C60.9989 162.253 60.9524 162.238 60.9136 162.23L57.0766 161.4L56.2782 160.951L50.263 150.362C50.2398 150.316 50.2165 150.277 50.1855 150.246L42.7053 141.301L41.5968 139.463L40.2248 136.177C40.1085 135.898 39.8372 135.712 39.5271 135.704L35.7289 135.626C35.6281 135.626 35.5351 135.642 35.4421 135.673L20.0242 141.51L1.11822 115.465L0.831421 114.837V114.573L1.44378 114.007L11.0557 108.55C11.1177 108.512 11.172 108.473 11.2262 108.426L11.7688 107.884C11.7921 107.853 11.8153 107.829 11.8386 107.798L12.0712 107.488C12.2417 107.256 12.2727 106.946 12.1487 106.69L11.203 104.713L6.13348 95.3417L6.02494 94.9154V94.3727L7.01714 81.8617L9.42788 76.2186L20.9699 53.9794L33.2174 30.8023C33.2329 30.7791 33.2484 30.748 33.2561 30.7248L33.5662 29.9496C33.6049 29.8566 33.6204 29.7636 33.6204 29.6628V29.0427C33.6204 28.7637 33.4654 28.5001 33.2251 28.3683L32.5275 27.9808C32.4732 27.9497 32.4112 27.9265 32.3492 27.911L20.3653 24.6243L18.3422 22.7407L14.0711 15.493L16.6988 15.0047L19.8925 14.4543L25.6208 13.3691L30.7369 12.4389L41.496 10.5863L62.0454 7.25311L66.0452 6.57099L72.851 7.26087L105.865 10.1987L112.151 10.8266L118.353 11.3692L120.833 11.6017C120.926 11.6095 121.027 11.594 121.128 11.5707L122.678 11.1056C122.724 11.0901 122.779 11.0669 122.825 11.0436L127.399 8.55538L131.747 6.1524L136.235 3.59438L140.53 1.22241L141.925 0.695312L142.933 0.858088L143.452 1.37744C143.475 1.39294 143.499 1.4162 143.522 1.43171L144.219 1.99757L149.041 8.26856L153.847 14.6248C153.862 14.6481 153.886 14.6714 153.901 14.6869L156.157 17.0976L158.405 19.423C158.451 19.4695 158.498 19.5083 158.552 19.5393L163.203 22.4927L167.8 25.322L169.412 26.8025L173.148 34.5773L175.629 39.6081L178.962 46.5922L181.908 52.5609C182.032 52.8012 182.264 52.964 182.528 52.995L183.303 53.0725C183.458 53.0803 183.613 53.057 183.745 52.9795L190.264 49.4835L195.465 46.6077L194.62 60.4597L193.612 75.6528L193.388 78.7999L193.163 79.4433L192.419 79.7068C192.186 79.7921 192 79.9859 191.938 80.2339L191.705 81.0866C191.682 81.1486 191.674 81.2106 191.674 81.2726L191.442 93.1402L191.287 104.923C191.287 104.977 191.295 105.039 191.302 105.101L191.457 105.799C191.496 105.969 191.597 106.124 191.729 106.233L192.116 106.543C192.256 106.651 192.426 106.713 192.605 106.713H202.899L207.875 106.791H213.301C213.363 106.791 213.425 106.783 213.487 106.767L213.627 106.729L213.821 106.767L215.332 121.581L216.727 129.03L218.2 136.487L222.076 154.168C222.107 154.284 222.161 154.393 222.231 154.486L224.192 156.897L220.138 158.548C219.952 158.625 219.797 158.78 219.72 158.966L219.371 159.804L218.89 160.424C218.774 160.571 218.712 160.765 218.727 160.959L219.425 169.33C219.433 169.377 219.44 169.415 219.448 169.454L219.526 169.764C219.549 169.85 219.58 169.935 219.634 170.012L219.952 170.656C219.983 170.725 220.022 170.795 220.068 170.849L220.456 171.315C220.526 171.4 220.611 171.462 220.704 171.508L221.572 172.02C221.634 172.059 221.704 172.09 221.781 172.113L225.611 173.144L225.758 173.345L225.781 174.097L225.634 175.128C225.626 175.167 225.626 175.198 225.626 175.237V176.245C225.626 176.307 225.634 176.369 225.649 176.431L225.727 176.741C225.735 176.772 225.743 176.803 225.758 176.834L226.146 177.841C226.153 177.88 226.177 177.911 226.192 177.942L227.022 179.407Z" fill="#669187"/>
</svg>
