<svg width="148" height="91" viewBox="0 0 148 91" fill="none" xmlns="http://www.w3.org/2000/svg">
<path d="M147.097 31.0177L147.268 32.0874L147.09 32.2269L146.539 32.4517L143.408 32.599C143.361 32.599 143.307 32.6067 143.26 32.6222L142.64 32.7772C142.586 32.7927 142.532 32.8082 142.477 32.8393L141.702 33.2268C141.632 33.2578 141.563 33.3121 141.501 33.3663L140.943 33.8547C140.857 33.9245 140.788 34.0097 140.741 34.1105L140.477 34.6376L140.322 35.0252C140.284 35.1182 140.268 35.2112 140.268 35.312V35.7771C140.268 35.8469 140.276 35.9166 140.299 35.9864L140.664 37.3197L140.896 39.3506C140.904 39.4513 140.935 39.5521 140.989 39.6451L142.036 41.521L142.129 41.8388V42.0403L141.989 42.676C141.981 42.7302 141.974 42.7767 141.974 42.831V43.048L141.919 43.2651C141.904 43.3271 141.896 43.3891 141.896 43.4511V43.7612C141.896 43.8232 141.904 43.8852 141.919 43.9472L141.974 44.1642V44.3813C141.974 44.5363 142.02 44.6836 142.105 44.8154L142.16 44.8929L142.214 45.327C142.214 45.358 142.222 45.389 142.229 45.42L142.284 45.6371L142.183 46.0246L141.997 46.3967L141.563 47.0556C141.547 47.0789 141.524 47.1098 141.516 47.1331L141.284 47.5982C141.245 47.668 141.222 47.7455 141.206 47.823L141.129 48.2881C141.129 48.3268 141.121 48.3734 141.121 48.4121V48.5594L140.664 48.102C140.625 48.0633 140.586 48.0323 140.54 48.0013L140.307 47.8462C140.284 47.823 140.253 47.8075 140.229 47.7997L139.919 47.6447C139.865 47.6137 139.803 47.5905 139.741 47.5749L139.043 47.4199C139.012 47.4199 138.989 47.4121 138.958 47.4121L138.261 47.3347C138.23 47.3269 138.206 47.3269 138.175 47.3269H137.555C137.493 47.3269 137.431 47.3347 137.369 47.3502L136.749 47.5052C136.695 47.5207 136.64 47.5362 136.586 47.5672L135.966 47.8773C135.92 47.9005 135.873 47.9315 135.834 47.9625L135.447 48.2726C135.423 48.2881 135.4 48.3114 135.377 48.3269L134.834 48.8694C134.78 48.9315 134.734 48.9935 134.695 49.0632L132.013 54.2801L131.633 54.7916L130.92 55.5745L129.982 56.1326L128.292 56.5745C128.052 56.6365 127.858 56.8071 127.765 57.0396L127.486 57.745L127.013 58.4814L126.323 59.241L124.664 60.6053C124.595 60.6596 124.533 60.7293 124.486 60.8068L124.254 61.1944C124.238 61.2254 124.215 61.2642 124.199 61.303L123.889 62.0781C123.881 62.1091 123.866 62.1401 123.858 62.1789L123.61 63.1711L123.153 66.0779L122.773 67.4499L122.75 67.5507L122.308 67.9925L117.432 71.9536L115.014 73.2713L112.99 73.6977C112.905 73.7132 112.82 73.7442 112.735 73.7907L112.347 74.0232C112.262 74.0775 112.184 74.155 112.122 74.2403L111.696 74.8371L110.998 75.9999C110.983 76.0309 110.96 76.0696 110.944 76.1084L110.471 77.2866L110.029 78.5579L109.487 79.7206L104.084 84.7436C104.045 84.7746 104.014 84.8134 103.983 84.8599L103.596 85.4025C103.534 85.48 103.495 85.573 103.472 85.6661L103.239 86.5963C103.231 86.6273 103.224 86.666 103.216 86.7047L102.991 88.8752L102.805 89.5185L102.231 90.6581L101.852 90.8906L101.619 90.2472C101.572 90.0999 101.472 89.9682 101.348 89.8829L99.8749 88.7977C99.8439 88.7667 99.8129 88.7512 99.7741 88.7279L98.1463 87.8752C98.0998 87.852 98.0378 87.8287 97.9835 87.8132L96.2007 87.3481C96.1386 87.3326 96.0689 87.3249 96.0069 87.3249H92.7047L91.4722 86.9838L87.1236 84.9219L85.1392 82.4259C85.1237 82.4027 85.1004 82.3794 85.0849 82.3561L83.7672 81.0384C83.6974 80.9686 83.6122 80.9144 83.5191 80.8756L82.0463 80.2554C82.0153 80.2399 81.9921 80.2322 81.9611 80.2245L79.1628 79.4183L76.4962 77.2634C76.4575 77.2401 76.4265 77.2169 76.3877 77.1936L75.1475 76.496C75.07 76.4495 74.9769 76.4184 74.8839 76.4029L71.9771 75.9533L67.582 73.8372C67.5044 73.7984 67.4192 73.7752 67.3261 73.7674L65.7758 73.6124C65.6441 73.5969 65.5123 73.6201 65.3883 73.6666L64.148 74.2092C64.086 74.2402 64.0317 74.2713 63.9775 74.31L61.8458 75.9844L60.8846 76.5658L58.1251 76.775L55.35 75.8449L37.4982 63.7679L33.2736 59.8534L27.2274 54.4273C27.1964 54.3963 27.1576 54.373 27.1266 54.3498L24.1035 52.4119C24.0493 52.3809 24.0028 52.3499 23.9408 52.3344L17.4217 50.0322L11.7321 46.7688L2.39145 38.8079L0.298523 36.0794L0.352789 36.0174L0.538819 35.8313L4.58513 31.3277L6.53077 30.0332L12.6235 27.5139L22.5532 23.9482C22.6152 23.925 22.6695 23.9017 22.7238 23.863L22.9563 23.7079C22.9951 23.6847 23.0338 23.6459 23.0725 23.6149L23.3051 23.3824C23.4137 23.2661 23.4911 23.1188 23.5222 22.956L23.5997 22.491C23.5997 22.4522 23.6074 22.4057 23.6074 22.3669V21.9794C23.6074 21.8243 23.5609 21.677 23.4756 21.553L21.7703 19.3051L21.499 18.8942L21.3207 18.4756L21.2044 18.0881V17.964L21.8246 16.9486L25.1422 13.3286L25.336 13.1891L25.4678 13.1193L25.7701 13.0728L26.1112 13.1348C26.2585 13.1581 26.4135 13.1348 26.5453 13.0806L27.0879 12.848C27.1654 12.817 27.2274 12.7783 27.2894 12.724L27.8785 12.2202L32.3357 7.75526L34.2581 6.26695L38.5834 5.29801C38.6687 5.27475 38.7539 5.24376 38.8315 5.1895L39.4826 4.77867L58.4739 5.23601C58.5592 5.23601 58.6289 5.22825 58.7064 5.20499L59.2413 5.04998C59.3111 5.03447 59.3653 5.01121 59.4196 4.97246L60.404 4.39883L61.4117 3.70119C61.4892 3.64693 61.559 3.57718 61.6133 3.49967L61.9233 3.02681C61.9776 2.95705 62.0086 2.87178 62.0318 2.78652L62.1094 2.47646C62.1249 2.41445 62.1326 2.35244 62.1326 2.29043V1.0114L62.4194 0.972656H63.6829L64.1403 1.07343L64.3185 1.23621L64.9464 3.63919C64.9697 3.72446 65.0007 3.80973 65.0549 3.88725L65.8533 5.00347C65.8766 5.03448 65.8999 5.05772 65.9231 5.08873L68.2486 7.41419C68.2873 7.4452 68.3261 7.48395 68.3726 7.5072L69.7136 8.40639L70.6671 9.15053L70.8143 9.4916V10.135L70.7368 11.1272V11.5148C70.7368 11.5613 70.7446 11.6 70.7446 11.6388L70.8996 12.693C70.9073 12.8015 70.9461 12.91 71.0004 13.003L71.2329 13.3906C71.2717 13.4449 71.3027 13.4914 71.3492 13.5379L71.5817 13.7705C71.6825 13.8635 71.8065 13.9332 71.9383 13.972L74.9614 14.7471C75.0234 14.7626 75.0932 14.7704 75.1552 14.7704H76.783C76.8683 14.7704 76.9458 14.7549 77.0311 14.7317L77.7287 14.4991C77.7907 14.4759 77.8528 14.4448 77.907 14.4061L78.7984 13.817L83.0463 11.7706L89.6196 10.2668L90.1312 10.2202L93.6736 12.9023C93.7047 12.9255 93.7357 12.9488 93.7667 12.9643L94.4643 13.3519C94.5263 13.3906 94.5883 13.4139 94.6581 13.4294L95.2782 13.5844C95.3402 13.5999 95.4022 13.6077 95.4642 13.6077H95.7743C95.8751 13.6077 95.9759 13.5844 96.0689 13.5534L99.4795 12.1581C99.5726 12.1194 99.6578 12.0574 99.7354 11.9876L100.123 11.6C100.162 11.5613 100.193 11.5225 100.224 11.476L101.65 9.29781L102.177 8.82498L102.743 8.51492L103.332 8.33663H103.774L107.169 8.86372L111.076 9.64664L111.634 9.73965L112.316 11.0032L112.425 11.5845L112.146 12.9876C112.138 13.0186 112.138 13.0496 112.13 13.0806L112.053 14.0108C112.053 14.0728 112.053 14.1348 112.06 14.1968L112.138 14.6619C112.153 14.7394 112.177 14.8169 112.215 14.8867L112.37 15.1967C112.394 15.251 112.432 15.2975 112.471 15.344C112.51 15.3983 112.549 15.4371 112.595 15.4681L112.905 15.7006C112.944 15.7316 112.983 15.7549 113.022 15.7704L113.642 16.0882C113.68 16.1037 113.719 16.1192 113.766 16.1347C113.804 16.1502 113.851 16.1502 113.897 16.1579L114.518 16.2355C114.556 16.2432 114.595 16.251 114.634 16.2432L119.595 16.0882C119.657 16.0882 119.727 16.0727 119.781 16.0572L120.595 15.8169C120.703 15.7781 120.812 15.7161 120.897 15.6308L121.13 15.3983C121.161 15.3595 121.199 15.3208 121.223 15.282L121.378 15.0495C121.393 15.0185 121.416 14.9952 121.424 14.9642L121.587 14.6541C121.61 14.5999 121.633 14.5456 121.641 14.4836C121.657 14.4293 121.664 14.3673 121.664 14.3053V13.7627C121.664 13.7317 121.665 13.7007 121.657 13.6697V13.6619L123.099 13.7549L132.672 16.1657L132.61 16.4835C132.602 16.5068 132.602 16.53 132.594 16.561L132.517 17.4137C132.517 17.4679 132.517 17.53 132.524 17.5842L132.834 19.9097C132.858 20.088 132.943 20.2507 133.075 20.3748L134.315 21.5375C134.393 21.6073 134.486 21.6693 134.586 21.7003L140.09 23.6382C140.16 23.6692 140.237 23.6847 140.315 23.6847L143.826 23.832L145.26 24.3978L145.64 25.0722C145.671 25.1342 145.718 25.1885 145.764 25.2427L145.997 25.4753C146.097 25.5683 146.221 25.6458 146.361 25.6768L146.671 25.7543C146.779 25.7854 146.896 25.7854 147.012 25.7621L147.469 25.6691L147.578 25.8551L147.624 26.39L147.097 30.8006C147.09 30.8704 147.09 30.9401 147.097 31.0177Z" fill="#669187"/>
</svg>
