<svg width="292" height="282" viewBox="0 0 292 282" fill="none" xmlns="http://www.w3.org/2000/svg">
<path d="M111.831 203.114L111.862 203.184L111.669 203.292L109.118 203.711L108.801 203.61L108.599 203.277V202.649L108.824 201.587L108.979 200.502C108.994 200.409 108.987 200.323 108.971 200.23L108.754 199.207L109.49 200.409C109.506 200.44 109.529 200.471 109.552 200.494L111.335 202.664C111.359 202.703 111.397 202.734 111.428 202.765L111.831 203.114Z" fill="#669187"/>
<path d="M263.475 210.318V211.016C263.475 211.078 263.483 211.14 263.498 211.202L263.653 211.822C263.669 211.884 263.692 211.946 263.723 212.008L268.824 221.426L269.537 222.922L269.203 223.263L259.607 228.713C259.553 228.744 259.506 228.775 259.46 228.813L258.53 229.666C258.375 229.813 258.282 230.023 258.282 230.24V231.015C258.282 231.123 258.305 231.232 258.351 231.333L258.739 232.185C258.762 232.24 258.785 232.278 258.816 232.325L278.118 258.905V258.913L278.141 258.936L290.761 276.532V276.648L281.141 281.284L281.102 281.299H281.094L278.994 281.973L278.699 281.865L278.079 281.47L272.816 273.005C272.792 272.966 272.761 272.935 272.73 272.896L265.056 264.37C265.025 264.339 264.994 264.3 264.956 264.277L262.32 262.261C262.297 262.238 262.266 262.223 262.243 262.207L260.15 260.967C260.119 260.951 260.088 260.936 260.057 260.92L257.886 259.99C257.847 259.975 257.809 259.959 257.77 259.951L249.166 257.858C249.104 257.843 249.042 257.835 248.98 257.835H246.577C246.515 257.835 246.453 257.843 246.391 257.858L245.46 258.091C245.429 258.099 245.391 258.114 245.36 258.122C245.336 258.13 245.321 258.145 245.298 258.153L244.523 258.541C244.476 258.564 244.437 258.587 244.399 258.618L243.701 259.161C243.662 259.192 243.631 259.215 243.6 259.254L242.825 260.106C242.778 260.153 242.74 260.215 242.709 260.277L241.003 263.61L240.546 263.974L239.794 264.029L239.05 263.742L238.825 263.571C238.779 263.533 238.724 263.509 238.678 263.486L238.298 263.315L237.864 261.874C237.841 261.804 237.81 261.742 237.771 261.68L237.228 260.827C237.205 260.796 237.182 260.757 237.151 260.726L234.748 258.091C234.701 258.037 234.647 257.99 234.593 257.959L233.74 257.417C233.655 257.362 233.554 257.324 233.453 257.308L230.895 256.851L230.097 256.548L228.857 255.378V255.37L227.229 253.595C227.206 253.564 227.182 253.541 227.151 253.518L226.686 253.13C226.616 253.076 226.547 253.029 226.461 252.998L225.841 252.766C225.803 252.75 225.764 252.742 225.725 252.735L224.772 252.541L214.361 243.053L212.951 241.487L211.865 239.541L211.113 237.278C211.106 237.255 211.09 237.224 211.082 237.201L210.617 236.193C210.548 236.053 210.447 235.937 210.307 235.852L209.532 235.387C209.416 235.317 209.276 235.278 209.137 235.278H207.129L206.354 235.1L205.811 234.72L205.3 234.007L204.114 231.86L203.587 230.371C203.571 230.317 203.548 230.263 203.517 230.216L202.393 228.418L202.083 227.612V225.046C202.083 225.015 202.083 224.984 202.075 224.953L201.92 223.713C201.897 223.519 201.804 223.349 201.664 223.225L201.044 222.682C200.92 222.573 200.773 222.511 200.61 222.496L198.416 222.263L196.354 221.767L195.106 220.86C194.967 220.76 194.796 220.705 194.626 220.705C194.61 220.705 194.587 220.713 194.564 220.713L193.789 220.783C193.665 220.798 193.541 220.845 193.432 220.915L193.207 221.07C193.169 221.093 193.138 221.116 193.114 221.139L192.293 221.883L190.083 223.434L189.347 223.736L188.239 223.806C188.2 223.814 188.153 223.814 188.115 223.821L187.417 223.976C187.308 224 187.208 224.046 187.122 224.116L186.812 224.348C186.743 224.403 186.681 224.465 186.634 224.542L186.479 224.767C186.355 224.953 186.316 225.178 186.37 225.387L186.448 225.697C186.471 225.783 186.502 225.868 186.556 225.938L187.068 227.031L187.107 227.372L186.89 228.03L186.44 227.395C186.401 227.341 186.363 227.294 186.316 227.255L184.998 226.093C184.929 226.031 184.851 225.984 184.758 225.945L180.03 224.162C179.937 224.131 179.836 224.108 179.735 224.116L177.603 224.186L177.348 224.062L177.069 223.62L177.092 223.356L177.324 223.085L177.782 222.953C177.867 222.945 177.945 222.93 178.022 222.899L180.658 221.891C180.975 221.775 181.177 221.457 181.154 221.124L180.999 218.721C180.991 218.667 180.983 218.612 180.968 218.558L180.161 215.69L180.479 213.396L180.906 213.093L181.758 212.737C181.828 212.713 181.882 212.675 181.937 212.636L182.634 212.093C182.797 211.969 182.898 211.791 182.929 211.597L183.084 210.589C183.115 210.396 183.068 210.194 182.952 210.031L182.409 209.256C182.347 209.163 182.27 209.093 182.177 209.039L181.169 208.419C181.13 208.396 181.092 208.373 181.045 208.357L179.162 207.628L177.72 206.326L176.534 204.474C176.51 204.435 176.487 204.404 176.456 204.373L175.061 202.822C174.937 202.683 174.766 202.59 174.573 202.574L172.557 202.342C172.503 202.334 172.441 202.334 172.387 202.342L170.449 202.559L166.581 202.179C166.511 202.179 166.449 202.179 166.387 202.187L156.922 203.652L154.791 203.582L154 203.295L152.349 201.497C152.264 201.404 152.155 201.334 152.039 201.295L150.954 200.908C150.892 200.885 150.83 200.869 150.768 200.861L148.62 200.652L147.698 200.071L147.256 199.295L146.729 194.8C146.729 194.753 146.714 194.699 146.698 194.645L146.31 193.482C146.287 193.412 146.256 193.35 146.21 193.288L145.512 192.28C145.489 192.249 145.466 192.218 145.442 192.187L142.574 189.164C142.528 189.118 142.481 189.079 142.427 189.048L141.342 188.35C141.187 188.25 141.001 188.211 140.815 188.234L139.729 188.389C139.652 188.397 139.574 188.42 139.505 188.459L138.241 189.048L137.071 189.397L135.939 189.459L134.102 189.11L131.125 187.8L128.234 185.056L118.568 173.692C118.521 173.638 118.459 173.584 118.397 173.545L117.312 172.847C117.134 172.731 116.924 172.692 116.723 172.746C116.514 172.793 116.343 172.917 116.234 173.095L115.382 174.491C115.32 174.584 115.281 174.692 115.273 174.801L114.669 179.855L113.948 181.234L112.529 181.707L110.421 181.568L108.219 181.056L103.475 179.064C103.375 179.025 103.274 179.002 103.173 179.002H102.01C101.933 179.002 101.863 179.01 101.786 179.033L101.01 179.265C100.948 179.289 100.886 179.312 100.832 179.351L98.4679 180.8L96.8091 181.552C96.7626 181.575 96.716 181.599 96.6695 181.63L95.8169 182.25C95.7083 182.327 95.6231 182.436 95.5688 182.56L95.1812 183.413C95.1115 183.552 95.096 183.715 95.127 183.87L95.3595 185.11C95.3905 185.296 95.4836 185.451 95.6308 185.567L96.4835 186.265C96.53 186.304 96.5843 186.343 96.6385 186.366L102.212 189.04L103.599 190.149L104.894 192.087L106.103 194.893C106.119 194.924 106.134 194.955 106.157 194.986L106.607 195.722L105.499 194.893C105.46 194.862 105.413 194.838 105.367 194.815L100.948 192.722C100.894 192.699 100.848 192.676 100.786 192.668L99.7779 192.435C99.6771 192.412 99.5764 192.404 99.4679 192.428L98.6152 192.583C98.5609 192.59 98.4989 192.606 98.4524 192.629L96.9253 193.28L96.5688 193.319L96.1889 193.133L95.2975 191.753C95.2665 191.714 95.2355 191.668 95.1967 191.629L94.5766 191.009C94.4914 190.932 94.3983 190.87 94.2898 190.831L93.4371 190.521C93.3751 190.497 93.3054 190.482 93.2356 190.474L92.2279 190.397C92.1426 190.389 92.0651 190.397 91.9954 190.42L90.9877 190.652C90.9334 190.66 90.8869 190.676 90.8404 190.699L89.9877 191.087C89.8792 191.133 89.7939 191.203 89.7164 191.288L89.2513 191.831C89.2126 191.877 89.1738 191.932 89.1505 191.986L88.8017 192.676L87.825 193.784L86.7398 194.257C86.6778 194.288 86.6158 194.319 86.5693 194.365L85.7941 194.986C85.5693 195.164 85.4608 195.451 85.5151 195.738L85.8251 197.365C85.8329 197.42 85.8561 197.482 85.8794 197.536L86.7553 199.505L86.8096 200.171L86.4685 201.458L84.6857 205.473L84.2748 205.939L82.7555 206.489C82.5695 206.559 82.4144 206.69 82.3292 206.869L81.9416 207.644C81.8486 207.83 81.8331 208.039 81.8951 208.241L82.2052 209.171C82.2362 209.264 82.2904 209.357 82.3602 209.434L82.74 209.869L82.3679 210.148L81.7013 210.31L78.7945 210.163C78.717 210.163 78.6317 210.171 78.5542 210.194L77.7015 210.427C77.655 210.434 77.6085 210.45 77.562 210.473L75.1125 211.659L75.0117 211.675L74.7947 209.915C74.7947 209.884 74.7869 209.853 74.7792 209.822L74.3916 208.272C74.3761 208.217 74.3606 208.163 74.3296 208.109L73.7095 206.869C73.6862 206.814 73.6552 206.768 73.6087 206.714L72.756 205.706C72.725 205.667 72.6863 205.636 72.6475 205.597L71.5623 204.745C71.5235 204.722 71.4925 204.698 71.4538 204.675L69.0508 203.357C68.9655 203.311 68.8725 203.28 68.7717 203.272L66.9114 203.047L66.6555 202.962L65.7719 202.264L64.9192 200.916C64.8727 200.846 64.8262 200.792 64.7642 200.737L64.2216 200.272C64.1208 200.187 63.9968 200.125 63.8727 200.102L63.0976 199.947C63.0278 199.931 62.9581 199.923 62.8883 199.931L61.7256 200.009C61.6636 200.016 61.5938 200.024 61.5318 200.047L58.9738 200.9C58.9273 200.916 58.8885 200.939 58.842 200.962L56.9041 202.047C56.8498 202.078 56.8033 202.109 56.7568 202.156L55.5708 203.257L55.1057 203.722C55.0437 203.784 54.9972 203.861 54.9585 203.939L53.5632 206.884C53.5477 206.915 53.5322 206.946 53.5244 206.985L47.8658 224.736C47.8503 224.767 47.8425 224.806 47.8348 224.845L47.6953 225.713L44.083 227.449C43.9668 227.503 43.866 227.581 43.7962 227.689L42.4785 229.472C42.3777 229.604 42.3234 229.767 42.3234 229.93V232.255C42.3234 232.309 42.3312 232.364 42.339 232.418L43.3234 237.038L43.1839 239.185L42.8738 241.123C42.8738 241.154 42.8661 241.185 42.8661 241.216L42.7885 243.076C42.7885 243.185 42.804 243.293 42.8428 243.394L43.6955 245.564C43.711 245.603 43.7342 245.65 43.7575 245.688L44.7109 247.223L45.1218 248.681L45.269 250.239V252.332C45.269 252.363 45.269 252.401 45.2768 252.432L45.5093 254.138C45.5171 254.192 45.5248 254.238 45.5403 254.285L46.0829 255.913C46.0984 255.967 46.1217 256.014 46.1527 256.06L47.0829 257.61C47.1062 257.649 47.1294 257.688 47.1604 257.719L48.0906 258.804C48.1371 258.858 48.1914 258.905 48.2534 258.944L48.951 259.409C48.9743 259.432 49.0053 259.447 49.0285 259.455L49.6487 259.765C49.7029 259.796 49.7649 259.82 49.8192 259.827L51.5865 260.246L50.6796 260.967L48.6565 261.943C48.5557 261.99 48.4704 262.052 48.4007 262.137L47.4705 263.222C47.4395 263.261 47.4085 263.3 47.3852 263.346L46.0829 265.656L45.6644 265.928L40.4631 264.827L36.1997 263.974C36.161 263.967 36.13 263.959 36.0912 263.959L26.0064 263.339L0.155031 261.982L0.0775155 235.046V122.485L0 108.23V36.2882L3.79826 35.017L20.7121 29.5909L24.8825 28.2034L29.1613 26.8778L33.3394 25.4826L41.7808 22.7773L46.0597 21.4518L50.23 20.0642L54.5089 18.7387L58.687 17.3434L67.1284 14.6304L72.7793 12.8553L84.0268 9.43686L89.6777 7.66176L100.057 4.56114L108.196 2.23568L114.421 0.414062L115.235 0.476075L116.258 0.917913L133.598 12.677L137.536 15.3048L148.171 22.599L155.062 27.1724L182.634 45.6831L183.518 46.3187L192.269 52.1324L200.494 57.7212L208.083 62.6745L214.602 67.0929L223.981 73.2941L226.686 75.1002L227.702 76.2552L228.392 77.7745L228.678 79.1233L228.981 82.3324C228.988 82.3944 229.004 82.4409 229.019 82.4952L229.485 83.968C229.5 84.03 229.531 84.092 229.562 84.1463L232.198 88.4096C232.221 88.4484 232.252 88.4871 232.283 88.5181L237.407 94.1923L239.879 96.82L242.352 99.5176L265.994 126.803L269.405 130.679C269.483 130.764 269.576 130.834 269.676 130.88L271.335 131.601L276.064 139.632C276.102 139.694 276.149 139.756 276.203 139.802L278.451 141.895C278.544 141.981 278.653 142.043 278.777 142.074L290.854 145.383L291.071 145.507L290.83 146.12L278.598 169.266L267.025 191.567L264.545 197.381C264.514 197.458 264.491 197.536 264.483 197.621L263.475 210.318Z" fill="#669187"/>
</svg>
