<svg width="106" height="78" viewBox="0 0 106 78" fill="none" xmlns="http://www.w3.org/2000/svg">
<path d="M105.671 47.3735L105.338 47.3968C105.276 47.3968 105.214 47.4045 105.152 47.42L103.85 47.7456L102.919 48.0557C102.881 48.0712 102.842 48.0867 102.803 48.1022L101.33 48.8773C101.292 48.9006 101.253 48.9238 101.222 48.9548L100.524 49.4974C100.493 49.5207 100.47 49.5362 100.447 49.5595L100.137 49.8695C100.044 49.9703 99.9661 50.0943 99.9351 50.2339L99.7335 50.8307C99.6948 50.9237 99.6793 51.0168 99.6793 51.1175V52.5128C99.6793 52.5671 99.687 52.6136 99.6948 52.6678L99.9118 53.8073V54.7452L99.8963 54.8073L99.5243 54.9158H98.2065C98.1367 54.9158 98.0592 54.9235 97.9972 54.9468L97.4468 55.1018C97.253 55.1561 97.0903 55.2879 96.9895 55.4584L96.6794 56.001C96.6562 56.0475 96.6329 56.094 96.6174 56.1405L96.4624 56.6056C96.4391 56.6831 96.4237 56.7607 96.4237 56.8382L96.3461 60.869C96.3461 60.9853 96.3694 61.1015 96.4159 61.21L96.881 62.2177C96.912 62.272 96.943 62.3262 96.9817 62.3728L97.6019 63.1479C97.6329 63.1867 97.6639 63.2177 97.6949 63.2487L102.439 67.4345C102.392 67.5121 102.354 67.5896 102.338 67.6826L101.795 69.9305C101.788 69.9538 101.78 69.977 101.78 70.008L101.462 72.4033L101.385 74.4884L100.873 76.3333C100.865 76.3643 100.858 76.3953 100.85 76.4186L100.648 77.7131C100.524 77.6976 100.4 77.7053 100.292 77.7441L99.8731 77.8836L89.4008 75.2481C89.362 75.2403 89.3155 75.2326 89.2689 75.2248L86.8582 75.0698C86.7342 75.062 86.6024 75.0853 86.4862 75.1473C86.4164 75.1783 86.3466 75.2248 86.2846 75.2791C86.1218 75.4264 86.0366 75.6279 86.0366 75.8449V76.155C86.0366 76.186 86.0366 76.217 86.0443 76.2558L86.1141 76.8216V77.1317L85.9745 77.3643L85.4552 77.5503L80.6492 77.7053L80.2151 77.6511L79.7811 77.434L79.6725 77.3487L79.6105 77.0542L79.6725 76.2635L79.9748 74.7597C79.9981 74.659 79.9981 74.5659 79.9748 74.4652L79.8198 73.6125C79.8043 73.535 79.7811 73.4575 79.7423 73.38L78.8121 71.6746C78.7811 71.6204 78.7501 71.5739 78.7113 71.5274C78.6803 71.4963 78.6493 71.4653 78.6183 71.4421C78.5098 71.3646 78.3858 71.3103 78.254 71.2793L73.4403 70.3491L69.9521 69.8065C69.9133 69.7988 69.8746 69.7988 69.8358 69.7988H69.2157C69.1382 69.7988 69.0684 69.8065 68.9909 69.8298L68.2158 70.0623C68.1615 70.0778 68.115 70.1011 68.0607 70.1321L67.3631 70.5196C67.3321 70.5351 67.2933 70.5584 67.2623 70.5894L66.8748 70.8995C66.8515 70.915 66.8282 70.9382 66.805 70.9537L66.4949 71.2638C66.4561 71.3025 66.4251 71.3491 66.3941 71.3878L64.9679 73.5738L64.7508 73.7908L61.6192 75.0698L61.1308 74.9613L60.5728 74.6512L57.8829 72.5816L56.7978 71.8064C56.6505 71.6979 56.4566 71.6436 56.2784 71.6591L55.4257 71.7366C55.3947 71.7444 55.3559 71.7444 55.3249 71.7521L48.7361 73.2482L48.5036 73.3257C48.4726 73.3335 48.4415 73.349 48.4183 73.3645L44.0774 75.4574C44.0387 75.4729 44.0077 75.4884 43.9844 75.5116L43.1395 76.0697L42.6589 76.2325H41.2559L38.5274 75.5349L38.4188 75.3566L38.2871 74.4574V74.2016L38.3646 73.2094V72.3568C38.3646 72.256 38.349 72.163 38.3103 72.0699L37.9692 71.3103C37.9227 71.2095 37.8452 71.1243 37.7599 71.0467L36.6205 70.1631L35.2949 69.2717L33.0625 67.0392L32.6517 66.5043L32.4191 66.1478L31.892 63.9696L31.8145 63.737C31.7912 63.675 31.7602 63.613 31.7215 63.5588L31.5664 63.3262C31.5432 63.2797 31.5044 63.2409 31.4734 63.2022L31.2409 62.9696C31.2021 62.9386 31.1633 62.8999 31.1246 62.8766L30.892 62.7216C30.8145 62.6673 30.7293 62.6363 30.644 62.6131L29.9153 62.4503C29.8611 62.4425 29.8146 62.4348 29.7604 62.4348H28.365C28.3263 62.4348 28.2876 62.4348 28.2566 62.4425L27.7139 62.52C27.6132 62.5355 27.5124 62.5743 27.4271 62.6208L27.0396 62.8534C26.9543 62.9076 26.8767 62.9774 26.8147 63.0549C26.7527 63.1402 26.7062 63.2332 26.683 63.334L26.6055 63.644C26.59 63.706 26.5822 63.768 26.5822 63.8301V65.2098L26.4039 65.5276L25.5745 66.109L24.7218 66.5974L24.3885 66.6981L5.75379 66.2408H5.74603L3.58336 61.9154L3.09501 60.3031L4.37404 57.3343L4.52903 56.8692C4.54453 56.8227 4.55232 56.7761 4.56007 56.7296L4.72282 55.2956C4.72282 55.2336 4.72286 55.1638 4.71511 55.1018L4.62205 54.5592L3.30432 49.5982C3.28107 49.513 3.23453 49.4277 3.18027 49.3502L2.79269 48.8075C2.76944 48.7688 2.7462 48.7378 2.7152 48.7068L1.4982 47.5751L1.47492 47.5441L0.188184 46.1178L0.0796509 45.8775L2.50589 45.5287C2.53689 45.5209 2.56014 45.5209 2.59114 45.5131L5.30419 44.8155C5.41271 44.7845 5.50572 44.738 5.59099 44.6682L6.36614 44.0481C6.52117 43.9318 6.62199 43.7536 6.65299 43.5598L6.80028 42.5831L6.83902 42.397L8.18779 43.1334L9.50556 43.7536C9.54432 43.7691 9.58305 43.7846 9.6218 43.8001C9.66056 43.8156 9.69934 43.8156 9.74585 43.8233L10.9861 43.9784C11.0171 43.9861 11.0481 43.9861 11.0791 43.9861H12.3969C12.5054 43.9861 12.6062 43.9628 12.6992 43.9241L13.2418 43.6915C13.2806 43.676 13.3116 43.6605 13.3348 43.645L13.7224 43.4125C13.8619 43.3272 13.9704 43.2032 14.0324 43.0637L14.3425 42.3583C14.3658 42.3195 14.3735 42.2808 14.389 42.242L15.1487 39.2654L15.9703 37.405C15.9858 37.3818 15.9936 37.3585 16.0014 37.3275L16.2494 36.4981C16.2804 36.3741 16.2804 36.2501 16.2494 36.126L16.1719 35.816C16.1564 35.7462 16.1331 35.6764 16.0944 35.6222C16.0634 35.5602 16.0246 35.5059 15.9703 35.4516L15.7378 35.2191C15.699 35.1881 15.6602 35.1493 15.6215 35.1261L15.389 34.9711C15.3347 34.9323 15.2727 34.909 15.2184 34.8858L16.0633 33.6455C16.1098 33.5758 16.1486 33.4905 16.1719 33.3975L16.1951 33.2967H16.2029C16.3036 33.1959 16.3734 33.0719 16.4044 32.9324L16.4819 32.6223C16.4975 32.5603 16.5052 32.4983 16.5052 32.4363L16.6525 31.0643C16.6602 31.01 16.6602 30.948 16.6602 30.886L16.5982 30.2736L16.9393 29.3744L17.3424 29.3357L21.3034 31.1263C21.3577 31.1495 21.4196 31.1728 21.4817 31.1805L22.2258 31.3201L22.2801 31.3433C22.3499 31.3821 22.4274 31.4053 22.5049 31.4208L22.6522 31.4441L23.6289 32.8084C23.6444 32.8316 23.6599 32.8549 23.6831 32.8781L24.3808 33.6533C24.4583 33.7463 24.5668 33.8161 24.6831 33.8626L26.4427 34.5215L27.2101 35.0796C27.2411 35.0951 27.2643 35.1183 27.2953 35.1338L28.148 35.5989C28.3341 35.6997 28.5588 35.723 28.7681 35.6532L29.3417 35.4594L30.9696 36.4981C31.0549 36.5524 31.1401 36.5911 31.2331 36.6066L33.171 36.9942C33.2795 37.0175 33.3803 37.0175 33.4811 36.9942L43.1705 34.9788C43.2558 34.9633 43.3255 34.9323 43.4031 34.8935L43.9457 34.5835C43.9922 34.5525 44.0464 34.5137 44.093 34.4749L46.9765 31.7464L47.4416 31.2813C47.5114 31.2115 47.5656 31.1263 47.6044 31.0333L47.8369 30.4907C47.8757 30.3976 47.8989 30.2969 47.8989 30.1883V29.7232C47.8989 29.5992 47.8679 29.483 47.8137 29.3744L47.4028 28.6225C47.3098 28.483 47.178 28.3667 47.023 28.3047L46.6354 28.1497C46.5889 28.1342 46.5502 28.1187 46.5037 28.1109L46.1161 28.0334C46.0618 28.0257 46.0153 28.0179 45.9611 28.0179H45.5735C45.527 28.0179 45.4805 28.0257 45.434 28.0334L45.0154 28.1109L46.0541 25.5994C46.0696 25.5762 46.0774 25.5529 46.0851 25.5219L46.6819 23.4988L47.0153 22.8399L48.178 21.2043L48.4106 20.8167C48.4803 20.7005 48.5191 20.5609 48.5191 20.4214V19.8788C48.5191 19.6695 48.4338 19.4757 48.2943 19.3284L47.7129 18.7471L47.6199 18.623L47.6044 18.561L48.209 17.189C48.2245 17.1658 48.2323 17.1347 48.24 17.1115C48.2555 17.0882 48.2555 17.0572 48.2633 17.034L48.5733 15.7162C48.5966 15.6387 48.6044 15.5612 48.5966 15.4837L48.4416 13.3908C48.4338 13.3132 48.4183 13.2357 48.3873 13.166L47.8989 11.9024V11.8094L48.5811 11.5226C48.6741 11.4839 48.7594 11.4296 48.8369 11.3598L49.1469 11.0498C49.2089 10.98 49.2632 10.9025 49.302 10.8172L49.6121 10.1196C49.6431 10.0576 49.6586 9.99558 49.6741 9.92581L49.7516 9.46845C49.7748 9.30567 49.7516 9.13514 49.6741 8.98786L49.4415 8.52279C49.4337 8.49953 49.4105 8.46851 49.395 8.43751L49.1392 8.05769L48.8291 7.18952V6.45311L48.9609 5.64694L49.4725 4.12765L50.1547 2.83313L50.5732 2.4068L50.9763 2.05797L51.2786 1.98821L51.643 2.02699L52.1545 2.25952L53.015 2.90291C53.0382 2.91842 53.0615 2.93392 53.0847 2.94942L53.8599 3.4145C53.8986 3.43775 53.9451 3.46102 53.9916 3.47652L54.8443 3.78658C54.8754 3.79433 54.9064 3.80984 54.9374 3.81759L55.635 3.97261C55.7358 3.98811 55.8365 3.99587 55.9295 3.98037L56.8597 3.82533C56.9295 3.80982 56.9993 3.78658 57.0613 3.76332L58.069 3.29823C58.1077 3.27497 58.1465 3.25947 58.1853 3.22847L61.3479 1.04252L61.5107 0.988281L61.8828 1.15106L63.0842 2.21302L64.495 3.84084L64.5648 4.3292L64.2935 5.13534C64.2702 5.21286 64.2547 5.29813 64.2547 5.38339V5.69345C64.2547 5.77872 64.2702 5.86399 64.2935 5.94151L64.4485 6.4066C64.4718 6.46862 64.5028 6.53062 64.5415 6.59263L65.2702 7.56158C65.2934 7.59258 65.3089 7.61584 65.3322 7.6391L66.1849 8.49177C66.2081 8.50728 66.2313 8.53054 66.2546 8.54604L66.3089 8.58479L66.6422 8.8561C66.7662 8.95687 66.929 9.01888 67.0918 9.02663L72.6574 9.25141L74.4713 9.78627L75.9595 10.0963C76.0293 10.1119 76.1068 10.1118 76.1766 10.1118L77.1843 10.0343C77.2153 10.0266 77.2463 10.0266 77.2773 10.0188L78.3315 9.80952L78.8509 11.011L78.8974 11.4374L78.8354 12.0652L78.6338 12.8016L78.2695 13.6931C78.254 13.7241 78.2385 13.7628 78.2308 13.8016L78.0679 14.5302C78.0602 14.5845 78.0525 14.631 78.0525 14.6853L78.13 17.9254L78.2075 18.9331C78.2153 18.9641 78.2152 18.9951 78.223 19.0261L78.8431 22.1267C78.8664 22.2198 78.9051 22.3205 78.9594 22.4058L79.223 22.8631C79.2385 22.9019 79.2617 22.9329 79.285 22.9639C79.3082 23.0027 79.3392 23.0337 79.3625 23.0647L79.6725 23.3747C79.75 23.4445 79.8353 23.4988 79.9283 23.5375L80.7113 23.8708L80.7655 23.9173L80.6957 24.1034C80.6415 24.2119 80.6105 24.3282 80.6105 24.4522V24.9173C80.6105 25.0026 80.626 25.0801 80.6492 25.1653L80.8043 25.6304C80.8353 25.7234 80.8818 25.8087 80.9515 25.8785L81.9903 27.1187L81.936 28.1187L81.8585 28.39L81.7577 28.4908L81.1066 28.6613C81.0213 28.6845 80.9438 28.7233 80.8741 28.7698L80.6415 28.9248C80.4864 29.0334 80.3702 29.1961 80.3237 29.3822L80.1686 30.0023C80.1454 30.0876 80.1377 30.1728 80.1454 30.2581L80.3779 32.8936C80.3857 32.9866 80.4167 33.0797 80.4632 33.1727L80.6182 33.4827C80.626 33.506 80.6492 33.537 80.6647 33.568L80.8198 33.8006C80.9206 33.9478 81.0756 34.0641 81.2539 34.1106L81.7965 34.2657C81.8662 34.2889 81.936 34.2967 82.0057 34.2967H82.3933C82.4476 34.2967 82.4941 34.2889 82.5484 34.2812L82.9359 34.2036C82.9669 34.1959 82.9979 34.1881 83.029 34.1804L83.2615 34.1029C83.2848 34.0951 83.308 34.0796 83.3313 34.0719L84.1529 33.6998L84.4088 33.6765L84.5095 33.7696L84.5483 34.1881L84.463 34.3974C84.4242 34.4904 84.4088 34.5835 84.4088 34.6843V35.2268C84.4088 35.2889 84.4165 35.3509 84.432 35.4129L84.5095 35.723C84.5405 35.847 84.6025 35.9633 84.6878 36.0563L86.2381 37.7616C86.4552 37.9941 86.7884 38.0794 87.083 37.9709L87.4706 37.8236L87.7109 38.2034C87.8116 38.3585 87.9667 38.4825 88.1527 38.529L91.7185 39.5367C91.7495 39.5445 91.7882 39.5522 91.8192 39.56L92.3618 39.6375C92.4238 39.6452 92.4936 39.6452 92.5556 39.6375L93.2533 39.56C93.292 39.56 93.323 39.5522 93.354 39.5445L93.571 39.4902L94.2144 39.87L94.5245 40.0251C94.5865 40.0561 94.6563 40.0793 94.7261 40.0948L95.1136 40.1723C95.2454 40.1956 95.3772 40.1878 95.5089 40.1491L95.819 40.0406L96.6329 40.1026L104.082 41.5056L104.609 42.3428L105.671 47.3735Z" fill="#669187"/>
</svg>
