<svg width="84" height="103" viewBox="0 0 84 103" fill="none" xmlns="http://www.w3.org/2000/svg">
<path d="M83.3205 47.1506L82.6539 50.3365L81.6229 53.3751L79.8865 56.0028C79.871 56.0261 79.8555 56.0571 79.8478 56.0804L79.2819 57.2198L78.8943 58.1423C78.8711 58.1965 78.8556 58.2585 78.8401 58.3206L78.7083 59.1112L78.4602 59.5608L78.0262 59.8941L75.4604 60.3127C75.4216 60.3205 75.3751 60.3282 75.3286 60.3437L73.9334 60.8088C73.8093 60.8476 73.7008 60.9251 73.6078 61.0258L72.8326 61.8785C72.7628 61.9561 72.7086 62.049 72.6699 62.1498L70.7474 67.917L69.484 70.444L66.3058 74.9089L63.8873 77.1801C63.8563 77.2033 63.8331 77.2343 63.8021 77.2653L61.4766 80.2109C61.4534 80.2419 61.4301 80.2807 61.4146 80.3117L59.5543 83.6449C59.531 83.6836 59.5155 83.7146 59.5 83.7534L58.1822 87.2416C58.159 87.3113 58.1435 87.3889 58.1357 87.4586L57.9807 89.8694C57.9807 89.9391 57.9807 90.0089 57.9962 90.0709L58.9186 94.5125L59.0659 96.7915L58.8488 98.6829L58.3373 100.489L58.0117 101.148L57.9186 101.024C57.8566 100.931 57.7714 100.853 57.6783 100.799L56.9032 100.334C56.8412 100.295 56.7714 100.264 56.6939 100.249L55.7637 100.016C55.694 100.001 55.6164 99.9929 55.5389 99.9929L53.9809 100.07L53.6088 100.024L52.2988 99.1247C52.2368 99.0782 52.1747 99.0472 52.105 99.0239L51.6399 98.8689C51.5236 98.8301 51.3996 98.8224 51.2833 98.8379L50.7407 98.9154C50.7097 98.9231 50.6787 98.9232 50.6477 98.9309L49.8338 99.1557L49.3997 99.2255C49.2834 99.2487 49.1672 99.2952 49.0664 99.3728L48.7563 99.6053C48.6478 99.6906 48.5626 99.7991 48.5083 99.9231L48.3068 100.388L48.1905 100.551L48.0199 100.396L47.237 98.2565C47.1673 98.0782 47.0432 97.9232 46.8727 97.838L45.8728 97.2953C45.679 97.1946 45.4542 97.1713 45.2526 97.2411L44.3224 97.5512C44.2527 97.5744 44.1829 97.6131 44.1131 97.6597L43.2605 98.2798C43.2295 98.3031 43.1985 98.3341 43.1675 98.3573L41.7257 99.8068L40.966 100.419L40.1986 100.807L39.346 101.008L38.2142 101.171L37.0515 101.404C36.9585 101.419 36.8732 101.458 36.7879 101.512L35.1989 102.52L34.5478 102.675L34.0284 102.473L33.7261 101.923L32.9664 99.8689C32.9199 99.7448 32.8424 99.6363 32.7416 99.551L31.8114 98.7759C31.7494 98.7216 31.6719 98.6751 31.5944 98.6519L29.6565 97.9077L28.9822 97.4581L28.7108 96.8457L27.9434 94.4118C27.9047 94.2722 27.8194 94.1482 27.7109 94.0552L27.1683 93.5901C27.0908 93.5281 27.0055 93.4738 26.9125 93.4428L26.083 93.1715L24.3932 91.9933C24.3699 91.9778 24.3467 91.9623 24.3235 91.9468L23.4708 91.4817C23.3545 91.4197 23.2305 91.3887 23.0987 91.3887H20.9283C20.874 91.3887 20.812 91.3964 20.7577 91.4041L16.7114 92.3266L10.89 92.6289C10.8203 92.6367 10.7505 92.6444 10.6807 92.6677L10.2156 92.8227C10.1304 92.8537 10.0451 92.9002 9.96759 92.9622L9.14592 93.6444L8.94438 93.7141H7.93668L7.54135 93.5978L4.64228 92.3809C4.58026 92.3498 4.51825 92.3343 4.44849 92.3266L3.36325 92.1716C3.29349 92.1638 3.22376 92.1638 3.15399 92.1716L1.99126 92.3266C1.9525 92.3266 1.92149 92.3344 1.89049 92.3421L1.39438 92.4816L0.882796 92.1018L0.913785 91.7375L1.44864 90.9546L2.25479 90.1562C2.3013 90.1096 2.34007 90.0554 2.37108 90.0011L3.06869 88.8384C3.16171 88.6834 3.20047 88.4973 3.16946 88.319L3.01447 87.3889C2.99122 87.2416 2.92145 87.102 2.82068 86.9935L2.12302 86.2184C2.09977 86.1951 2.07653 86.1641 2.04553 86.1409L1.26261 85.4898L0.789734 84.3037L0.999041 82.4589L1.91372 78.7072C1.92922 78.6607 1.92924 78.6219 1.93699 78.5753L2.09204 76.3274V76.2189L1.78195 71.7773L1.92148 69.7541L3.36325 67.1729L5.88251 63.9637C5.91351 63.9172 5.93679 63.8784 5.96005 63.8319L7.59561 60.5763C7.68863 60.3747 7.69641 60.1422 7.61889 59.9407L7.39407 59.3825L8.23125 58.8709C8.35527 58.8012 8.45604 58.6849 8.51805 58.5609L9.21571 57.1656C9.23896 57.1268 9.25442 57.0803 9.26993 57.0416L9.50251 56.2664C9.51801 56.2199 9.52575 56.1657 9.5335 56.1191L9.75828 53.9254L9.9366 53.1968L10.1924 52.8325L15.6417 47.7707C15.7115 47.7087 15.7658 47.6312 15.8045 47.5537L16.4711 46.1351L16.6959 45.4608L17.3625 43.7554L17.9904 42.6935L18.285 42.2826L18.4168 42.2051L19.9748 41.9028L20.5174 41.7477C20.5794 41.7322 20.626 41.709 20.6802 41.6858L23.2382 40.2905C23.277 40.2672 23.3158 40.2362 23.3545 40.213L28.3155 36.1821C28.3387 36.1666 28.3543 36.1434 28.3775 36.1279L28.9976 35.5078C29.0984 35.407 29.1682 35.283 29.1992 35.1435L29.6565 33.4613C29.6643 33.4303 29.672 33.3993 29.6798 33.3761L30.1294 30.4925L30.3464 29.6166L30.6177 28.95L30.7495 28.7252L32.3463 27.4151C32.3773 27.3919 32.4083 27.3687 32.4316 27.3377L33.2067 26.485C33.2377 26.4539 33.261 26.4152 33.2843 26.3842L33.8269 25.5315C33.8579 25.485 33.8811 25.4463 33.8966 25.3998L34.0594 24.9889L35.4624 24.6246C35.5244 24.6091 35.5865 24.5781 35.6485 24.5471L36.3926 24.1285L36.8577 23.8184C36.912 23.7874 36.9585 23.7409 37.005 23.6944L37.8266 22.7875L38.2917 22.1674C38.315 22.1286 38.3382 22.0976 38.3615 22.0588L41.0203 16.8963L41.4466 16.47L41.7334 16.2374L42.2063 15.9971L42.6481 15.8886H43.1287L43.7488 15.9584L44.3069 16.0824L44.493 16.1754L45.5704 17.2141C45.6092 17.2451 45.648 17.2761 45.6867 17.3071L45.9193 17.4622C45.9968 17.5164 46.0821 17.5474 46.1673 17.5707L46.4774 17.6482C46.7952 17.7257 47.1285 17.6017 47.3068 17.3227L47.4618 17.0901C47.5006 17.0358 47.5316 16.9738 47.5548 16.9118L47.6324 16.6793C47.6556 16.6018 47.6711 16.5165 47.6711 16.4312V15.4855L47.7176 15.1987L47.8804 14.8809L48.3145 14.222C48.33 14.1988 48.3533 14.1678 48.361 14.1445L48.5936 13.6794C48.6168 13.6484 48.6246 13.6097 48.6401 13.5787L48.7951 13.1135C48.8184 13.0283 48.8339 12.9508 48.8339 12.8655V12.5554C48.8339 12.4934 48.8261 12.4314 48.8106 12.3694L48.6711 11.5322C48.6555 11.4082 48.6168 11.2919 48.547 11.1912L48.5238 11.0826C48.5238 11.0206 48.516 10.9586 48.5005 10.8966L48.4463 10.6796L48.5005 10.3385C48.516 10.2765 48.5238 10.2145 48.5238 10.1525V9.9199L48.6555 9.33082C48.671 9.26881 48.6788 9.20676 48.6788 9.14475V8.75717C48.6788 8.69516 48.671 8.63315 48.6555 8.57114L48.485 7.96654C48.4695 7.92003 48.4463 7.88124 48.423 7.83473L47.4153 6.03642L47.1983 4.09853C47.1983 4.05977 47.1905 4.01324 47.175 3.97448L46.8184 2.67998V2.47068L47.051 1.96685L47.299 1.76531C47.3223 1.7498 47.3455 1.72654 47.3688 1.71104L47.5083 1.56376L48.0974 1.2692L48.5625 1.1529L51.7407 1.00562C51.8259 0.997872 51.9112 0.982363 51.9887 0.951357L52.7639 0.641323C52.8337 0.610317 52.8957 0.5793 52.9499 0.53279L53.1127 0.408786L53.3995 0.703349C53.5158 0.811871 53.6553 0.889362 53.8181 0.920368L59.5543 1.92806C59.6085 1.93581 59.6705 1.93582 59.7325 1.93582L60.9728 1.85832C61.0425 1.85057 61.1123 1.84283 61.1743 1.81957L64.585 0.656842C64.6238 0.641339 64.6548 0.625837 64.6858 0.610334L65.2283 0.339002L65.6702 0.230469H66.112L66.9259 0.579298L67.5073 1.16842C67.6158 1.26919 67.7476 1.33897 67.8872 1.37773L68.5848 1.53272C68.7398 1.56373 68.8949 1.54824 69.0421 1.49397L69.8173 1.18394C69.8716 1.16069 69.9258 1.12964 69.9723 1.09864L70.6312 0.641323L71.3133 0.618046L71.8094 1.18394L73.2357 4.49382C73.259 4.53258 73.2822 4.57911 73.3055 4.61787L74.5767 6.48597L74.9488 7.40841L74.8868 8.35412L74.5767 9.16802L74.1426 9.78814L73.5845 10.2765L72.9954 10.5788L72.0807 10.7726H71.3908C71.2358 10.7726 71.0885 10.8191 70.9567 10.9044L70.4917 11.2144C70.3056 11.3385 70.1816 11.54 70.1584 11.7648L70.0033 13.005C69.9956 13.0671 69.9956 13.1291 70.0033 13.1911L70.0808 13.8112C70.0963 13.9352 70.1351 14.0515 70.2049 14.1523L70.4452 14.5089L70.5382 14.8344V15.1677L69.4607 15.9584C69.3367 16.0514 69.2437 16.1754 69.1894 16.3227L68.8793 17.1754C68.8406 17.2762 68.8251 17.3847 68.8328 17.5009L68.9103 18.5086C68.9181 18.5551 68.9259 18.6094 68.9414 18.6637L69.5382 20.7488L69.608 21.7875L69.4529 25.0742C69.4529 25.1207 69.453 25.1672 69.4607 25.206L69.6157 26.4462C69.6235 26.516 69.639 26.578 69.6623 26.64L69.9723 27.4151C69.9955 27.4617 70.0111 27.5004 70.0421 27.547L71.0808 29.1748L71.3211 29.8414L71.3908 31.5777C71.3908 31.6165 71.3986 31.663 71.4063 31.7018L71.5614 32.4769C71.5691 32.5312 71.5924 32.5854 71.6157 32.6397L72.0032 33.4924C72.042 33.5854 72.104 33.6629 72.1737 33.7327L73.8713 35.3605L75.5224 38.2828C75.5534 38.3371 75.5844 38.3836 75.6232 38.4224L76.3983 39.275C76.4526 39.337 76.5224 39.3913 76.5921 39.43L78.8401 40.7091L82.2663 43.7554L83.1887 45.205L83.3205 47.1506Z" fill="#669187"/>
</svg>
