<svg width="25" height="25" viewBox="0 0 25 25" fill="none" xmlns="http://www.w3.org/2000/svg">
  <path d="M17.5455 2.78867C16.9479 2.91582 15.3998 2.91582 14.7004 2.89993C14.5998 2.86283 14.2427 2.65193 13.6196 2.10516C12.6342 1.08792 12.2686 1.18332 11.5692 1.05617C11.0097 0.954443 10.1387 1.01378 9.77314 1.05617L6.70551 3.56749C5.54521 4.4258 3.19919 6.31088 3.09747 6.98481C2.97031 7.82722 2.82726 9.14646 2.68421 9.49613C2.54116 9.84581 1.69875 12.0393 1.58749 13.2313C1.47623 14.4234 1.31728 15.5201 1.19012 16.5215C1.06297 17.5228 0.776867 18.4447 1.31728 19.0328C2.49347 20.1136 2.79547 20.4474 2.9862 21.3216C3.17693 22.1958 3.68556 23.1336 3.97166 23.1972C4.25776 23.2608 4.63922 23.4197 4.89354 23.531C5.14785 23.6422 5.35448 23.4833 5.67237 23.4674C5.99025 23.4515 6.13331 23.5469 6.48298 23.4197C6.83266 23.2925 6.95982 22.9429 7.21413 22.5296C7.46844 22.1164 7.62739 21.5124 8.08833 21.3216C8.99431 21.0832 16.417 21.1627 16.878 21.1627C17.3389 21.1627 18.1654 21.7349 18.3403 22.021C18.5151 22.3071 19.3416 22.0369 19.5006 21.8779C19.6595 21.719 19.739 21.56 20.4383 21.1627C21.7417 20.6064 22.2344 19.605 22.5523 18.9533C22.8702 18.3017 22.7589 18.1268 22.5523 17.8566C22.3457 17.5864 22.3298 16.5851 22.2344 16.0129C22.139 15.4407 22.0119 14.9638 21.3761 14.3281C20.7403 13.6923 20.2794 13.1995 20.3271 12.9611C20.3748 12.7227 20.5973 12.7068 21.694 11.8008C24.2212 9.76634 24.0146 9.08288 23.9828 8.78088C23.9574 8.53929 23.3817 8.46862 22.2688 7.974C21.1559 7.47938 19.8343 5.88809 19.8343 5.88809C19.4635 5.51192 18.6963 4.696 18.5946 4.44169C18.4674 4.1238 18.2926 2.62972 17.5455 2.78867Z" fill="#669187" stroke="white" stroke-width="1.5"/>
</svg>
