<svg width="116" height="126" viewBox="0 0 116 126" fill="none" xmlns="http://www.w3.org/2000/svg">
<path d="M114.601 5.95634C114.531 5.93309 114.469 5.90209 114.407 5.86333L108.113 1.40619L106.981 0.902344L105.943 1.01088L104.183 2.42164L103.214 3.32082L100.152 5.82458C100.121 5.85559 100.075 5.88658 100.036 5.90984L99.1833 6.37493L98.2763 6.78576C98.2143 6.81677 98.1368 6.84004 98.0593 6.84779L96.354 7.08033C96.2532 7.09583 96.1524 7.08809 96.0594 7.06483L94.0595 6.54547H93.4936L93.1526 7.04931L92.796 8.04927C92.7805 8.08803 92.765 8.11905 92.7495 8.1578L92.2844 9.01046C92.2611 9.04921 92.2379 9.08798 92.2069 9.11899L91.5868 9.89414C91.5713 9.9174 91.548 9.94065 91.5325 9.9639L90.9201 10.5685L89.9899 12.4289L89.6179 13.4754L89.145 14.6613C89.1373 14.6846 89.1218 14.7078 89.114 14.7311L88.1838 16.514C88.0986 16.669 87.9668 16.793 87.8117 16.8628L86.4165 17.4829C86.2769 17.5449 86.1374 17.5682 85.9901 17.5449L84.9049 17.3899C84.8429 17.3821 84.7731 17.3666 84.7189 17.3356L83.781 16.9481C83.6879 16.9093 83.6027 16.855 83.5329 16.7853L82.8353 16.0876C82.7422 15.9946 82.6802 15.8783 82.6415 15.7543L82.3469 14.7234L82.0291 14.0257L81.471 13.4056L80.8431 12.9483L80.6261 12.925L76.5255 14.6458L75.6961 15.4132L74.7969 16.1651L73.8047 18.4363L73.5102 19.4673C73.4792 19.5991 73.4094 19.7154 73.3164 19.8084L72.6962 20.4285C72.642 20.475 72.5877 20.5215 72.5257 20.5525L71.828 20.9401C71.7893 20.9634 71.7506 20.9789 71.7118 20.9944L70.9056 21.2889L70.301 21.5912L69.8282 22.1183L68.3166 24.6918L66.7741 27.3971C66.7508 27.4359 66.7198 27.4824 66.6811 27.5212L66.1384 28.1413L65.6268 28.8002C65.5803 28.8622 65.5338 28.9087 65.4718 28.9552L61.6735 31.7458C61.6193 31.7845 61.5573 31.8155 61.4875 31.8465L59.1155 32.7302L58.6117 33.1255L58.0613 33.9472C58.0458 33.9782 58.0303 34.0015 58.0071 34.0247L56.6118 35.6525C56.5342 35.7456 56.4335 35.8153 56.325 35.8618L54.4569 36.637C54.3793 36.6757 54.2941 36.6912 54.2088 36.699L51.7283 36.854L49.2401 36.9315L43.4419 38.5671L42.8373 39.0477L41.5583 40.474C41.535 40.505 41.504 40.536 41.4653 40.5593L36.8918 44.2025C36.8143 44.2645 36.7291 44.311 36.6361 44.342L34.2176 45.0707L33.3339 45.7838L32.8843 46.9078L32.9541 47.1868L33.675 48.4891C33.7292 48.5821 33.7602 48.6751 33.768 48.7759L33.8455 49.396C33.8842 49.7061 33.737 50.0084 33.4657 50.1634L32.923 50.4735C32.7603 50.5588 32.582 50.5975 32.4037 50.5588L29.8535 50.1247L29.5201 50.2099L27.8458 51.3029C27.745 51.3649 27.6287 51.4037 27.5125 51.4192L26.8924 51.4967C26.7606 51.5122 26.6288 51.4967 26.5048 51.4424L25.4428 51.0084L25.032 51.1324L23.877 51.8533L22.784 52.5819L21.7996 53.4966L21.4042 54.5663C21.3267 54.7601 21.1795 54.9229 20.9857 55.0081C20.7996 55.0856 20.5826 55.0934 20.3888 55.0159L19.8539 54.7988L19.3191 54.9461L17.3734 55.8841L17.1719 56.0624L17.1874 56.1089L17.4277 56.4422L17.544 56.5197C17.6293 56.574 17.699 56.6515 17.7533 56.729L17.9083 56.9615C17.9781 57.0701 18.0246 57.1863 18.0323 57.3103L18.1951 59.0389C18.1951 59.101 18.1951 59.1552 18.1874 59.2095L17.7998 62L17.4897 64.8448C17.482 64.9456 17.451 65.0464 17.3967 65.1394L17.0091 65.837C16.9781 65.8991 16.9316 65.9533 16.8851 66.0076L16.1099 66.7827C16.0789 66.8137 16.0402 66.8448 16.0014 66.868L14.4511 67.9532C14.4201 67.9765 14.3891 67.992 14.3581 68.0075L12.6993 68.7981C12.6295 68.8291 12.552 68.8524 12.4745 68.8602L10.6141 69.0849L10.0327 69.2787L9.94749 69.426C9.92424 69.4493 9.90872 69.4803 9.88546 69.5035L9.60642 69.8524L8.47468 71.7437C8.39716 71.8755 8.28089 71.984 8.14137 72.046L5.23454 73.3948L4.66869 73.9529L4.2346 74.5188L2.568 79.2007C2.537 79.2937 2.49049 79.379 2.42848 79.4488L1.49829 80.534C1.42077 80.627 1.32776 80.6968 1.21924 80.7433L0.544861 81.0378L1.97112 82.3246C2.03313 82.3789 2.0874 82.4409 2.12616 82.5106L2.43624 83.0532C2.46725 83.1153 2.49823 83.185 2.51374 83.2548L2.66878 83.8749C2.67653 83.9214 2.68426 83.9679 2.69201 84.0144L2.74627 84.9911H2.92459C3.2424 84.9911 3.52921 85.1849 3.64548 85.4795L3.80052 85.8671C3.82377 85.9213 3.83928 85.9756 3.84703 86.0376L3.85474 86.0841C3.94001 86.0763 4.02528 86.0763 4.10279 86.0996L5.11049 86.3321C5.14924 86.3399 5.18801 86.3476 5.21902 86.3631L6.22671 86.7507C6.29647 86.774 6.36624 86.8127 6.4205 86.8593L7.11816 87.4018C7.18017 87.4484 7.23444 87.5026 7.2732 87.5646L7.66077 88.1072C7.69178 88.146 7.71502 88.1848 7.73827 88.2313L8.14137 89.1149L8.39718 89.363L8.6142 89.5258L9.72266 90.1227C9.75367 90.1382 9.78471 90.1537 9.80797 90.1769L10.3505 90.5645C10.4203 90.611 10.4746 90.6653 10.5211 90.7273L10.7536 91.0373C10.7846 91.0838 10.8156 91.1303 10.8389 91.1768L11.304 92.1846C11.3505 92.2853 11.3737 92.4016 11.3737 92.5101V92.7427C11.3737 92.7737 11.3737 92.7969 11.366 92.8279L11.3272 93.2388L11.3428 93.231C11.4668 93.2 11.5908 93.2 11.7148 93.231L12.0249 93.3085C12.1644 93.3395 12.2884 93.4093 12.3892 93.5101L13.0093 94.1302C13.0403 94.1689 13.0791 94.2077 13.1024 94.2542L13.5674 94.9519C13.6217 95.0294 13.6605 95.1301 13.6837 95.2232L13.8387 95.9983C13.8542 96.0681 13.8543 96.1301 13.8543 96.1999L13.986 96.1146C14.0403 96.0836 14.0946 96.0603 14.1488 96.0371L14.8465 95.8045C15.048 95.7425 15.2573 95.758 15.4433 95.851L15.9084 96.0836C15.9782 96.1146 16.0324 96.1611 16.0867 96.2076C16.1875 96.3006 16.265 96.4247 16.3037 96.5642C16.3502 96.7192 16.3503 96.882 16.2882 97.0448L16.1022 97.5331L16.4433 97.4789C16.5131 97.4711 16.5828 97.4711 16.6448 97.4789L17.4199 97.5486C17.7145 97.5796 17.9703 97.7734 18.0711 98.0525L18.5362 99.3315L19.2261 99.8973C19.3268 99.9749 19.4043 100.076 19.4508 100.192L19.6834 100.735C19.7222 100.828 19.7454 100.936 19.7454 101.037C19.8849 101.037 20.0245 101.076 20.1407 101.145L20.5283 101.378C20.6136 101.424 20.6834 101.486 20.7376 101.556L21.0477 101.944C21.1562 102.083 21.2182 102.254 21.2182 102.432V102.82C21.2182 103.122 21.0477 103.393 20.7686 103.525L19.8695 103.944L19.6292 104.471L19.3578 105.525L19.4819 105.54C19.5284 105.548 19.5671 105.556 19.6059 105.571L20.071 105.727C20.1563 105.758 20.2338 105.804 20.3113 105.858L20.6989 106.168C20.9004 106.331 21.0089 106.587 20.9857 106.843C20.9624 107.099 20.8074 107.331 20.5826 107.455L20.3888 107.564L20.4508 107.618C20.4663 107.641 20.4896 107.664 20.5051 107.688L20.8151 108.075C20.9004 108.176 20.9547 108.3 20.9779 108.432L21.0477 108.85L21.1872 109.346C21.195 109.385 21.2027 109.416 21.2105 109.455L21.288 109.998C21.3035 110.114 21.2957 110.238 21.257 110.354L21.1019 110.819C21.0709 110.905 21.0244 110.99 20.9624 111.06L20.3191 111.85L19.916 112.734L19.7997 113.083L18.916 118.245L19.4276 119.594L19.6912 119.982C19.761 120.09 19.8074 120.214 19.823 120.346L19.9004 121.199C19.9082 121.292 19.9005 121.377 19.8772 121.47L19.1873 124.036L20.1098 124.493L23.9778 125.617L25.9466 125.679L27.0319 125.191V124.633L24.032 121.919C23.8925 121.795 23.8072 121.633 23.784 121.447L23.5514 119.741C23.5204 119.54 23.5747 119.338 23.7065 119.168C23.8305 119.005 24.0088 118.896 24.2181 118.873L25.3808 118.718C25.5048 118.703 25.6211 118.71 25.7374 118.757L27.3342 119.307L27.9698 119.199L28.2566 117.044L27.9931 115.92L27.5667 114.858L26.435 112.811C26.4195 112.788 26.404 112.757 26.3962 112.734L25.9312 111.649C25.9157 111.618 25.9079 111.587 25.9001 111.556L25.0475 108.509C25.0165 108.478 24.9932 108.447 24.97 108.409L23.1871 105.385C23.1173 105.261 23.0786 105.13 23.0786 104.99V103.75C23.0786 103.502 23.2026 103.262 23.4042 103.122L25.032 101.959C25.1405 101.874 25.28 101.827 25.4195 101.812L27.9621 101.595L28.2024 101.463L28.2644 101.153L27.9698 98.0912C27.9621 98.0525 27.9621 98.0215 27.9621 97.9827L28.0396 95.8123C28.0396 95.7813 28.0473 95.7425 28.0473 95.7115L28.3574 93.9287C28.3729 93.8666 28.3884 93.8046 28.4194 93.7426L29.117 92.1923C29.1403 92.1458 29.1635 92.0915 29.1945 92.0528L30.2875 90.58C30.3263 90.518 30.3728 90.4715 30.4348 90.4249L31.1324 89.8824C31.1634 89.8591 31.1944 89.8358 31.2254 89.8203L31.9231 89.4327C31.9696 89.4017 32.0161 89.3863 32.0704 89.3708L33.5432 88.9056C33.644 88.8746 33.7525 88.8592 33.8532 88.8669L34.6284 88.9522C34.7679 88.9599 34.8997 89.0142 35.016 89.0994L35.6361 89.5645C35.6826 89.5955 35.7214 89.6343 35.7524 89.673L36.2097 90.1924L36.6515 90.4405L37.9615 90.58C38.1398 90.5955 38.3026 90.673 38.4344 90.797L39.4421 91.8047C39.4731 91.8435 39.5119 91.8822 39.5429 91.9287L41.2637 94.5488L41.7211 94.9441L42.752 95.6805C42.7985 95.7115 42.845 95.7503 42.8838 95.7968L43.4264 96.4169C43.4652 96.4557 43.4962 96.5022 43.5194 96.5487L44.2713 97.9052L44.6589 98.4168L45.1007 98.8044L46.1007 99.1377L46.8758 98.8742L47.7828 98.099L49.5966 95.758C49.6276 95.7115 49.6664 95.6727 49.7129 95.634L50.6431 94.8588C50.6974 94.8201 50.7516 94.7813 50.8136 94.7503L51.8213 94.2852C51.8523 94.2697 51.8833 94.262 51.9143 94.2542L60.0767 91.6575L64.2315 88.4793C64.2858 88.4406 64.3478 88.4096 64.4176 88.3785L69.0065 86.5414L72.0994 84.6268L74.3706 81.9293L75.5721 75.8521C75.6263 75.5575 75.8434 75.3327 76.1302 75.2552L77.8355 74.7823C77.9983 74.7436 78.1766 74.7513 78.3394 74.8211L80.1765 75.5963H80.1842L80.1998 75.5187L80.0525 71.2244L79.9207 70.1314L79.099 68.7594L78.1921 67.5501C78.1611 67.5114 78.1378 67.4726 78.1223 67.4339L77.7037 66.5192C77.665 66.4262 77.6495 66.3331 77.6495 66.2324V65.7673C77.6495 65.7053 77.6572 65.6433 77.6727 65.5813L77.7502 65.2712C77.7657 65.2247 77.7812 65.1782 77.7967 65.1317L78.789 62.9225L78.8897 62.5892L78.2541 62.5039C78.0293 62.4806 77.8278 62.3566 77.7037 62.1706L77.5487 61.938C77.5332 61.907 77.5099 61.876 77.5022 61.8528L77.3471 61.5427C77.3006 61.4497 77.2696 61.3567 77.2619 61.2559L77.1146 59.6513C77.0991 59.5738 77.1069 59.4885 77.1224 59.411L77.2774 58.6359C77.3007 58.5274 77.3472 58.4111 77.4169 58.3181L79.6339 55.419L79.9672 54.8221L80.13 54.388C80.0525 54.3493 79.9827 54.3105 79.9284 54.2563L79.2231 53.6361C79.1533 53.5741 79.099 53.4966 79.0525 53.4113L78.0061 51.3882L77.3937 50.644L76.7193 50.0317L75.1612 49.0705L69.0375 48.3961C68.9445 48.3883 68.8515 48.3573 68.7662 48.3186L67.1384 47.4659C66.9833 47.3806 66.8593 47.2489 66.7895 47.0861L65.9291 45.1482C65.8284 44.9079 65.8516 44.6366 65.9912 44.4118L66.9988 42.8615C67.0686 42.7685 67.1539 42.6832 67.2547 42.6212L74.4946 38.3113L77.0914 36.2494C77.1301 36.2184 77.1689 36.1874 77.2076 36.1719L78.6804 35.3967L79.8897 34.6526L80.8431 33.2185L82.1376 30.4047C82.1686 30.3427 82.2074 30.2885 82.2461 30.2342L84.184 27.9087C84.215 27.8777 84.246 27.8467 84.277 27.8157L88.6954 24.0175C88.7264 23.9942 88.7574 23.9632 88.7962 23.9477L90.1915 23.095C90.2922 23.033 90.4008 22.9942 90.5171 22.9865L94.9044 22.5292L96.0904 22.0563L96.416 21.4594L96.4857 18.1573C96.4857 18.0643 96.5012 17.979 96.54 17.9015L97.3927 15.6535C97.4779 15.4132 97.6717 15.235 97.9198 15.1729L99.7026 14.7078C99.7724 14.6923 99.8499 14.6768 99.9197 14.6846L102.059 14.7621L103.664 14.359L109.896 9.72361C109.973 9.66935 110.059 9.62283 110.144 9.59958L113.748 8.54538L115.113 7.61519L115.469 6.26642L114.601 5.95634Z" fill="#669187"/>
</svg>
