<svg width="107" height="88" viewBox="0 0 107 88" fill="none" xmlns="http://www.w3.org/2000/svg">
<path d="M106.939 72.5023L104.769 77.1998L96.3582 87.6954L96.3349 87.6334C96.3272 87.6024 96.3194 87.5713 96.3039 87.5403L96.0714 86.9977C96.0481 86.9357 96.0171 86.8815 95.9784 86.835L94.3118 84.6413L93.7614 83.5406L92.8545 79.9748C92.8312 79.8973 92.8002 79.8198 92.7537 79.75L92.2111 78.8974C92.1879 78.8664 92.1646 78.8276 92.1336 78.7966L90.7151 77.223L90.3352 76.5952L89.9864 75.4945L89.5368 72.8279C89.5291 72.7969 89.5213 72.7736 89.5136 72.7426L88.0175 67.6344L87.6997 66.8515L87.785 66.7275C87.909 66.5337 87.9478 66.3089 87.8857 66.0918L87.6842 65.3322L87.6067 61.2393C87.6067 61.2161 87.6067 61.1851 87.5989 61.1618L87.4439 59.9216C87.4362 59.8596 87.4206 59.7976 87.3974 59.7355L87.0098 58.7279C86.9943 58.6891 86.9788 58.6503 86.9556 58.6116L83.6224 53.0305C83.5914 52.984 83.5604 52.9374 83.5294 52.8987L82.6767 51.9685C82.6379 51.9375 82.6069 51.8987 82.5604 51.8677L72.4834 44.434C72.4369 44.3952 72.3904 44.3642 72.3361 44.341L68.4604 42.6356C68.4216 42.6201 68.3906 42.6124 68.3441 42.5969L63.9257 41.4342C63.9025 41.4264 63.8715 41.4264 63.8405 41.4186L62.2126 41.1861C62.0498 41.1628 61.8793 41.1938 61.7398 41.2714L60.7321 41.814C60.5848 41.8915 60.4763 42.0078 60.4065 42.1473L59.7864 43.3875C59.7554 43.4495 59.7321 43.5038 59.7166 43.5658L59.329 45.3254L58.5384 45.775C58.3989 45.8603 58.2826 45.9843 58.2128 46.1393L57.4144 47.9532L56.2827 49.1469L55.0037 49.7903L53.6472 49.8523L52.1046 49.1857L47.5157 45.899C47.3839 45.806 47.2289 45.7518 47.0661 45.7518H46.2134C46.1669 45.7518 46.1204 45.7595 46.0817 45.7673L44.0585 46.1238L43.9345 45.6897C43.8957 45.5657 43.8337 45.4495 43.7407 45.3564L43.5857 45.2014C43.4151 45.0309 43.1748 44.9533 42.9345 44.9844C42.6942 45.0154 42.4849 45.1549 42.3609 45.3642L41.5703 46.7362L39.9502 45.0619C39.8494 44.9534 39.7176 44.8836 39.5781 44.8448L36.4775 44.0697C36.4 44.0542 36.3225 44.0464 36.2449 44.0464L27.1756 44.589C27.1059 44.5968 27.0361 44.6045 26.9741 44.6278L21.5945 46.4494H19.0985L17.7963 46.1238L16.7266 45.3177L14.2848 42.8759C14.2538 42.8527 14.2305 42.8294 14.1995 42.8062L11.4865 40.7908C11.4477 40.7598 11.4167 40.7443 11.378 40.721L2.18464 35.9693L1.1847 34.9771L0.952148 33.9307L1.4715 29.272L1.79706 28.4271L2.23891 27.7294L2.85903 27.1713L4.62639 26.2876C4.71165 26.2489 4.78917 26.1868 4.85893 26.1093L5.47905 25.4117C5.65733 25.2102 5.71936 24.9156 5.63409 24.6521L5.24651 23.4893C5.22326 23.4196 5.1845 23.3498 5.14574 23.2878L2.15364 19.0709L0.90564 16.5827L0.533569 14.8386L1.41725 13.5983L2.38619 12.9395L3.42489 12.8232L4.87443 13.2805L6.33172 14.234C6.37823 14.2572 6.41699 14.2805 6.4635 14.296L7.39368 14.6836C7.50995 14.7378 7.64174 14.7533 7.77351 14.7378L8.47115 14.6603C8.71144 14.6371 8.92849 14.4975 9.05251 14.2882L9.51761 13.5131C9.60288 13.3735 9.64163 13.2108 9.62613 13.048L9.54861 12.1953C9.54086 12.1101 9.51761 12.0248 9.47885 11.9473L9.09127 11.0946C9.06802 11.0403 9.03701 10.9861 8.99826 10.9396L8.45565 10.2419C8.42465 10.2032 8.39364 10.1644 8.35488 10.1334L7.73475 9.59079C7.70375 9.55978 7.66499 9.53655 7.62623 9.51329L5.53331 8.24203L4.96746 7.67616L4.86668 7.50562V7.49788L4.98295 7.38935C5.06822 7.30408 5.13023 7.19558 5.16899 7.08705L5.63409 5.69176C5.67285 5.57549 5.68059 5.45921 5.66509 5.35069L5.58757 4.73058C5.57982 4.65306 5.56432 4.58331 5.53331 4.52129L5.06822 3.43606C5.06822 3.42831 5.06047 3.42056 5.06047 3.42056L5.39378 3.34304L6.57202 3.27328C6.65729 3.26553 6.74256 3.25004 6.82007 3.21128L7.75026 2.8237C7.80452 2.8082 7.85103 2.77719 7.89754 2.74618L10.223 1.11835C10.254 1.0951 10.2773 1.07961 10.3005 1.05635L11.1144 0.319945L11.4167 0.273438L12.1454 0.816055L12.6105 1.12611C12.6802 1.18037 12.7655 1.21137 12.8585 1.23462L15.1065 1.77724C15.1375 1.78499 15.1685 1.79273 15.2072 1.79273L17.2071 2.00204L17.4164 2.18807H17.4242L17.5327 3.08725V5.75379C17.5327 5.84681 17.5482 5.93981 17.587 6.03283L17.9745 7.04055C17.99 7.08706 18.0133 7.13355 18.0366 7.17231L19.1528 8.96291L19.6721 10.428C19.6799 10.4667 19.7031 10.5055 19.7186 10.5442L20.9589 12.7922C20.9744 12.8232 20.9977 12.8465 21.0132 12.8775L21.6333 13.7301C21.6875 13.7999 21.7496 13.8619 21.8193 13.9084L22.5945 14.451C22.672 14.5053 22.765 14.5518 22.8658 14.5673L23.8735 14.7998C23.9277 14.8153 23.982 14.8231 24.044 14.8231H25.9199L26.3075 15.0556L26.6563 15.8075L27.4159 18.0942C27.4314 18.133 27.4547 18.1795 27.4779 18.226L28.6407 20.3189C28.6639 20.3654 28.7027 20.412 28.7414 20.4585L30.2685 22.1405L40.8881 31.83C40.9889 31.923 41.1207 31.9928 41.2524 32.016L42.3532 32.2331L42.795 32.4036L43.1206 32.6672L44.7484 34.4578L46.1437 35.7755C46.2212 35.8453 46.3065 35.8995 46.3995 35.9305L47.4072 36.3181C47.4537 36.3414 47.5002 36.3491 47.5544 36.3569L50.035 36.7987L50.6706 37.2018L52.9573 39.7133L53.4069 40.4187L53.9185 42.1008C53.9882 42.3178 54.1433 42.4961 54.3448 42.5814L54.9649 42.8604L55.2052 43.0387C55.2595 43.0852 55.3293 43.1162 55.3913 43.1395L56.399 43.5271C56.5075 43.5658 56.616 43.5813 56.7323 43.5813L57.895 43.5038C58.05 43.4883 58.2051 43.434 58.3214 43.3333L59.0965 42.7132C59.1895 42.6434 59.2593 42.5581 59.3058 42.4651L61.0421 39.0622L61.701 38.3413L62.2901 37.8839L62.918 37.5661L63.6699 37.3801H65.8868L74.3361 39.4342L76.4057 40.3179L78.4134 41.5117L80.9559 43.4573L88.5369 51.8755L93.8467 60.4254C93.9087 60.5185 93.9862 60.596 94.0715 60.658L94.9474 61.2161C94.9939 61.2393 95.0404 61.2626 95.0869 61.2859L95.7071 61.5184C95.7923 61.5494 95.8853 61.5649 95.9784 61.5649C96.0559 61.5649 96.1411 61.5494 96.2187 61.5261L98.1411 60.906L105.125 68.7816L106.505 70.8745L106.939 72.5023Z" fill="#669187"/>
</svg>
